<svg xml:space="preserve" style="max-height: 500px" viewBox="0 123.082 491 367" y="0px" x="0px" xmlns:xlink="http://www.w3.org/1999/xlink" xmlns="http://www.w3.org/2000/svg" version="1.1" width="491" height="367">
<g id="BACKGROUND">
	<rect height="500" width="500" style="fill:#FFFFFF;"/>
</g>
<g id="OBJECTS">
	<g>
		<path d="M261.907,439.893c-5.611,9.531-16.239,14.961-27.294,14.64c-5.703-0.166-14.985-0.383-23.202-0.335&#10;&#9;&#9;&#9;c-19.618,0.115-31.321-30.212-5.93-35.112c22.291-4.303,18.523-10.674,27.899-15.014c12.893-5.969,28.319,1.559,31.679,15.364&#10;&#9;&#9;&#9;c1.637,6.726,0.627,13.348-2.287,18.89c-0.023,0.044-0.047,0.088-0.07,0.133C262.449,438.945,262.183,439.423,261.907,439.893z" style="fill:#EDF6F7;"/>
		<path d="M98.1,377.658c-36.031-38.761-34.844-102.957-0.991-143.633&#10;&#9;&#9;&#9;c20.745-24.927,50.083-37.83,79.714-38.443c13.301-0.275,26.14-6.028,33.767-16.927c10.476-14.972,22.387-32.437,46.6-35.772&#10;&#9;&#9;&#9;c27.247-3.753,50.899,14.607,61.688,35.357c10.206,19.625,22.703,24.08,37.065,32.359c9.38,5.407,18.129,12.37,25.878,20.919&#10;&#9;&#9;&#9;c36.076,39.8,36.981,98.99,2.284,139.998c-28.123,33.237-75.853,54.442-110.405,33.777c-30.114-18.011-42.467-12.6-67.232-0.357&#10;&#9;&#9;&#9;C170.522,422.707,130.49,412.5,98.1,377.658z" style="fill:#EDF6F7;"/>
		<circle r="23.847" cy="164.409" cx="182.504" style="fill:#EDF6F7;"/>
	</g>
	<g>
		<g>
			<g>
				<path d="M159.7,317.729c0,0-17.733-44.462-21.851-54.881c-5.128-12.977-15.73-29.562-9.16-33.303&#10;&#9;&#9;&#9;&#9;&#9;c7.415-4.223,9.944,14.535,15.023,32.896c2.117,7.654,18.435,53.701,18.565,54.087C162.6,317.486,160.201,318.99,159.7,317.729z" style="fill:#F07D18;"/>
				<g>
					<path d="M155.126,310.989c-0.092,0.193-9.827,6.17-11.862,5.763c-2.036-0.407,1.384-7.41,1.588-7.532&#10;&#9;&#9;&#9;&#9;&#9;&#9;c0.204-0.122,4.436-2.99,4.436-2.99S156.403,308.32,155.126,310.989z" style="fill:#FFB9A0;"/>
					<g>
						<path d="M152.018,310.93c-0.152-0.136-3.705-4.226-3.176-8.379c0.529-4.153,1.873-6.319,2.423-8.216&#10;&#9;&#9;&#9;&#9;&#9;&#9;&#9;c0.249-0.859,1.771-0.892,1.893-0.118c0.091,0.576,0.122,3.562,0.122,3.562l3.746-1.221l2.158,11.318&#10;&#9;&#9;&#9;&#9;&#9;&#9;&#9;C159.183,307.877,154.379,313.047,152.018,310.93z" style="fill:#FFE5CF;"/>
						<path d="M152.018,310.93c-0.152-0.136-3.705-4.226-3.176-8.379&#10;&#9;&#9;&#9;&#9;&#9;&#9;&#9;c0.529-4.153,1.873-6.319,2.423-8.216c0.249-0.859,1.771-0.892,1.893-0.118c0.091,0.576,0.122,3.562,0.122,3.562l3.746-1.221&#10;&#9;&#9;&#9;&#9;&#9;&#9;&#9;l2.158,11.318C159.183,307.877,154.379,313.047,152.018,310.93z" style="opacity:0.5;fill:#FFB9A0;"/>
					</g>
					<g>
						<path d="M156.116,303.67c0,0-1.547,0.733-1.846,1.411c-0.299,0.679,0.38,1.357,1.357,1.276&#10;&#9;&#9;&#9;&#9;&#9;&#9;&#9;c0.977-0.081,3.447-0.651,4.397-0.977s0.516-2.144-0.407-2.226C158.694,303.073,156.74,303.507,156.116,303.67z" style="fill:#FFE5CF;"/>
						<path d="M153.925,302.504c0,0-1.472,0.93-1.613,1.658c-0.142,0.728,0.67,1.24,1.605,0.945&#10;&#9;&#9;&#9;&#9;&#9;&#9;&#9;c0.935-0.295,4.574-1.435,5.429-1.963s0.01-2.327-0.916-2.331C157.005,300.807,154.768,301.977,153.925,302.504z" style="fill:#FFE5CF;"/>
						<path d="M153.438,300.021c0,0-1.499,0.941-1.645,1.676c-0.146,0.735,0.679,1.25,1.631,0.951&#10;&#9;&#9;&#9;&#9;&#9;&#9;&#9;c0.952-0.299,4.657-1.458,5.527-1.991c0.871-0.534,0.065-2.483-0.877-2.485C156.625,298.169,154.296,299.488,153.438,300.021z" style="fill:#FFE5CF;"/>
						<path d="M152.908,297.665c0,0-1.166,0.868-1.247,1.606c-0.081,0.737,0.776,1.175,1.689,0.799&#10;&#9;&#9;&#9;&#9;&#9;&#9;&#9;c0.913-0.376,3.768-1.423,4.581-2.024c0.813-0.6-0.147-2.454-1.076-2.376C155.424,295.789,153.708,297.066,152.908,297.665z" style="fill:#FFE5CF;"/>
					</g>
				</g>
			</g>
			<g>
				<g>
					<path d="M31.735,444.627c0,0-2.15,1.853-3.46,3.856c-1.31,2.004,0.085,6.46,1.27,8.853&#10;&#9;&#9;&#9;&#9;&#9;&#9;c1.185,2.393,7.79,7.086,9.962,7.094c2.171,0.008,1.329-7.052,1.991-9.71c0.661-2.658,1.5-4.793,1.5-4.793&#10;&#9;&#9;&#9;&#9;&#9;&#9;S39.363,444.043,31.735,444.627z" style="fill:#070540;"/>
					<path d="M39.507,464.43c-2.171-0.008-8.777-4.701-9.962-7.094c-1.07-2.161-2.304-5.998-1.57-8.199&#10;&#9;&#9;&#9;&#9;&#9;&#9;c-0.181,0.239-0.356,0.483-0.517,0.73c-1.31,2.004,0.085,6.46,1.27,8.853c1.185,2.393,7.791,7.086,9.962,7.094&#10;&#9;&#9;&#9;&#9;&#9;&#9;c0.628,0.002,1.003-0.588,1.236-1.49C39.799,464.392,39.661,464.431,39.507,464.43z" style="fill:#E6E8F4;"/>
				</g>
				<g>
					<path d="M133.238,454.683c0,0,0.116,1.629,0.494,2.282c0.378,0.653,8.488,2.814,11.482,3.104&#10;&#9;&#9;&#9;&#9;&#9;&#9;c3.854,0.373,9.665-0.365,9.994-1.287c0.329-0.922-0.964-3.586-2.262-4.84c-1.298-1.253-6.66-4.532-8.557-5.461&#10;&#9;&#9;&#9;&#9;&#9;&#9;C142.493,447.552,133.466,451.807,133.238,454.683z" style="fill:#070540;"/>
					<path d="M145.214,460.069c-2.994-0.29-11.104-2.451-11.482-3.104c0,0-0.124,0.434,0.254,1.087&#10;&#9;&#9;&#9;&#9;&#9;&#9;c0.378,0.653,8.23,2.879,11.224,3.168c3.854,0.373,9.665-0.365,9.994-1.287c0.089-0.248,0.057-0.625-0.059-1.065&#10;&#9;&#9;&#9;&#9;&#9;&#9;C154.498,459.749,148.946,460.43,145.214,460.069z" style="fill:#E6E8F4;"/>
				</g>
				<g>
					<path d="M77.105,342.157c0,0-7.491,10.748-8.957,17.751c-1.466,7.003-4.451,35.098-4.94,37.661&#10;&#9;&#9;&#9;&#9;&#9;&#9;c-0.121,0.636-6.702,4.477-9.663,8.85c-8.972,13.249-22.08,37.152-22.202,38.009c-0.163,1.14,9.928,2.975,11.353,6.447&#10;&#9;&#9;&#9;&#9;&#9;&#9;c2.543-2.104,31.037-40.761,34.408-44.554c3.602-4.054,16.285-22.405,16.285-22.405s24.982,24.359,26.219,26.15&#10;&#9;&#9;&#9;&#9;&#9;&#9;c0.404,0.585,0.293,6.274,1.9,12.431c3.314,12.7,11.067,31.15,11.725,32.028c0,0,7.057-6.135,11.128-6.243&#10;&#9;&#9;&#9;&#9;&#9;&#9;c0,0-9.445-35.61-11.888-45.869c-2.443-10.26-21.985-45.622-24.102-48.298C106.256,351.44,79.138,342.32,77.105,342.157z" style="fill:#6B78B7;"/>
					<g style="opacity:0.33;">
						<path d="M108.373,354.115c-2.117-2.675-29.235-11.795-31.268-11.958c0,0-7.491,10.748-8.957,17.751&#10;&#9;&#9;&#9;&#9;&#9;&#9;&#9;c-0.273,1.304-0.599,3.34-0.951,5.804c0.004-0.007,7.303-11.964,44.265-6.524&#10;&#9;&#9;&#9;&#9;&#9;&#9;&#9;C109.919,356.498,108.797,354.651,108.373,354.115z" style="fill:#6B78B7;"/>
						<path d="M101.533,372.475c-2.606,3.284-8.143,11.442-8.143,11.442s6.374,6.216,12.843,12.598&#10;&#9;&#9;&#9;&#9;&#9;&#9;&#9;c0,0,0,0,0,0C99.425,387.793,104.139,369.191,101.533,372.475z" style="fill:#6B78B7;"/>
					</g>
				</g>
			</g>
			<path d="M145.096,325.058c0,0,2.28,0.896,4.275-2.484c1.995-3.379,3.379-10.545,3.379-10.545l-9.283,2.565&#10;&#9;&#9;&#9;&#9;C143.468,314.594,140.943,322.045,145.096,325.058z" style="fill:#ACB3D8;"/>
			<g>
				<g>
					<path d="M109.556,290.492c-4.318,0.045-15.377,2.887-19.151,8.401&#10;&#9;&#9;&#9;&#9;&#9;&#9;c-5.537,8.088-3.447,21.28-7.437,27.305c-3.99,6.026-8.628,10.667-7.895,15.797c0.733,5.13,28.002,14.375,37.041,11.88&#10;&#9;&#9;&#9;&#9;&#9;&#9;c7.443-2.055,14.49-27.169,17.43-34.191c0,0,10.748,4.967,15.552,5.374c0,0-2.971-4.846,0.042-11.686&#10;&#9;&#9;&#9;&#9;&#9;&#9;c3.013-6.84,4.15-7.141,4.15-7.141s-3.784,0.181-12.252-5.275C128.567,295.5,120.847,290.374,109.556,290.492z" style="fill:#E6E8F4;"/>
				</g>
				<g>
					<path d="M137.035,300.956c-8.468-5.456-16.188-10.582-27.479-10.463&#10;&#9;&#9;&#9;&#9;&#9;&#9;c-2.03,0.021-7.017-0.289-2.465,5.478c6.932,8.783,25.692,11.909,22.453,23.713c0,0,10.748,4.967,15.552,5.374&#10;&#9;&#9;&#9;&#9;&#9;&#9;c0,0-2.971-4.846,0.042-11.686c3.013-6.84,4.15-7.141,4.15-7.141S145.503,306.411,137.035,300.956z" style="fill:#E6E8F4;"/>
				</g>
			</g>
			<g>
				<path d="M105.691,331.26c0,0,1.297,0.963,10.702-8.238c9.405-9.201-4.804-7.532-8.468-4.641&#10;&#9;&#9;&#9;&#9;&#9;C104.261,321.271,101.009,327.433,105.691,331.26z" style="fill:#ACB3D8;"/>
				<g>
					<path d="M121.287,314.472c0,0,25.738-0.76,27.501-1.031c1.764-0.271,5.582-6.909,6.523-7.824&#10;&#9;&#9;&#9;&#9;&#9;&#9;c0.941-0.915,6.193-0.184,6.844,0c0.651,0.184,0.344,1.812,0.152,2.138c0,0,1.477,0.543,1.789,1.154&#10;&#9;&#9;&#9;&#9;&#9;&#9;c0.23,0.449-0.244,1.9-0.244,1.9s1.004,0.38,1.167,0.906c0.083,0.268-0.271,1.32-0.271,1.32s1.167,0.488,1.045,1.466&#10;&#9;&#9;&#9;&#9;&#9;&#9;c-0.078,0.621-1.603,2.263-2.301,2.095c-0.698-0.168-2.584-0.36-3.392,0.216c-0.808,0.575-1.004,1.333-0.836,1.869&#10;&#9;&#9;&#9;&#9;&#9;&#9;c0.142,0.452-1.818,2.551-4.26,2.47c-2.443-0.081-5.482-1.181-11.115,1.344c-5.632,2.524-17.561,4.601-22.284,4.641&#10;&#9;&#9;&#9;&#9;&#9;&#9;c-4.723,0.041-11.44-4.641-11.522-4.641C110.001,322.493,116.488,314.618,121.287,314.472z" style="fill:#FFE5CF;"/>
					<path d="M164.747,313.034c0,0,0.355-1.052,0.271-1.32c-0.163-0.526-1.167-0.906-1.167-0.906&#10;&#9;&#9;&#9;&#9;&#9;&#9;s0.474-1.45,0.244-1.9c-0.312-0.611-1.789-1.154-1.789-1.154c0.192-0.326,0.499-1.954-0.152-2.138&#10;&#9;&#9;&#9;&#9;&#9;&#9;c-0.429-0.121-2.853-0.478-4.728-0.446c0.443,0.036,2.236,0.258,2.611,0.712c0.387,0.468-0.071,1.751,0.377,2.463&#10;&#9;&#9;&#9;&#9;&#9;&#9;c0.448,0.712,2.209,3.746,2.514,4.601c0.305,0.855,0.163,3.415-1.119,3.479c-0.001,0-0.002,0.001-0.003,0.001&#10;&#9;&#9;&#9;&#9;&#9;&#9;c0.67-0.006,1.331,0.084,1.685,0.17c0.698,0.168,2.223-1.474,2.301-2.095C165.914,313.522,164.747,313.034,164.747,313.034z" style="opacity:0.5;fill:#FFB9A0;"/>
				</g>
				<path d="M121.287,314.472c0.018-0.027-4.608-1.384-10.552-7.247s-14.494-8.434-18.402-5.764&#10;&#9;&#9;&#9;&#9;&#9;c-3.908,2.67-6.762,10.982-0.203,16.838c9.12,8.143,11.24,12.961,13.563,12.961c0,0-2.082-0.462,4.188-6.243&#10;&#9;&#9;&#9;&#9;&#9;C116.149,319.236,119.055,317.811,121.287,314.472z" style="fill:#F3F4FA;"/>
			</g>
			<g>
				<path d="M112.848,299.173c0,0,1.71,0.798,2.527,0.342c0.817-0.456-0.589-5.529-1.919-6.498&#10;&#9;&#9;&#9;&#9;&#9;C112.126,292.049,112.278,298.299,112.848,299.173z" style="fill:#ACB3D8;"/>
				<g>
					<path d="M118.244,286.599c0,0-1.026,2.486-3.791,2.676s0.114-7.201,0.114-7.201h4.323&#10;&#9;&#9;&#9;&#9;&#9;&#9;C118.89,282.074,118.624,285.329,118.244,286.599z" style="fill:#070540;"/>
					<path d="M118.244,286.599c0,0-1.026,2.486-3.791,2.676s0.114-7.201,0.114-7.201h4.323&#10;&#9;&#9;&#9;&#9;&#9;&#9;C118.89,282.074,118.624,285.329,118.244,286.599z" style="fill:#070540;"/>
					<path d="M102.646,281.912c0,0-0.399-4.602,0.855-6.526c1.16-1.78,11.147-2.577,12.901,0.363&#10;&#9;&#9;&#9;&#9;&#9;&#9;c2.329,3.905-0.166,11.327-0.166,11.327S103.948,294.107,102.646,281.912z" style="fill:#D14122;"/>
					<path d="M106.234,293.284c0,0-0.155,1.658-0.117,1.962c0.038,0.304,5.364,3.358,6.732,3.928&#10;&#9;&#9;&#9;&#9;&#9;&#9;c0,0,3.534-11.818,3.382-11.78C116.078,287.432,106.234,293.284,106.234,293.284z" style="fill:#FFB9A0;"/>
					<path d="M102.646,281.912c0.005,0.166,0.546,10.868,0.688,12.065s3.358,1.615,4.84,0.959&#10;&#9;&#9;&#9;&#9;&#9;&#9;c1.482-0.655,5.009-3.163,5.412-3.762c0.402-0.599,0.687-2.166,0.687-2.166s-0.057,0.787,1.083,0.55&#10;&#9;&#9;&#9;&#9;&#9;&#9;c1.14-0.237,2.258-1.769,2.308-2.688c0.143-2.613-2.593-3.03-3.363,0.522c-0.077,0.355-1.05,0.551-1.026,0.275&#10;&#9;&#9;&#9;&#9;&#9;&#9;c0.024-0.275,0.279-3.163,0.31-3.676c0.032-0.513-1.08-1.083-1.108-1.567c-0.029-0.485,0.826-3.819,0.598-4.36&#10;&#9;&#9;&#9;&#9;&#9;&#9;c-0.228-0.542-3.826,1.083-6.943,0.399C103.016,277.78,102.564,279.092,102.646,281.912z" style="fill:#FFE5CF;"/>
					<path d="M102.877,286.411c2.904-0.735,5.754,2.769,10.47,0.451c0.085-0.975,0.217-2.508,0.24-2.869&#10;&#9;&#9;&#9;&#9;&#9;&#9;c0.032-0.513-1.08-1.083-1.108-1.567c-0.029-0.485,0.826-3.819,0.598-4.36c-0.228-0.542-3.826,1.083-6.943,0.399&#10;&#9;&#9;&#9;&#9;&#9;&#9;c-3.117-0.684-3.57,0.628-3.488,3.448C102.648,281.984,102.75,284.022,102.877,286.411z" style="fill:#FFB9A0;"/>
					<path d="M118.244,286.599c0,0,0.489-3.071-1.536-2.821c-4.515,0.557-10.928-3.518-14.614-2.806&#10;&#9;&#9;&#9;&#9;&#9;&#9;c0,0-0.686-5.125,3.04-7.41c4.028-2.47,12.074-0.997,13.813,3.99C120.637,282.399,118.244,286.599,118.244,286.599z" style="fill:#070540;"/>
					<g>
						<path d="M114.568,284.56c0,0-2.282,1.171-4.793,0.857c-2.512-0.313-5.314-2.907-10.644-2.736&#10;&#9;&#9;&#9;&#9;&#9;&#9;&#9;l-0.218-0.456c0,0,2.569-0.27,3.182-0.441c0.922-0.257,2.976-0.383,5.168,0.285c2.1,0.64,7.305,1.678,7.305,1.678V284.56z" style="fill:#070540;"/>
						<path d="M114.568,283.747c0,0-2.282,1.357-4.793,1.043c-2.512-0.314-5.533-2.736-10.862-2.565&#10;&#9;&#9;&#9;&#9;&#9;&#9;&#9;c0,0,2.261-0.997,3.182-1.254c0.922-0.257,2.976-0.383,5.168,0.285C109.599,281.969,113.38,283.502,114.568,283.747z" style="fill:#6B78B7;"/>
					</g>
				</g>
			</g>
		</g>
		<path d="M163.16,316.605c-0.408-0.925-1.706-1.249-2.9-0.723s-1.831,1.703-1.423,2.629&#10;&#9;&#9;&#9;c0.408,0.925,1.706,1.249,2.9,0.723C162.931,318.707,163.568,317.53,163.16,316.605z" style="fill:#FF946E;"/>
	</g>
	<g>
		<g>
			<polygon points="419.984,337.767 416.882,338.918 422.524,354.125 425.626,352.974 428.728,351.823 &#10;&#9;&#9;&#9;&#9;423.086,336.616" style="fill:#ACB3D8;"/>
			<polygon points="425.626,352.974 421.109,354.65 422.158,357.476 426.674,355.8 431.191,354.124 &#10;&#9;&#9;&#9;&#9;430.143,351.298" style="fill:#070540;"/>
			<polygon points="418.935,334.941 415.112,336.36 416.16,339.186 419.984,337.767 423.808,336.349 &#10;&#9;&#9;&#9;&#9;422.759,333.522" style="fill:#070540;"/>
			<g>
				<g>
					<path d="M395.569,311.611c-0.005-0.006-0.013-0.011-0.018-0.017c0.03,0.082,0.064,0.158,0.095,0.239&#10;&#9;&#9;&#9;&#9;&#9;&#9;C395.62,311.759,395.594,311.685,395.569,311.611z" style="fill:#6B78B7;"/>
				</g>
				<path d="M421.899,303.295c-0.085-0.259-0.174-0.518-0.27-0.776c-3.327-8.968-11.818-14.089-18.966-11.437&#10;&#9;&#9;&#9;&#9;&#9;c-7.147,2.652-10.244,12.072-6.917,21.04c0.096,0.258,0.197,0.513,0.301,0.764l-0.016,0.006&#10;&#9;&#9;&#9;&#9;&#9;c4.859,13.097,16.489,13.662,20.04,23.111l1.613-0.598l-0.677-1.489c-1.931-3.884-5.124-6.248-8.481-8.734&#10;&#9;&#9;&#9;&#9;&#9;c-0.82-0.607-1.646-1.22-2.462-1.862c2.827,1.118,5.841,1.28,8.648,0.239c2.807-1.041,4.986-3.129,6.399-5.821&#10;&#9;&#9;&#9;&#9;&#9;c-0.2,1.018-0.426,2.021-0.651,3.017c-0.924,4.075-1.802,7.949-0.732,12.153l0.468,1.566l1.603-0.595&#10;&#9;&#9;&#9;&#9;&#9;c-3.472-9.479,4.975-17.493,0.116-30.59L421.899,303.295z M414.124,321.974c-6.262,2.323-13.795-2.36-16.793-10.44&#10;&#9;&#9;&#9;&#9;&#9;c-2.998-8.08-0.342-16.544,5.92-18.867c6.262-2.323,13.795,2.36,16.793,10.44C423.042,311.187,420.386,319.651,414.124,321.974z" style="fill:#6B78B7;"/>
				<path d="M421.431,302.016c0-0.008,0.002-0.017,0.003-0.024c0.03,0.082,0.054,0.162,0.084,0.244&#10;&#9;&#9;&#9;&#9;&#9;C421.489,302.162,421.46,302.089,421.431,302.016z" style="fill:#6B78B7;"/>
				<g>
					<defs>
						<path d="M403.251,292.667c6.262-2.323,13.795,2.36,16.793,10.44c2.998,8.08,0.342,16.544-5.92,18.867&#10;&#9;&#9;&#9;&#9;&#9;&#9;&#9;c-6.262,2.323-13.795-2.36-16.793-10.44C394.334,303.454,396.989,294.99,403.251,292.667" id="SVGID_1_"/>
					</defs>
					<clipPath id="SVGID_00000101063778808962679130000003589226607265125032_">
						
					</clipPath>
					<g style="clip-path:url(#SVGID_00000101063778808962679130000003589226607265125032_);">
						<g>
							
								<rect height="0.624" width="27.229" style="fill:#070540;" transform="matrix(0.9376 -0.3478 0.3478 0.9376 -77.5826 159.1112)" y="295.32" x="390.737"/>
						</g>
						<g>
							
								<rect height="0.624" width="27.229" style="fill:#070540;" transform="matrix(0.9376 -0.3478 0.3478 0.9376 -78.218 159.486)" y="297.277" x="391.463"/>
						</g>
						<g>
							
								<rect height="0.624" width="27.229" style="fill:#070540;" transform="matrix(0.9376 -0.3478 0.3478 0.9376 -78.8539 159.8625)" y="299.234" x="392.189"/>
						</g>
						<g>
							
								<rect height="0.624" width="27.229" style="fill:#070540;" transform="matrix(0.9376 -0.3478 0.3478 0.9376 -79.4889 160.2356)" y="301.191" x="392.915"/>
						</g>
						<g>
							
								<rect height="0.624" width="27.229" style="fill:#070540;" transform="matrix(0.9376 -0.3478 0.3478 0.9376 -80.1243 160.6104)" y="303.148" x="393.641"/>
						</g>
						<g>
							
								<rect height="0.624" width="27.229" style="fill:#070540;" transform="matrix(0.9376 -0.3478 0.3478 0.9376 -80.7598 160.9852)" y="305.106" x="394.367"/>
						</g>
						<g>
							
								<rect height="0.624" width="27.229" style="fill:#070540;" transform="matrix(0.9376 -0.3478 0.3478 0.9376 -81.3958 161.3618)" y="307.063" x="395.094"/>
						</g>
						<g>
							
								<rect height="0.624" width="27.229" style="fill:#070540;" transform="matrix(0.9376 -0.3478 0.3478 0.9376 -82.0307 161.7348)" y="309.02" x="395.82"/>
						</g>
						<g>
							
								<rect height="0.624" width="27.229" style="fill:#070540;" transform="matrix(0.9376 -0.3478 0.3478 0.9376 -82.6661 162.1096)" y="310.977" x="396.546"/>
						</g>
						<g>
							
								<rect height="0.624" width="27.229" style="fill:#070540;" transform="matrix(0.9376 -0.3478 0.3478 0.9376 -83.3014 162.4838)" y="312.934" x="397.272"/>
						</g>
						<g>
							
								<rect height="0.624" width="27.229" style="fill:#070540;" transform="matrix(0.9376 -0.3478 0.3478 0.9376 -83.9377 162.861)" y="314.892" x="397.998"/>
						</g>
						<g>
							
								<rect height="0.624" width="27.229" style="fill:#070540;" transform="matrix(0.9376 -0.3478 0.3478 0.9376 -84.5726 163.2341)" y="316.849" x="398.724"/>
						</g>
						<g>
							
								<rect height="0.624" width="27.229" style="fill:#070540;" transform="matrix(0.9376 -0.3478 0.3478 0.9376 -85.2081 163.6089)" y="318.806" x="399.45"/>
						</g>
						<g>
							
								<rect height="44.293" width="0.624" style="fill:#070540;" transform="matrix(0.9376 -0.3478 0.3478 0.9376 -82.9282 158.4968)" y="288.077" x="399.675"/>
						</g>
						<g>
							
								<rect height="44.293" width="0.624" style="fill:#070540;" transform="matrix(0.9376 -0.3478 0.3478 0.9376 -82.5199 159.1844)" y="287.287" x="401.803"/>
						</g>
						<g>
							
								<rect height="44.293" width="0.624" style="fill:#070540;" transform="matrix(0.9375 -0.3479 0.3479 0.9375 -82.1218 159.9053)" y="286.498" x="403.93"/>
						</g>
						<g>
							
								<rect height="44.293" width="0.624" style="fill:#070540;" transform="matrix(0.9376 -0.3478 0.3478 0.9376 -81.7051 160.5658)" y="285.709" x="406.057"/>
						</g>
						<g>
							
								<rect height="44.293" width="0.624" style="fill:#070540;" transform="matrix(0.9375 -0.3479 0.3479 0.9375 -81.3049 161.2806)" y="284.92" x="408.185"/>
						</g>
						<g>
							
								<rect height="44.293" width="0.624" style="fill:#070540;" transform="matrix(0.9375 -0.3479 0.3479 0.9375 -80.8984 161.9745)" y="284.13" x="410.312"/>
						</g>
						<g>
							
								<rect height="44.293" width="0.624" style="fill:#070540;" transform="matrix(0.9375 -0.3479 0.3479 0.9375 -80.4911 162.6651)" y="283.341" x="412.439"/>
						</g>
						<g>
							
								<rect height="44.293" width="0.624" style="fill:#070540;" transform="matrix(0.9376 -0.3478 0.3478 0.9376 -80.0758 163.3284)" y="282.552" x="414.567"/>
						</g>
						<g>
							
								<rect height="44.293" width="0.624" style="fill:#070540;" transform="matrix(0.9376 -0.3477 0.3477 0.9376 -79.6552 163.9721)" y="281.762" x="416.694"/>
						</g>
					</g>
				</g>
			</g>
		</g>
		<g>
			<g>
				<path d="M328.544,432.83c0,0-1.89,4.679-3.51,4.679s-6.209-1.61-10.349-1.255&#10;&#9;&#9;&#9;&#9;&#9;c-4.14,0.355-20.698,8.814-29.157,8.724l-5.939,13.678c0,0,11.249-4.41,19.798-5.759c8.549-1.35,33.386-1.98,37.436-3.42&#10;&#9;&#9;&#9;&#9;&#9;c4.049-1.44,12.599-20.338,12.599-20.338L328.544,432.83z" style="fill:#FFD2B3;"/>
				<path d="M328.544,432.83c0,0-0.672,1.662-1.559,3.003c1.154-0.349,3.989,1.136,7.138,4.331&#10;&#9;&#9;&#9;&#9;&#9;c2.391,2.425,4.765,4.409,7.334,4.082c3.866-6.049,7.964-15.106,7.964-15.106L328.544,432.83z" style="fill:#FFB98B;"/>
				<path d="M284.869,444.409c0,0,4.079,1.26,16.306-3.888c0,0,6.371,5.088,2.471,12.167&#10;&#9;&#9;&#9;&#9;&#9;c0,0-8.399,1.2-13.918,3.12c-5.519,1.92-10.799,3.48-10.799,3.48L284.869,444.409z" style="fill:#E6E8F4;"/>
				<g>
					<path d="M283.609,441.649c0,0,4.109,3,4.229,6.239c0.105,2.845-3.165,3.975-4.514,6.764&#10;&#9;&#9;&#9;&#9;&#9;&#9;c-1.35,2.79-0.135,4.185-4.005,5.534c-3.869,1.35-7.649,0.495-12.733,3.375c-5.084,2.88-11.114,0-11.114,0L283.609,441.649z" style="fill:#070540;"/>
					<path d="M266.021,461.241c7.203-4.944,8.054-8.594,11.159-10.664c3.105-2.07,6.929-5.534,6.479-8.594&#10;&#9;&#9;&#9;&#9;&#9;&#9;c-0.119-0.811-2.179-2.539-2.715-2.906c-1.484-1.02-27.453,22.787-27.429,24.151c0.16,0.151,1.839,1.255,2.067,1.348&#10;&#9;&#9;&#9;&#9;&#9;&#9;C257.55,465.373,261.91,464.062,266.021,461.241z" style="fill:#E6E8F4;"/>
					<path d="M264.336,460.097c7.203-4.943,8.054-8.594,11.159-10.664c3.105-2.07,6.929-5.534,6.479-8.594&#10;&#9;&#9;&#9;&#9;&#9;&#9;c-0.45-3.06-4.409-2.841-7.739-0.273c-3.33,2.568-2.43,4.953-8.729,6.933c-6.299,1.98-9.539,6.749-11.069,9.629&#10;&#9;&#9;&#9;&#9;&#9;&#9;c-0.644,1.213-2.242,4.886-1.125,5.939C254.847,464.513,259.747,463.247,264.336,460.097z" style="fill:#FFFFFF;"/>
				</g>
			</g>
			<g>
				<g>
					<path d="M385.297,414.592c0,0,13.078,0.12,16.918,0.72c3.84,0.6,6.359,8.999,9.839,11.519&#10;&#9;&#9;&#9;&#9;&#9;&#9;c3.48,2.52,10.439,4.319,17.638,13.558c7.199,9.239,6.719,10.319,6.719,10.319l10.799-0.84c0,0-36.596-45.715-39.595-48.114&#10;&#9;&#9;&#9;&#9;&#9;&#9;c-3-2.4-18.118-5.759-18.118-5.759S386.377,411.353,385.297,414.592z" style="fill:#FFD2B3;"/>
					<path d="M399.656,407.385c0.556-2.037,2.227-6.241,1.287-8.391c-5.247-1.621-11.447-3-11.447-3&#10;&#9;&#9;&#9;&#9;&#9;&#9;s-3.12,15.358-4.199,18.598c0,0,5.874,0.054,10.905,0.27C397.602,412.494,398.913,410.112,399.656,407.385z" style="fill:#FFB98B;"/>
				</g>
				<path d="M435.237,448.128c1.339,2.202,1.174,2.58,1.174,2.58l10.799-0.84c0,0-0.505-0.632-1.395-1.74&#10;&#9;&#9;&#9;&#9;&#9;H435.237z" style="fill:#FFD2B3;"/>
				<path d="M421.435,432.89c-0.16-0.226,6.217-6.239,7.536-6.179c1.32,0.06,13.378,16.678,14.938,18.298&#10;&#9;&#9;&#9;&#9;&#9;c1.56,1.62-8.692,2.8-9.985,1.88c-1.293-0.92-3.631-4.822-7.053-8.299C422.839,434.491,421.774,433.371,421.435,432.89z" style="fill:#E6E8F4;"/>
				<g>
					<path d="M432.264,445.078c0,0,3.007,2.421,6.832,1.251c3.825-1.17,0.748-4.513,0.562-6.052&#10;&#9;&#9;&#9;&#9;&#9;&#9;c-0.186-1.539,0.809-1.632,2.234-0.206c1.541,1.542,14.932,7.653,18.262,8.418c3.33,0.765,4.274,3.06,4.139,4.049&#10;&#9;&#9;&#9;&#9;&#9;&#9;c-0.135,0.99-7.199,1.755-14.488,2.205c-7.289,0.45-18.403,0.315-18.853-0.225C430.502,453.978,430.84,445.255,432.264,445.078&#10;&#9;&#9;&#9;&#9;&#9;&#9;z" style="fill:#070540;"/>
					<g>
						<path d="M464.111,452.783c-0.001-0.002-0.003-0.005-0.004-0.007c-1.126,0.874-7.612,1.553-14.303,1.966&#10;&#9;&#9;&#9;&#9;&#9;&#9;&#9;c-7.057,0.436-17.698,0.323-18.777-0.175v0c-0.232,0.681-0.125,1.527-0.016,1.659c0.45,0.54,11.504,0.783,18.793,0.333&#10;&#9;&#9;&#9;&#9;&#9;&#9;&#9;c7.289-0.45,14.353-1.215,14.488-2.205C464.333,454.062,464.294,453.231,464.111,452.783z" style="fill:#E6E8F4;"/>
					</g>
				</g>
			</g>
			<g>
				<path d="M330.103,394.315c0,0-3.24,5.039-1.32,14.518c1.92,9.479,0.6,22.935-1.8,25.086&#10;&#9;&#9;&#9;&#9;&#9;c0,0,3.48,3.969,10.679,1.56c7.199-2.409,12.119-5.648,16.438-6.008c0,0,1.32-11.159,0.96-14.638c0,0,26.877,4.56,29.277,4.319&#10;&#9;&#9;&#9;&#9;&#9;c2.4-0.24,12.872-15.119,12.872-21.238c0,0-18.623-7.559-29.546-11.158C356.74,383.156,330.103,394.315,330.103,394.315z" style="fill:#5BCFDE;"/>
				<g style="opacity:0.4;">
					<path d="M367.663,386.756c-10.923-3.6-37.56,7.559-37.56,7.559s-3.24,5.039-1.32,14.518&#10;&#9;&#9;&#9;&#9;&#9;&#9;c0.497,2.453,0.775,5.172,0.875,7.893c1.404-5.578,42.619-2.613,41.449-28.795&#10;&#9;&#9;&#9;&#9;&#9;&#9;C369.902,387.508,368.744,387.112,367.663,386.756z" style="fill:#5BCFDE;"/>
					<path d="M354.568,425.048c0.339-3.52,0.703-8.181,0.492-10.216c0,0-7.35-1.201-10.919-1.56&#10;&#9;&#9;&#9;&#9;&#9;&#9;C340.573,412.913,355.036,420.626,354.568,425.048z" style="fill:#5BCFDE;"/>
				</g>
			</g>
		</g>
		<g>
			<path d="M392.709,348.69c0,0,21.82-1.935,23.709-2.52c1.89-0.585,5.444-5.489,6.074-5.939&#10;&#9;&#9;&#9;&#9;c0.63-0.45,4.979-0.15,5.729,0c0.75,0.15,0.21,2.79,0.21,2.79s1.357,3.622,1.35,4.634c-0.005,0.666-0.66,2.475-1.35,2.385&#10;&#9;&#9;&#9;&#9;c-0.69-0.09-0.33-0.96-1.05-1.11c-0.72-0.15-1.77,2.49-2.64,2.97c-0.87,0.48-2.04,0.57-3.96,0.3&#10;&#9;&#9;&#9;&#9;c-1.92-0.27-14.533,6.074-18.178,6.659c-3.645,0.585-13.858-0.315-14.668-0.315C387.127,358.544,389.649,348.967,392.709,348.69z" style="fill:#FFD2B3;"/>
			<path d="M393.754,348.596c-0.66,0.059-1.045,0.094-1.045,0.094c-3.06,0.277-5.582,9.854-4.772,9.854&#10;&#9;&#9;&#9;&#9;c0.383,0,2.866,0.201,5.763,0.351C393.284,358.181,395.016,353.746,393.754,348.596z" style="fill:#FFB98B;"/>
			<path d="M428.432,350.04c0.69,0.09,1.345-1.719,1.35-2.385c0.007-1.012-1.35-4.634-1.35-4.634&#10;&#9;&#9;&#9;&#9;s0.54-2.64-0.21-2.79c-0.579-0.116-3.295-0.319-4.798-0.2c0.389-0.026,1.613-0.031,1.588,0.98c-0.03,1.2,1.65,4.08,2.1,4.59&#10;&#9;&#9;&#9;&#9;c0.45,0.51,0.629,2.288-0.365,3.711c-0.001,0.001-0.001,0.002-0.002,0.003c0.229-0.263,0.445-0.424,0.637-0.384&#10;&#9;&#9;&#9;&#9;C428.102,349.08,427.742,349.95,428.432,350.04z" style="fill:#FFB98B;"/>
		</g>
		<path d="M363.34,333.602c0.249-0.48,12.598-3.51,13.678-4.109c1.08-0.6,1.92-3.165,2.685-4.199&#10;&#9;&#9;&#9;c0.765-1.035,4.243-3.649,4.543-4.399c0.3-0.75,0.347-1.345,0.917-1.345c0.642,0,1.065,1.325,0.862,2.725&#10;&#9;&#9;&#9;c-0.202,1.4-2.196,3.043-2.421,3.47c0,0,4.491-0.338,5.278-0.046c0.787,0.292,0.418,1.1-0.059,1.275&#10;&#9;&#9;&#9;c-0.769,0.284-4.509,0.457-4.711,0.704c-0.202,0.247,5.517-0.049,6.056,0.151c0.768,0.284,0.536,1.357-0.116,1.492&#10;&#9;&#9;&#9;c-0.652,0.135-4.604,0.457-4.964,0.592c-0.36,0.135,5.482-0.165,6.157,0.015c0.675,0.18,0.652,1.395-0.225,1.552&#10;&#9;&#9;&#9;c-0.877,0.157-5.849,0.563-6.097,0.765c-0.247,0.202,5.786,0.901,6.169,1.252c0.382,0.352,0.085,1.267-0.814,1.357&#10;&#9;&#9;&#9;c-0.9,0.09-5.354-0.337-5.737-0.27c-0.383,0.068-3.465,1.485-4.792,1.417c-0.149-0.007-1.868-0.313-2.27-0.24&#10;&#9;&#9;&#9;c-3.192,0.579-12.394,5.009-12.938,5.009C363.927,340.771,362.821,334.604,363.34,333.602z" style="fill:#FF946E;"/>
		<path d="M374.184,330.399c-3.982,1.131-10.662,2.852-10.844,3.203c-0.519,1.002,0.588,7.169,1.2,7.169&#10;&#9;&#9;&#9;c0.463,0,7.19-3.204,11.153-4.516C374.747,334.425,374.201,332.42,374.184,330.399z" style="fill:#F07D18;"/>
		<g>
			<path d="M358,322.623c0,0-4.379-5.294-10.919-3.075c-6.539,2.22-9.599,11.234-9.779,23.172&#10;&#9;&#9;&#9;&#9;c-0.146,9.661,1.68,28.467-1.02,34.676c-2.7,6.209-8.819,14.398-9.809,18.088c0,0,9.598,15.26,25.287,11.519&#10;&#9;&#9;&#9;&#9;c21.507-5.129,16.828-33.746,19.228-46.641c4.432,0.352,12.178,2.367,14.968,2.637c2.79,0.27,7.562-10.259,6.752-14.308&#10;&#9;&#9;&#9;&#9;c-7.248-2.303-12.997-4.661-17.789-6.979c-4.797-2.32-8.818-5.977-11.619-10.51L358,322.623z" style="fill:#6B78B7;"/>
			<path d="M356.587,332.357c8.511,9.576,18.707,12.689,24.306,12.034&#10;&#9;&#9;&#9;&#9;c-2.101-0.875-4.038-1.749-5.841-2.618c-4.846-2.335-8.924-5.999-11.752-10.575l-0.242-0.391&#10;&#9;&#9;&#9;&#9;C362.451,331.496,356.387,332.132,356.587,332.357z" style="opacity:0.33;fill:#6B78B7;"/>
			<path d="M358,322.623c0,0-2.565-3.085-6.692-3.55c1.769,0.337,3.074,4.206,0.363,4.779&#10;&#9;&#9;&#9;&#9;c-2.772,0.586-5.498,2.221-4.566,1.838c3.22-1.321,6.516-1.455,4.895-0.842c-1.634,0.618-2.613,1.707-2.106,1.609&#10;&#9;&#9;&#9;&#9;c3.046-0.593,5.253,0.017,4.706,0.563c0,0,1.21,1.767,1.332,1.767c0.056,0,1.491-2.013,3.029-4.194L358,322.623z" style="opacity:0.44;fill:#6B78B7;"/>
			<path d="M363.197,360.632c-1.625,0.836,6.741,9.051,6.528,16.265c0.448-6.285,0.47-12.27,1.264-16.535&#10;&#9;&#9;&#9;&#9;C370.486,360.255,364.823,359.795,363.197,360.632z" style="fill:#6B78B7;"/>
		</g>
		<g>
			<path d="M354.599,327.019c0,0,2.488-0.334,3.402-2.066l13.669,6.885c-4.457-0.501-7.181,3.291-8.173,4.409&#10;&#9;&#9;&#9;&#9;C362.132,337.786,352.773,330.736,354.599,327.019z" style="fill:#FFB98B;"/>
			<path d="M360.472,326.197c0,0-1.872,1.987-2.281,1.83c-0.41-0.158-0.995-1.671-1.112-2.017&#10;&#9;&#9;&#9;&#9;c-0.117-0.346,1.678-1.606,1.458-5.637c-0.22-4.032-0.63-9.008-0.315-9.795c0.315-0.787,15.516,0.181,16.42,0.672&#10;&#9;&#9;&#9;&#9;c0.483,0.263-0.677,6.028-0.517,6.8c0.16,0.772-7.588,9.986-7.588,9.986L360.472,326.197z" style="fill:#070540;"/>
			<path d="M361.398,322.633c-1.773,0.077-1.495,1.964-1.161,3.001c0.457,1.417,1.908,2.793,2.688,1.911&#10;&#9;&#9;&#9;&#9;c0,0,0.357,1.722,0.987,3.108c0.63,1.386,6.929,4.116,8.609,3.234c1.261-0.662,1.155-7.916,1.344-9.344&#10;&#9;&#9;&#9;&#9;c0.189-1.428,0.882-2.163,0.903-2.772c0.021-0.609-0.567-3.36-0.735-4.158c-0.168-0.798-1.911,0.777-4.22,0&#10;&#9;&#9;&#9;&#9;c-2.31-0.777-5.942-2.793-5.732-2.415c0.153,0.276,3.36,1.68,3.549,2.31c0.189,0.63-0.987,3.402-0.987,3.822&#10;&#9;&#9;&#9;&#9;c0,0.42-1.365,0.441-1.512,0.882c-0.147,0.441-0.294,3.234-0.336,3.57c-0.042,0.336-1.134,0.147-1.155-0.147&#10;&#9;&#9;&#9;&#9;C363.618,325.339,363.33,322.548,361.398,322.633z" style="fill:#FFD2B3;"/>
		</g>
	</g>
	<g>
		<path d="M177.68,292.904c0,0,1.861,4.815,19.755,9.947c17.894,5.132,20.355-5.605,20.355-5.605&#10;&#9;&#9;&#9;l-0.604-12.18c0,0-34.15-4.662-34.379-4.968C182.578,279.792,178.222,286.618,177.68,292.904z" style="fill:#ACB3D8;"/>
		<g>
			<path d="M177.851,343.543c0,0-1.516,13.845-1.063,17.426c0.452,3.58,20.24,21.594,23.31,23.129&#10;&#9;&#9;&#9;&#9;c0,0,7.054-6.74,6.699-7.639c-0.355-0.9-13.907-14.501-15.211-16.382c-1.305-1.882,0.62-13.488,0.62-13.488L177.851,343.543z" style="fill:#450603;"/>
			<path d="M206.561,375.576c1.891,2.705,9.255,15.169,13.434,19.271c0,0-1.213,5.729-3.831,7.394&#10;&#9;&#9;&#9;&#9;c-0.559,0.356-3.178-1.542-3.636-1.413c0,0-2.368-4.151-5.741-8.522c-2.727-3.534-6.421-7.294-7.623-8.463&#10;&#9;&#9;&#9;&#9;C197.991,382.7,205.8,374.488,206.561,375.576z" style="fill:#E6E8F4;"/>
			<g>
				<path d="M228.02,397.468c0.298,0.472-5.993,14.403-9.317,18.636c-1.384,1.763-5.021,5.043-5.204,4.726&#10;&#9;&#9;&#9;&#9;&#9;c-0.689-1.193-0.985-2.878-0.882-3.676c0.164-1.265,1.419-9.262,1.079-11.183c-0.34-1.921-2.186-5.292-3.801-6.352&#10;&#9;&#9;&#9;&#9;&#9;c0,0,0.564-0.094,1.697-0.046c1.132,0.048,3.51,1.999,3.63,1.643c0.165-0.488-1.776-3.111-1.888-4.44&#10;&#9;&#9;&#9;&#9;&#9;c-0.111-1.329,4.27-4.496,3.535-5.655c0.607-0.633,1.325,0.173,3.513,2.268C221.387,394.353,226.498,395.056,228.02,397.468z" style="fill:#6B78B7;"/>
				<g>
					<path d="M218.703,416.104c3.156-4.02,8.983-16.773,9.308-18.456c0.466,0.239,0.704,0.684,1.024,1.179&#10;&#9;&#9;&#9;&#9;&#9;&#9;c0.303,0.469-5.992,14.403-9.317,18.636c-1.384,1.763-5.021,5.043-5.204,4.726c-0.264-0.457-0.469-0.985-0.617-1.508&#10;&#9;&#9;&#9;&#9;&#9;&#9;C214.912,420.021,217.566,417.552,218.703,416.104z" style="fill:#070540;"/>
				</g>
				<path d="M211.591,399.573c1.133,0.048,3.51,1.999,3.63,1.643&#10;&#9;&#9;&#9;&#9;&#9;c0.165-0.488-1.776-3.111-1.888-4.44c-0.055-0.655,0.98-1.755,1.957-2.842c0.799,6.193,6.383,12.439,9.657,14.423&#10;&#9;&#9;&#9;&#9;&#9;c-1.781,3.6-3.784,7.268-5.228,9.106c-1.384,1.763-5.021,5.043-5.204,4.726c-0.264-0.457-0.469-0.985-0.617-1.508&#10;&#9;&#9;&#9;&#9;&#9;c-0.22,0.143-0.366,0.205-0.399,0.149c-0.689-1.193-0.985-2.878-0.882-3.676c0.164-1.265,1.419-9.262,1.079-11.183&#10;&#9;&#9;&#9;&#9;&#9;c-0.34-1.921-2.186-5.292-3.802-6.352C209.895,399.619,210.458,399.525,211.591,399.573z" style="opacity:0.4;fill:#6B78B7;"/>
			</g>
		</g>
		<g>
			<g>
				<path d="M204.571,357.255c0.216,0.395-0.362,3.554,0.186,5.634c0.548,2.08,7.277,22.207,7.704,31.421&#10;&#9;&#9;&#9;&#9;&#9;l-10.142,2.232c0,0-12.748-28.544-13.332-32.083c-0.584-3.539-0.584-11.086-0.584-11.086L204.571,357.255z" style="fill:#691813;"/>
				<path d="M188.769,362.701c-0.365-3.812-0.367-9.328-0.367-9.328l16.169,3.882&#10;&#9;&#9;&#9;&#9;&#9;c0.196,0.358-0.259,2.989,0.064,5.028C199.721,360.639,193.421,360.523,188.769,362.701z" style="fill:#450603;"/>
			</g>
			<path d="M213.362,393.531c0.263,4.055,1.247,21.153,3.026,28.139c0,0-3.805,4.379-7.474,4.739&#10;&#9;&#9;&#9;&#9;c-1.395,0.137-3.32-2.969-4.203-3.214c0,0,0.159-5.881-0.599-12.634c-0.613-5.461-2.099-11.777-2.616-13.774&#10;&#9;&#9;&#9;&#9;C200.989,394.835,213.256,391.9,213.362,393.531z" style="fill:#FFFFFF;"/>
			<g>
				<path d="M221.311,429.231c0.012,0.688-3.855,3.572-7.323,6.943c-2.342,2.277-5.942,7.143-12.144,9.474&#10;&#9;&#9;&#9;&#9;&#9;c-2.582,0.971-8.898-0.335-8.888-0.784c0.037-1.696,0.801-3.658,1.42-4.432c0.98-1.227,7.408-8.84,8.277-11.079&#10;&#9;&#9;&#9;&#9;&#9;c0.869-2.238,0.23-6.832-0.794-8.98c0,0,2.694-0.293,3.855,0.481c1.161,0.774,2.771,4.022,3.125,3.725&#10;&#9;&#9;&#9;&#9;&#9;c0.485-0.408,0.118-4.408,0.849-5.878c0.732-1.47,5.887-1.18,5.645-2.818c1.149-0.417,1.427,0.898,2.391,4.501&#10;&#9;&#9;&#9;&#9;&#9;C218.168,422.039,221.25,425.721,221.311,429.231z" style="fill:#6B78B7;"/>
				<g>
					<path d="M201.845,445.648c6.202-2.332,9.801-7.198,12.144-9.474c3.13-3.042,6.574-5.682,7.209-6.675&#10;&#9;&#9;&#9;&#9;&#9;&#9;c0,0.002,0.001,0.003,0.002,0.005c0.164,0.577,0.313,1.757,0.248,2.381c-0.07,0.684-4.429,3.946-7.897,7.317&#10;&#9;&#9;&#9;&#9;&#9;&#9;c-2.342,2.277-5.942,7.143-12.144,9.474c-2.582,0.971-8.672-0.325-8.662-0.774c0.017-0.766-0.021-2.298,0.212-3.038&#10;&#9;&#9;&#9;&#9;&#9;&#9;C192.947,445.314,199.262,446.619,201.845,445.648z" style="fill:#070540;"/>
				</g>
			</g>
		</g>
		<g>
			<path d="M217.789,297.246c0,0-0.408,4.713-0.001,6.296c0,0-27.554,3.97-29.196-8.577&#10;&#9;&#9;&#9;&#9;c-0.161-1.233-0.492-9.363-0.921-9.527C187.672,285.438,216.705,290.906,217.789,297.246z" style="fill:#691813;"/>
			<path d="M188.467,293.372c-0.181-2.754-0.458-7.806-0.794-7.934c0,0,29.033,5.468,30.117,11.808&#10;&#9;&#9;&#9;&#9;c0,0-0.039,0.452-0.081,1.12C209.385,292.615,188.467,293.372,188.467,293.372z" style="fill:#450603;"/>
			<g>
				<path d="M188.473,293.47c0.013,5.837-7.816,25.414-13.686,51.661c0.968,3.686,10.275,3.879,10.275,3.879&#10;&#9;&#9;&#9;&#9;&#9;s-0.401,3.822-0.493,5.718c1.978,4.559,18.681,6.003,21.185,3.746c1.19-3.943,4.522-19.307,5.662-23.416&#10;&#9;&#9;&#9;&#9;&#9;c1.139-4.109,6.708-11.184,7.941-17.825c1.232-6.641,0.054-14.843-1.746-16.31C217.097,304.556,189.021,301.272,188.473,293.47z" style="fill:#6B78B7;"/>
				<path d="M186.978,300.999c0.935-3.403,1.499-5.964,1.495-7.528&#10;&#9;&#9;&#9;&#9;&#9;c0.548,7.801,28.623,11.086,29.137,7.453c1.682,1.371,2.82,8.622,1.957,14.985C216.176,310.372,200.093,301.949,186.978,300.999&#10;&#9;&#9;&#9;&#9;&#9;z" style="opacity:0.3;fill:#6B78B7;"/>
				<path d="M175.895,346.702L175.895,346.702c4.928,1.668,13.08-23.456,12.273-19.186&#10;&#9;&#9;&#9;&#9;&#9;c-1.288,6.815-3.106,21.494-3.106,21.494S178.614,348.875,175.895,346.702z" style="opacity:0.3;fill:#6B78B7;"/>
			</g>
		</g>
		<g>
			<path d="M219.102,175.44c-4.243-0.307,0.944-12.941,1.219-15.47c0.134-1.236-2.905-0.391-4.718,0.832&#10;&#9;&#9;&#9;&#9;c-1.813,1.223-1.915,4.774-1.915,4.774l-1.447,10.994C212.24,176.57,218.71,176.475,219.102,175.44z" style="fill:#450603;"/>
		</g>
		<g style="opacity:0.5;">
			<path d="M219.102,175.44c-4.243-0.307,0.944-12.941,1.219-15.47c0.134-1.236-2.905-0.391-4.718,0.832&#10;&#9;&#9;&#9;&#9;c-1.813,1.223-1.915,4.774-1.915,4.774l-1.447,10.994C212.24,176.57,218.71,176.475,219.102,175.44z" style="fill:#450603;"/>
		</g>
		<g>
			
				<ellipse ry="15.059" rx="15.059" cy="161.09" cx="228.066" style="fill:#F07D18;" transform="matrix(0.9316 -0.3636 0.3636 0.9316 -42.9603 93.9424)"/>
			<g>
				<path d="M220.79,153.107c0.728-1.073,1.535-2.045,2.413-2.911c-1.081-0.475-2.185-1.05-3.309-1.751&#10;&#9;&#9;&#9;&#9;&#9;c0.455-0.294,0.926-0.565,1.411-0.809c1.037,0.602,2.058,1.1,3.059,1.51c0.852-0.701,1.762-1.312,2.731-1.823&#10;&#9;&#9;&#9;&#9;&#9;c0.936-0.494,1.906-0.88,2.903-1.163c0.074,0.01,0.147,0.016,0.221,0.026c1.124,0.162,2.199,0.449,3.217,0.837&#10;&#9;&#9;&#9;&#9;&#9;c-1.997,0.105-3.909,0.615-5.681,1.551c-0.64,0.338-1.25,0.726-1.836,1.156c2.215,0.748,4.331,1.153,6.327,1.534&#10;&#9;&#9;&#9;&#9;&#9;c3.466,0.661,6.658,1.273,9.451,3.434c0.444,0.945,0.791,1.94,1.032,2.97c-2.95-3.525-6.526-4.21-10.747-5.015&#10;&#9;&#9;&#9;&#9;&#9;c-2.303-0.439-4.758-0.909-7.346-1.872c-0.889,0.812-1.703,1.739-2.439,2.773c6.713,2.255,14.298,6.877,19.448,14.053&#10;&#9;&#9;&#9;&#9;&#9;c-0.228,0.475-0.48,0.934-0.754,1.377c-5.066-7.412-12.785-12.097-19.465-14.263c-1.128,1.846-2.036,3.979-2.708,6.354&#10;&#9;&#9;&#9;&#9;&#9;c2.324,1.146,4.031,3.169,5.864,5.345c2.396,2.844,5.057,5.998,9.696,8.386c-0.56,0.254-1.135,0.478-1.726,0.663&#10;&#9;&#9;&#9;&#9;&#9;c-4.261-2.457-6.861-5.538-9.051-8.138c-1.772-2.104-3.255-3.861-5.139-4.882c-0.658,2.785-1.005,5.876-1.033,9.2&#10;&#9;&#9;&#9;&#9;&#9;c-0.495-0.504-0.954-1.041-1.374-1.608c0.118-2.918,0.484-5.654,1.095-8.156c-1.142-0.368-2.452-0.488-4.035-0.301&#10;&#9;&#9;&#9;&#9;&#9;c-0.015-0.468-0.008-0.94,0.022-1.416c1.691-0.168,3.119-0.014,4.368,0.379c0.666-2.309,1.548-4.401,2.632-6.245&#10;&#9;&#9;&#9;&#9;&#9;c-1.756-0.489-3.416-0.794-4.91-0.925c0.266-0.446,0.552-0.876,0.861-1.289C217.479,152.275,219.097,152.611,220.79,153.107z" style="fill:#070540;"/>
			</g>
		</g>
		<g>
			<path d="M209.937,221.033c0,0-2.473-4.57-3.303-6.236c-0.829-1.665,9.912-32.347,10.748-33.596&#10;&#9;&#9;&#9;&#9;c2.126-3.173,7.773-3.81,8.01-5.362c0.139-0.908-0.545-1.247-1.559-1.377c-1.815-0.232-3.624,0.441-4.685,0.652&#10;&#9;&#9;&#9;&#9;c-1.061,0.21-3.861,0.578-4.606-0.115c-1.196-1.112-1.009-5.909-0.947-7.173c0.061-1.264,0.272-3.481-0.26-3.882&#10;&#9;&#9;&#9;&#9;c-0.588-0.443-1.575,0.318-1.995,3.228c-0.42,2.91-0.363,11.738-0.959,13.349c-0.596,1.611-8.11,15.917-9.607,18.731&#10;&#9;&#9;&#9;&#9;c-1.498,2.814-4.917,11.633-5.318,13.151c-0.401,1.518,7.52,17.172,8.527,19.015&#10;&#9;&#9;&#9;&#9;C204.988,233.259,210.666,222.769,209.937,221.033z" style="fill:#450603;"/>
			<path d="M208.215,217.823c0.871,1.636,1.722,3.21,1.722,3.21&#10;&#9;&#9;&#9;&#9;c0.729,1.736-4.949,12.226-5.956,10.384c-0.424-0.776-2.073-4-3.811-7.586C203.344,222.56,206.233,220.628,208.215,217.823z" style="opacity:0.3;fill:#450603;"/>
			<path d="M220.267,232.218c-0.339-0.135-8.156-7.885-10.526-12.245c0,0-5.349,3.666-6.872,9.174&#10;&#9;&#9;&#9;&#9;c-1.523,5.508,14.016,13.958,17.585,14.428C224.022,244.047,225.245,234.2,220.267,232.218z" style="fill:#FFB718;"/>
		</g>
		<g>
			<path d="M236.487,236.287c0,0,1.192-2.085,5.427-3.862c3.222-1.352,5.609-3.581,4.659-8.237&#10;&#9;&#9;&#9;&#9;c-0.95-4.656-5.818-7.524-7.742-7.865c-1.924-0.342-3.307,1.544-3.307,1.544S230.43,233.057,236.487,236.287z" style="fill:#330300;"/>
			<path d="M223.535,226.873c-0.288,1.274,2.281,3.428,2.352,3.817c0.071,0.388-1.389,4.215-1.389,4.215&#10;&#9;&#9;&#9;&#9;s10.13,5.219,10.472,5.491c0,0,0.766-2.435,1.517-4.109c0,0-1.024-3.267,2.436-5.783c1.783-1.297-0.104-1.772-0.104-1.772&#10;&#9;&#9;&#9;&#9;S225.275,224.314,223.535,226.873z" style="fill:#450603;"/>
			<path d="M234.849,229.558c0.732,0.884,3.423,2.224,4.789,0.257c1.366-1.967-0.651-2.905-3.167-2.452&#10;&#9;&#9;&#9;&#9;c-0.397,0.072,2.45-2.974,2.48-3.291c0.02-0.208-0.01-1.381,0.35-1.763c0.78-0.827,1.739-1.244,1.464-2.041&#10;&#9;&#9;&#9;&#9;c-0.618-1.789-2.601-2.569-3.715-2.644c-1.114-0.074-4.413,1.028-6.895,2.791c-0.952,0.676-6.102,5.431-6.621,6.458&#10;&#9;&#9;&#9;&#9;c1.299-1.064,4.144,2.095,7.376,3.294C232.536,230.769,234.167,230.248,234.849,229.558z" style="fill:#691813;"/>
		</g>
		<path d="M218.634,226.356" style="fill:#450603;"/>
		<g>
			<path d="M238.681,245.885c0,0-1.22,5.831-9.825,22.591c-5.529,10.768-10.851,20.981-11.068,28.769&#10;&#9;&#9;&#9;&#9;c0.348-1.508-38.777-12.336-40.109-4.341c0,0-1.394-8.581,5.061-18.014c6.455-9.432,24.239-35.596,32.081-38.902&#10;&#9;&#9;&#9;&#9;C222.663,232.683,238.681,245.885,238.681,245.885z" style="fill:#E6E8F4;"/>
			<g>
				<path d="M230.256,253.131c-15.539-1.886-26.421,7.98-36.37,5.869&#10;&#9;&#9;&#9;&#9;&#9;c7.426-10.17,16.083-20.966,20.935-23.011c6.189-2.609,17.463,5.06,21.945,8.411&#10;&#9;&#9;&#9;&#9;&#9;C236.62,244.427,233.493,253.523,230.256,253.131z" style="fill:#ACB3D8;"/>
			</g>
		</g>
		<g>
			<path d="M208.721,246.745c0,0-2.019-0.08-2.363-7.767c-0.344-7.687,13.264,3.432,13.264,3.432&#10;&#9;&#9;&#9;&#9;S213.13,248.322,208.721,246.745z" style="fill:#FFB718;"/>
			<path d="M210.936,230.154c0,0-5.019-1.134-6.588-2.543c-1.569-1.409-11.709-23.423-12.336-25.06&#10;&#9;&#9;&#9;&#9;c-0.627-1.636,1.911-3.681,2.619-4.91c0.749-1.301,3.518-3.159,4.308-3.803c0.79-0.643-0.715-1.626-1.614-1.415&#10;&#9;&#9;&#9;&#9;c-0.878,0.206-3.83,1.962-4.585,1.944c-0.755-0.018-1.14-3.438-1.214-4.813c-0.074-1.375,0.625-8.941,0.656-9.786&#10;&#9;&#9;&#9;&#9;c0.031-0.844-1.334-1.254-1.662-0.24c-0.328,1.013-1.493,8.028-1.77,8.473c-0.277,0.445-0.713,0.321-0.73,0.016&#10;&#9;&#9;&#9;&#9;c-0.016-0.305,0.244-9.027,0.283-9.718c0.039-0.691-1.296-1.309-1.633-0.236c-0.337,1.073-1.152,9.229-1.377,9.53&#10;&#9;&#9;&#9;&#9;c-0.225,0.301-2.613-7.924-2.858-8.536s-1.632-0.448-1.575,0.621c0.058,1.069,2.353,8.675,2.153,9.222&#10;&#9;&#9;&#9;&#9;c-0.2,0.547-3.871-4.045-4.358-4.449c-0.487-0.404-1.816-0.02-1.109,1.173c0.707,1.193,3.204,4.676,3.677,5.593&#10;&#9;&#9;&#9;&#9;c0.474,0.917,0.834,6.182,1.379,7.867c0.408,1.264,2.036,2.901,2.467,3.478c0.432,0.578,7.103,27.607,8.45,30.453&#10;&#9;&#9;&#9;&#9;c1.346,2.847,19.904,12.014,21.378,13.136C216.373,247.275,218.475,232.728,210.936,230.154z" style="fill:#691813;"/>
			<path d="M209.758,229.857c0.702,0.189,1.178,0.297,1.178,0.297&#10;&#9;&#9;&#9;&#9;c7.538,2.574,5.436,17.122,3.962,15.999c-0.547-0.416-3.444-1.939-6.94-3.835C211.405,240.537,209.823,230.053,209.758,229.857z" style="opacity:0.5;fill:#450603;"/>
			<path d="M238.832,242.232c-0.923-3.998-4.627-7.624-12.311-8.871c-7.685-1.247-15.585-3.207-15.585-3.207&#10;&#9;&#9;&#9;&#9;c3.857,3.197,3.29,18.5-2.216,16.592c0,0,15.186,5.968,21.536,6.385S239.616,245.628,238.832,242.232z" style="fill:#FEDA00;"/>
		</g>
	</g>
	<g>
		<g>
			<g>
				<g>
					<g>
						<g>
							<path d="M238.964,413.17c0,0-1.379,0.304-1.909,0.434c-0.312,0.076-0.322,1.467-0.122,1.79&#10;&#9;&#9;&#9;&#9;&#9;&#9;&#9;&#9;c0.204,0.329,2.205,0.584,2.205,0.584S239.286,413.314,238.964,413.17z" style="fill:#070540;"/>
							<path d="M239.034,416.838c0,0-1.348,0.42-1.865,0.594c-0.304,0.102-0.196,1.489,0.031,1.794&#10;&#9;&#9;&#9;&#9;&#9;&#9;&#9;&#9;c0.231,0.311,2.247,0.395,2.247,0.395S239.368,416.954,239.034,416.838z" style="fill:#070540;"/>
							<path d="M240.396,429.49c0,0-1.322,0.001-1.833,0.013c-0.301,0.007-0.589,1.277-0.471,1.613&#10;&#9;&#9;&#9;&#9;&#9;&#9;&#9;&#9;c0.12,0.342,1.9,0.977,1.9,0.977S240.662,429.686,240.396,429.49z" style="fill:#070540;"/>
							<path d="M239.533,435.927c0,0-1.061,0.465-1.466,0.653c-0.239,0.111-0.025,1.231,0.188,1.459&#10;&#9;&#9;&#9;&#9;&#9;&#9;&#9;&#9;c0.216,0.232,1.867,0.118,1.867,0.118S239.815,435.991,239.533,435.927z" style="fill:#070540;"/>
							<path d="M240.496,439.628c0,0-0.638,0.966-0.876,1.345c-0.14,0.223,0.721,1.013,1.055,1.009&#10;&#9;&#9;&#9;&#9;&#9;&#9;&#9;&#9;c0.318-0.003,1.526-0.801,1.526-0.801S240.768,439.528,240.496,439.628z" style="fill:#070540;"/>
						</g>
						<g>
							<path d="M274.351,397.682c0.776,4.351-18.724,14.904-24.035,25.747&#10;&#9;&#9;&#9;&#9;&#9;&#9;&#9;&#9;c-0.45,0.919-3.182,6.11-4.104,6.477c-2.505,0.995-3.801-2.796-4.009-4.24c-0.56-3.89-0.077-12.333,3.84-15.244&#10;&#9;&#9;&#9;&#9;&#9;&#9;&#9;&#9;c4.088-3.038,8.875-10.488,11.236-15.232c1.907-3.832,7.172-11.28,11.167-11.347&#10;&#9;&#9;&#9;&#9;&#9;&#9;&#9;&#9;C272.44,383.775,274.351,397.682,274.351,397.682z" style="fill:#E6E8F4;"/>
							<path d="M261.116,389.264c0.314-0.396,0.636-0.786,0.966-1.163c-0.035,0.124-0.074,0.243-0.101,0.379&#10;&#9;&#9;&#9;&#9;&#9;&#9;&#9;&#9;c-1.404,7.178,2.592,14.332,5.959,16.103c0.183,0.096,0.385,0.185,0.597,0.256c-0.208,0.178-0.424,0.359-0.639,0.541&#10;&#9;&#9;&#9;&#9;&#9;&#9;&#9;&#9;c-0.1-0.045-0.201-0.087-0.303-0.141C264.176,403.439,260.149,396.454,261.116,389.264z" style="fill:#6B78B7;"/>
						</g>
						<path d="M249.836,423.936c1.128-2.4-1.823-4.536-4.155-1.801l-0.222,5.517c0,0,3.053,0.693,2.997,0.607&#10;&#9;&#9;&#9;&#9;&#9;&#9;&#9;C248.399,428.175,249.836,423.936,249.836,423.936z" style="fill:#6B78B7;"/>
						<path d="M246.043,410.421c-1.171,0.686-4.852-0.402-7.176,1.736c-2.032,1.87,1.258,11.906,0.823,14.281&#10;&#9;&#9;&#9;&#9;&#9;&#9;&#9;c-0.435,2.375-1.982,5.34-1.342,10.054c0.64,4.715,4.238,6.938,7.212,6.328c2.247-0.461,2.27-7.876,3.026-12.54&#10;&#9;&#9;&#9;&#9;&#9;&#9;&#9;c0.835-5.149,2.863-7.554,2.863-7.554s-2.49-0.109-4.078,3.937c0,0,1.201-2.903-1.039-4.993&#10;&#9;&#9;&#9;&#9;&#9;&#9;&#9;C244.093,419.581,242.673,414.227,246.043,410.421z" style="fill:#ACB3D8;"/>
					</g>
					<path d="M265.709,363.512c0,0,2.522,1.46,14.367,0.833c11.846-0.627,7.274-6.483,2.274-6.919&#10;&#9;&#9;&#9;&#9;&#9;&#9;C277.35,356.989,265.615,360.279,265.709,363.512z" style="fill:#070540;"/>
					<g>
						<path d="M294.411,363.638c0,0-3.341,11.729-6.507,17.234c-3.165,5.504-3.733,9.025-5.566,10.8&#10;&#9;&#9;&#9;&#9;&#9;&#9;&#9;c-1.489,1.442-3.875,2.935-8.309,7.457c-2.437,2.485-8.541-5.721-7.117-13c0.561-2.87,3.662-2.531,4.098-5.246&#10;&#9;&#9;&#9;&#9;&#9;&#9;&#9;c0.436-2.715-0.563-17.358-0.76-20.293C270.053,357.653,292.969,354.077,294.411,363.638z" style="fill:#FFD2B3;"/>
						<path d="M270.707,367.858c-0.186-3.26-0.382-6.137-0.457-7.27c-0.197-2.935,22.719-6.512,24.161,3.049&#10;&#9;&#9;&#9;&#9;&#9;&#9;&#9;c0,0-0.283,0.993-0.761,2.532C287.144,362.689,273.465,366.029,270.707,367.858z" style="fill:#FFB98B;"/>
					</g>
				</g>
				<g>
					<path d="M291.947,317.217c0,0,5.579,18.362,5.199,27.642c-0.38,9.28-2.538,19.048-2.797,19.047&#10;&#9;&#9;&#9;&#9;&#9;&#9;c0.035-0.312,0.811-3.233-8.355-3.653c-10.431-0.478-19.888,1.412-20.285,3.258c-2.263-0.236,3.439-8.802,2.085-23.19&#10;&#9;&#9;&#9;&#9;&#9;&#9;c-1.354-14.388-11.98-19.49-11.98-19.49s2.736-2.629,1.843-5.35C257.657,315.482,285.141,320.47,291.947,317.217z" style="fill:#6B78B7;"/>
					<path d="M291.947,317.217c0,0,5.579,18.362,5.199,27.642&#10;&#9;&#9;&#9;&#9;&#9;&#9;c-0.38,9.28-2.538,19.048-2.797,19.047c0.035-0.312,0.811-3.233-8.355-3.653c-10.431-0.478-19.888,1.412-20.285,3.258&#10;&#9;&#9;&#9;&#9;&#9;&#9;c-2.263-0.236,3.439-8.802,2.085-23.19c-1.354-14.388-11.98-19.49-11.98-19.49s2.736-2.629,1.843-5.35&#10;&#9;&#9;&#9;&#9;&#9;&#9;C257.657,315.482,285.141,320.47,291.947,317.217z" style="opacity:0.3;fill:#6B78B7;"/>
				</g>
			</g>
			<g>
				<g>
					<path d="M270.053,357.653c0,0,4.06,3.054,13.245-6.855c9.66-10.422-9.476-10.776-9.913-10.715&#10;&#9;&#9;&#9;&#9;&#9;&#9;C272.949,340.144,265.774,352.366,270.053,357.653z" style="fill:#070540;"/>
					<g>
						<path d="M294.371,332.283c0,0,15.226,12.518,18.826,17.628c1.178,1.672-0.668,9.622-0.928,18.244&#10;&#9;&#9;&#9;&#9;&#9;&#9;&#9;c-2.545-0.859-12.802-0.29-15.881,0.699c0.719-3.809,2.164-7.007,2.159-7.914c-0.008-1.472-19.018-9.366-24.188-12.897&#10;&#9;&#9;&#9;&#9;&#9;&#9;&#9;C269.189,344.51,278.776,326.441,294.371,332.283z" style="fill:#FFD2B3;"/>
						<path d="M294.371,332.283c0,0,0.608,0.5,1.6,1.333c-0.068,0.02-0.135,0.035-0.204,0.058&#10;&#9;&#9;&#9;&#9;&#9;&#9;&#9;c-8.393,2.836-11.821,10.894-12.729,19.009c-3.626-1.767-6.939-3.452-8.68-4.641&#10;&#9;&#9;&#9;&#9;&#9;&#9;&#9;C269.189,344.51,278.776,326.441,294.371,332.283z" style="fill:#FFB98B;"/>
					</g>
					<path d="M294.371,332.283c1.789-1.468-31.515-20.563-37.899-17.14c-5.494,2.945-2.764,15.682-0.89,21.78&#10;&#9;&#9;&#9;&#9;&#9;&#9;c3.21,10.446,9.767,13.874,14.471,20.73c-1.186-1.414-0.947-4.995,5.178-10.15&#10;&#9;&#9;&#9;&#9;&#9;&#9;C282.219,341.624,282.939,332.346,294.371,332.283z" style="fill:#6B78B7;"/>
					<g>
						<g>
							<path d="M299.49,399.725c-0.545-6.267-3.542-20.489-3.495-31.072c0.059-0.328,7.586-4.01,16.529-0.745&#10;&#9;&#9;&#9;&#9;&#9;&#9;&#9;&#9;c-0.495,12.006-2.159,26.009-2.561,35.585c-0.18,4.298,1.927,9.553,1.878,10.592c0,0-6.874,4.879-13.953-7.151&#10;&#9;&#9;&#9;&#9;&#9;&#9;&#9;&#9;C298.548,406.386,299.956,405.096,299.49,399.725z" style="fill:#E6E8F4;"/>
							<g>
								<path d="M312.301,372.255c-0.015,0.254-0.031,0.509-0.047,0.763&#10;&#9;&#9;&#9;&#9;&#9;&#9;&#9;&#9;&#9;c-7.625-2.472-14.141-0.309-16.091,0.613c-0.017-0.266-0.034-0.532-0.049-0.797&#10;&#9;&#9;&#9;&#9;&#9;&#9;&#9;&#9;&#9;C298.677,371.681,305.071,369.975,312.301,372.255z" style="fill:#6B78B7;"/>
							</g>
						</g>
						<g>
							<path d="M313.776,419.041c-1.003-4.138-1.328-7.458-1.324-8.52c0.005-1.061-2.377-0.074-2.28,2.112&#10;&#9;&#9;&#9;&#9;&#9;&#9;&#9;&#9;C310.25,414.391,314.369,421.487,313.776,419.041z" style="fill:#6B78B7;"/>
							<g>
								<path d="M299.785,417.42c0.022,0.111-1.583,0.931-2.084,1.209c-0.432,0.24-1.585-0.919-1.383-1.304&#10;&#9;&#9;&#9;&#9;&#9;&#9;&#9;&#9;&#9;c0.202-0.385,0.979-2.4,1.24-2.385C297.819,414.956,299.676,416.875,299.785,417.42z" style="fill:#070540;"/>
								<path d="M307.201,424.946c0.001,0.102-1.558,0.551-2.048,0.712c-0.423,0.138-1.243-1.083-0.999-1.389&#10;&#9;&#9;&#9;&#9;&#9;&#9;&#9;&#9;&#9;c0.245-0.306,1.275-1.953,1.503-1.895C305.886,422.433,307.198,424.446,307.201,424.946z" style="fill:#070540;"/>
								<path d="M310.1,427.637c0.024,0.089-1.234,0.838-1.626,1.09c-0.338,0.217-1.333-0.662-1.19-0.984&#10;&#9;&#9;&#9;&#9;&#9;&#9;&#9;&#9;&#9;c0.144-0.323,0.666-1.997,0.879-1.998C308.377,425.743,309.983,427.201,310.1,427.637z" style="fill:#070540;"/>
								<path d="M313.625,430.784c0.028,0.077-1.027,0.836-1.354,1.088c-0.282,0.218-1.23-0.483-1.127-0.779&#10;&#9;&#9;&#9;&#9;&#9;&#9;&#9;&#9;&#9;c0.102-0.296,0.437-1.817,0.624-1.834C311.956,429.241,313.487,430.408,313.625,430.784z" style="fill:#070540;"/>
								<path d="M317.483,431.876c0.045,0.061-0.701,1.012-0.927,1.323c-0.195,0.268-1.223-0.113-1.209-0.404&#10;&#9;&#9;&#9;&#9;&#9;&#9;&#9;&#9;&#9;c0.015-0.291-0.081-1.735,0.083-1.8C315.593,430.931,317.263,431.575,317.483,431.876z" style="fill:#070540;"/>
								<path d="M297.349,414.589c0.022,0.111-1.583,0.931-2.084,1.209c-0.432,0.24-1.585-0.919-1.383-1.304&#10;&#9;&#9;&#9;&#9;&#9;&#9;&#9;&#9;&#9;c0.202-0.385,0.979-2.4,1.24-2.385C295.383,412.125,297.239,414.044,297.349,414.589z" style="fill:#070540;"/>
							</g>
							<path d="M314.991,422.203c-1.573-4.27-3.141-7.686-3.693-9.628c-0.502-1.764-5.571,0.597-8.138-0.494&#10;&#9;&#9;&#9;&#9;&#9;&#9;&#9;&#9;c-4.819-2.048-4.5-6.002-4.5-6.002c-0.162,0.031-4.32,1.763-4.339,5.933c-0.001,0.325,0.122,0.637,0.33,0.888&#10;&#9;&#9;&#9;&#9;&#9;&#9;&#9;&#9;c0.694,0.839,2.556,2.984,5.865,6.084c4.329,4.055,7.226,8.984,11.73,12.057c4.504,3.073,6.993,1.842,7.463,0.913&#10;&#9;&#9;&#9;&#9;&#9;&#9;&#9;&#9;C320.178,431.023,315.957,424.826,314.991,422.203z" style="fill:#ACB3D8;"/>
						</g>
					</g>
				</g>
				<g>
					<path d="M239.864,277.504c0,0-5.329,1.957-6.576,2.518c-1.248,0.56-3.927,5.02-7.281,8.288&#10;&#9;&#9;&#9;&#9;&#9;&#9;c-3.354,3.268-7.448,7.721-7.965,9.417s0.77,5.21,0.366,6.793c-0.403,1.583-1.835,5.369-2.177,6.046&#10;&#9;&#9;&#9;&#9;&#9;&#9;c-0.343,0.678-1.587,0.502-2.092-0.575c0,0-3.297,0.652-4.501-0.836c-0.783-1.027-1.195-3.83-1.304-4.906&#10;&#9;&#9;&#9;&#9;&#9;&#9;c-0.108-1.076,3.485-7.342,4.34-8.81c0.855-1.468,10.498-19.197,13.223-21.166c2.725-1.969,5.557-2.353,8.563-3.811&#10;&#9;&#9;&#9;&#9;&#9;&#9;C234.461,270.462,239.758,275.749,239.864,277.504z" style="fill:#FFD2B3;"/>
					<g>
						<path d="M209.638,309.155c-0.292-0.384-0.533-1.016-0.726-1.713c0.664,0.08,1.589,0.098,2.635-0.151&#10;&#9;&#9;&#9;&#9;&#9;&#9;&#9;c2.096-0.5,4.012-4.935,3.009-2.109c-1.003,2.825-0.417,4.809-0.417,4.809S210.842,310.643,209.638,309.155z" style="fill:#FFB98B;"/>
						<path d="M234.461,270.462c0,0,5.297,5.287,5.402,7.042c0,0-5.329,1.957-6.576,2.518&#10;&#9;&#9;&#9;&#9;&#9;&#9;&#9;c-0.354,0.159-0.827,0.639-1.394,1.31c0.002-0.002,0.003-0.005,0.004-0.007c1.445-1.827-0.705-8.794-3.19-8.603&#10;&#9;&#9;&#9;&#9;&#9;&#9;&#9;C230.563,271.928,232.473,271.427,234.461,270.462z" style="fill:#FFB98B;"/>
					</g>
				</g>
				<path d="M300.908,280.836c0,0,2.626,0.202,3.453-4.549c0.827-4.751-11.043-8.114-11.043-8.114&#10;&#9;&#9;&#9;&#9;&#9;S296.973,278.974,300.908,280.836z" style="fill:#00B09D;"/>
				<g>
					<g>
						<path d="M303.923,265.135c0,0,12.982,6.284,14.932,6.802c1.95,0.518,4.443,11.324,3.304,11.269&#10;&#9;&#9;&#9;&#9;&#9;&#9;&#9;c-3.947-0.193-24.759-7.033-25.393-7.503S297.922,264.103,303.923,265.135z" style="fill:#FFD2B3;"/>
						<path d="M313.189,269.517c2.6,1.197,4.927,2.223,5.667,2.419&#10;&#9;&#9;&#9;&#9;&#9;&#9;&#9;c1.95,0.518,4.443,11.324,3.304,11.269c-1.351-0.066-4.682-0.913-8.501-2.015&#10;&#9;&#9;&#9;&#9;&#9;&#9;&#9;C316.734,281.351,314.249,272.035,313.189,269.517z" style="opacity:0.4;fill:#FFB98B;"/>
						<path d="M303.923,265.135c0,0,0.608,0.294,1.577,0.759c-1.717,0.232-3.404,10.547-3.107,11.8&#10;&#9;&#9;&#9;&#9;&#9;&#9;&#9;c-3.137-1.033-5.424-1.841-5.628-1.992C296.131,275.233,297.922,264.103,303.923,265.135z" style="fill:#FFB98B;"/>
					</g>
					<g>
						<path d="M322.97,272.474c0,0,0.207,1.105,2.064,3.532c1.857,2.428,0.865,6.074-1.431,6.955&#10;&#9;&#9;&#9;&#9;&#9;&#9;&#9;c-2.296,0.881-5.429-1.085-6.35-3.933c-0.921-2.848-0.909-5.692-0.909-5.692L322.97,272.474z" style="fill:#FFE5CF;"/>
						<path d="M324.238,267.456c0,0-0.23,4.605-1.161,6.306c-1.364,2.493-5.075,2.327-6.994,1.158&#10;&#9;&#9;&#9;&#9;&#9;&#9;&#9;c-1.919-1.169-2.808-4.908-2.833-5.814c-0.024-0.906,0.318-1.357,1.734-1.634C316.4,267.195,324.238,267.456,324.238,267.456z" style="fill:#FFB98B;"/>
						<g>
							<path d="M321.74,268.92c0,0-0.335,1.637,0.154,2.236c0.489,0.599,1.44,0.29,1.828-0.656&#10;&#9;&#9;&#9;&#9;&#9;&#9;&#9;&#9;c0.387-0.946,0.696-2.71,0.843-3.746s-1.532-1.953-2.045-1.134C322.007,266.438,321.885,268.263,321.74,268.92z" style="fill:#FFE5CF;"/>
							<path d="M319.206,270.919c0,0-0.013,1.354,0.948,1.598c0.749,0.191,1.473-0.289,1.642-1.298&#10;&#9;&#9;&#9;&#9;&#9;&#9;&#9;&#9;c0.169-1.008,0.787-4.653,0.702-5.696c-0.085-1.044-2.048-1.421-2.49-0.562C319.328,266.282,319.116,269.888,319.206,270.919&#10;&#9;&#9;&#9;&#9;&#9;&#9;&#9;&#9;z" style="fill:#FFE5CF;"/>
							<path d="M316.597,270.351c0,0-0.007,1.713,1.152,1.987c0.76,0.18,1.311-0.523,1.484-1.549&#10;&#9;&#9;&#9;&#9;&#9;&#9;&#9;&#9;c0.173-1.026,0.852-5.016,0.768-6.077c-0.083-1.061-2.275-1.237-2.724-0.362&#10;&#9;&#9;&#9;&#9;&#9;&#9;&#9;&#9;C316.589,265.695,316.508,269.301,316.597,270.351z" style="fill:#FFE5CF;"/>
							<path d="M314.36,268.909c0,0,0.255,1.494,0.901,1.919c0.646,0.424,1.459-0.164,1.543-1.191&#10;&#9;&#9;&#9;&#9;&#9;&#9;&#9;&#9;c0.083-1.027,0.462-4.173,0.29-5.213c-0.172-1.04-2.349-1.026-2.717-0.126C313.81,265.683,314.183,267.881,314.36,268.909z" style="fill:#FFE5CF;"/>
						</g>
					</g>
				</g>
				<path d="M281.791,239.677c0,0,0.869-6.14-6.991-7.145c-6.618-0.829-10.315,3.854-10.276,8.739&#10;&#9;&#9;&#9;&#9;&#9;c0.033,4.011-1.024,4.567-5.965,3.584c-4.941-0.983-11.212,1.641-11.276,7.653c-0.11,10.256,4.546,13.057,15.237,15.058&#10;&#9;&#9;&#9;&#9;&#9;s17.114-11,15.439-16.801C276.284,244.965,278.449,239.327,281.791,239.677z" style="fill:#F07D18;"/>
				<path d="M291.947,317.217c0,0,5.557-2.353,4.442-6.206c-1.115-3.854-6.423-13.017-5.028-21.388&#10;&#9;&#9;&#9;&#9;&#9;c1.395-8.37,2.661-6.695,0.995-13.834c0,0,5.584,4.439,8.552,5.046c0,0-2.54-1.454-1.923-6.8&#10;&#9;&#9;&#9;&#9;&#9;c0.618-5.346,3.298-7.903,4.938-8.901c0,0-8.11-3.423-12.511-6.328c-4.402-2.906-10.052-2.164-16.889-1.164&#10;&#9;&#9;&#9;&#9;&#9;c-9.175,1.342-19.778-0.619-25.644,1.27c-5.866,1.889-11.037,8.744-17.374,12.751c-1.536,0.971,5.64,10.732,11.508,8.495&#10;&#9;&#9;&#9;&#9;&#9;c1.058-0.404,5.363-3.292,6.129-3.753c0.766-0.461,5.158,2.587,6.857,13.084c0.959,5.927,0.469,19.932-0.305,22.306&#10;&#9;&#9;&#9;&#9;&#9;c-0.774,2.374-0.148,3.325,1.965,3.687C259.77,315.844,278.878,322.593,291.947,317.217z" style="fill:#5BCFDE;"/>
				<g style="opacity:0.5;">
					<path d="M298.161,279.704c-2.781-1.512-5.806-3.914-5.806-3.914s-1.907-5.968-1.841-8.174&#10;&#9;&#9;&#9;&#9;&#9;&#9;C290.581,265.426,295.88,278.542,298.161,279.704z" style="fill:#00B09D;"/>
					<path d="M298.434,279.85c-0.069-0.036-0.138-0.072-0.208-0.11&#10;&#9;&#9;&#9;&#9;&#9;&#9;C298.728,279.961,298.732,279.977,298.434,279.85z" style="fill:#00B09D;"/>
					<path d="M274.406,257.657c0.038-0.006,0.078-0.009,0.116-0.014c4.472-0.654,8.432-1.19,11.871-0.675&#10;&#9;&#9;&#9;&#9;&#9;&#9;c-1.721-0.178-6.669,0.156-2.981,1.881c3.969,1.856,6.308,7.046,3.134,8.149c-3.174,1.103-11.999-3.367-11.999-3.367&#10;&#9;&#9;&#9;&#9;&#9;&#9;C273.872,261.54,273.965,259.488,274.406,257.657z" style="fill:#00B09D;"/>
				</g>
				<g>
					<path d="M281.792,255.411c-1.159,0.524-3.038,0.827-4.128,0.936c0.041,0.593,0.819,4.696,0.458,6.985&#10;&#9;&#9;&#9;&#9;&#9;&#9;c-0.47,2.979-11.305-3.049-10.914-5.187c0,0,2.914-5.374,1.832-9.285C269.04,248.86,282.951,254.887,281.792,255.411z" style="fill:#FFB98B;"/>
					<path d="M272.503,250.397c-0.002,0.002-0.003,0.005-0.005,0.007&#10;&#9;&#9;&#9;&#9;&#9;&#9;c-0.235-0.113-0.49-0.171-0.749-0.141c-0.953,0.109-1.805,0.435-2.492,1.108c0.052-0.859,0.003-1.715-0.217-2.51&#10;&#9;&#9;&#9;&#9;&#9;&#9;C269.04,248.86,270.536,249.509,272.503,250.397z" style="opacity:0.33;fill:#FFB98B;"/>
					<path d="M271.696,252.716c0,0,11.03,2.273,10.096,2.695&#10;&#9;&#9;&#9;&#9;&#9;&#9;c-1.159,0.524-3.038,0.827-4.128,0.936C273.524,255.239,271.696,252.716,271.696,252.716z" style="opacity:0.33;fill:#FFB98B;"/>
					<path d="M281.439,238.577c1.254,2.499,1.156,15.017,0.993,16.273c-0.104,0.802-2.312,0.919-3.87,0.594&#10;&#9;&#9;&#9;&#9;&#9;&#9;c-2.941-0.614-6.203-2.2-6.653-2.518c-0.688-0.486-0.926-2.214-1-3.123c-0.642,0.45-2.037-0.247-2.456-1.698&#10;&#9;&#9;&#9;&#9;&#9;&#9;c-0.122-0.615,1.64-1.19,2.399-0.957c0.575,0.632,0.973,1.365,1.053,1.695c-0.7-5.225,3.664-5.636,3.03-9.661&#10;&#9;&#9;&#9;&#9;&#9;&#9;c-0.309-1.963,4.049-0.739,4.474-0.962C279.835,237.996,280.185,236.078,281.439,238.577z" style="fill:#FFD2B3;"/>
				</g>
				<path d="M258.476,285.849c2.784,4.087,11.848,8.542,12.095,10.156&#10;&#9;&#9;&#9;&#9;&#9;c0.248,1.614-13.711-4.473-14.083-0.063c-0.067-2.496-0.222-4.792-0.491-6.453c-1.699-10.497-6.091-13.545-6.857-13.084&#10;&#9;&#9;&#9;&#9;&#9;c0,0,5.063-3.818,6.421-3.727C256.92,272.768,255.692,281.762,258.476,285.849z" style="opacity:0.5;fill:#00B09D;"/>
			</g>
		</g>
		<g>
			<g>
				<g>
					<polygon points="290.526,214.744 292.347,210.045 289.259,207.738 284.31,209.551 282.609,213.718 &#10;&#9;&#9;&#9;&#9;&#9;&#9;285.666,216.396" style="fill:#F4F3F3;"/>
					<path d="M282.906,213.458l1.485-3.638c0.034-0.083,0.101-0.148,0.185-0.178l4.492-1.645&#10;&#9;&#9;&#9;&#9;&#9;&#9;c0.101-0.037,0.214-0.021,0.3,0.044l2.572,1.922c0.114,0.085,0.158,0.237,0.106,0.37l-1.601,4.133&#10;&#9;&#9;&#9;&#9;&#9;&#9;c-0.034,0.088-0.105,0.156-0.194,0.186l-4.371,1.486c-0.108,0.037-0.227,0.013-0.312-0.062l-2.576-2.257&#10;&#9;&#9;&#9;&#9;&#9;&#9;C282.889,213.728,282.855,213.584,282.906,213.458z" style="fill:#FFFFFF;"/>
					<polygon points="282.609,213.718 279.868,217.227 281.134,221.844 284.667,221.432 285.666,216.396" style="fill:#070540;"/>
					<path d="M292.347,210.045l5.057,0.743l1.116-1.274c-2.345-2.054-5.274-3.011-8.162-2.917l-1.099,1.14&#10;&#9;&#9;&#9;&#9;&#9;&#9;L292.347,210.045z" style="fill:#F4F3F3;"/>
					<path d="M290.57,206.769c2.717-0.041,5.335,0.858,7.445,2.552c0.141,0.113,0.156,0.322,0.037,0.458&#10;&#9;&#9;&#9;&#9;&#9;&#9;l-0.604,0.689c-0.071,0.081-0.179,0.121-0.286,0.105l-4.667-0.686c-0.052-0.008-0.102-0.028-0.144-0.06l-2.538-1.896&#10;&#9;&#9;&#9;&#9;&#9;&#9;c-0.153-0.115-0.172-0.338-0.039-0.476l0.567-0.588C290.402,206.807,290.484,206.771,290.57,206.769z" style="fill:#FFFFFF;"/>
					<path d="M289.259,207.738l1.099-1.14c-2.378,0.078-4.727,0.868-6.701,2.351l0.653,0.602L289.259,207.738&#10;&#9;&#9;&#9;&#9;&#9;&#9;z" style="fill:#070540;"/>
					<path d="M282.609,213.718l1.701-4.167l-0.653-0.602c-0.642,0.483-1.245,1.037-1.796,1.666&#10;&#9;&#9;&#9;&#9;&#9;&#9;c-1.62,1.849-2.558,4.06-2.837,6.329l0.842,0.284L282.609,213.718z" style="fill:#F4F3F3;"/>
					<path d="M279.474,216.907c-0.147-0.049-0.239-0.198-0.215-0.351c0.343-2.161,1.284-4.168,2.736-5.825&#10;&#9;&#9;&#9;&#9;&#9;&#9;c0.438-0.499,0.92-0.963,1.437-1.382c0.122-0.099,0.3-0.091,0.416,0.016l0.09,0.083c0.098,0.09,0.129,0.231,0.079,0.354&#10;&#9;&#9;&#9;&#9;&#9;&#9;l-1.545,3.786c-0.011,0.027-0.026,0.053-0.044,0.076l-2.483,3.178c-0.083,0.106-0.224,0.149-0.352,0.106L279.474,216.907z" style="fill:#FFFFFF;"/>
					<path d="M279.868,217.227l-0.842-0.284c-0.354,2.884,0.361,5.859,2.1,8.297l0.008-3.396L279.868,217.227&#10;&#9;&#9;&#9;&#9;&#9;&#9;z" style="fill:#F4F3F3;"/>
					<path d="M280.351,223.615c-0.935-1.856-1.355-3.933-1.21-6.029c0.014-0.206,0.225-0.341,0.42-0.275l0,0&#10;&#9;&#9;&#9;&#9;&#9;&#9;c0.1,0.034,0.177,0.115,0.205,0.217l1.179,4.298c0.008,0.028,0.011,0.056,0.011,0.085l-0.004,1.558&#10;&#9;&#9;&#9;&#9;&#9;&#9;C280.952,223.802,280.501,223.912,280.351,223.615z" style="fill:#FFFFFF;"/>
				</g>
				<g>
					<path d="M288.528,224.814l-1.931-1.691l-1.931-1.691l-3.533,0.412l-0.008,3.396&#10;&#9;&#9;&#9;&#9;&#9;&#9;c0.521,0.731,1.132,1.415,1.836,2.033c0.705,0.617,1.463,1.132,2.256,1.553l3.365-0.454L288.528,224.814z" style="fill:#F4F3F3;"/>
					<path d="M283.079,227.139c-0.633-0.555-1.209-1.183-1.713-1.87c-0.041-0.056-0.063-0.123-0.062-0.192&#10;&#9;&#9;&#9;&#9;&#9;&#9;l0.007-2.793c0-0.161,0.121-0.297,0.281-0.315l2.878-0.336c0.089-0.01,0.179,0.017,0.246,0.077l3.53,3.093&#10;&#9;&#9;&#9;&#9;&#9;&#9;c0.068,0.059,0.107,0.144,0.109,0.234l0.046,2.897c0.003,0.161-0.116,0.299-0.276,0.32l-2.768,0.374&#10;&#9;&#9;&#9;&#9;&#9;&#9;c-0.069,0.009-0.138-0.003-0.199-0.036C284.411,228.182,283.712,227.694,283.079,227.139z" style="fill:#FFFFFF;"/>
					<polygon points="294.387,218.126 292.457,216.435 290.526,214.744 285.666,216.396 284.667,221.432 &#10;&#9;&#9;&#9;&#9;&#9;&#9;286.598,223.123 288.528,224.814 293.388,223.162" style="fill:#F4F3F3;"/>
					<path d="M284.896,221.186l0.888-4.475c0.022-0.111,0.102-0.203,0.21-0.239l4.319-1.469&#10;&#9;&#9;&#9;&#9;&#9;&#9;c0.108-0.037,0.227-0.013,0.312,0.062l3.431,3.006c0.086,0.075,0.125,0.19,0.102,0.301l-0.888,4.475&#10;&#9;&#9;&#9;&#9;&#9;&#9;c-0.022,0.111-0.102,0.203-0.21,0.239l-4.319,1.468c-0.108,0.037-0.227,0.013-0.312-0.062l-3.431-3.006&#10;&#9;&#9;&#9;&#9;&#9;&#9;C284.913,221.412,284.874,221.297,284.896,221.186z" style="fill:#FFFFFF;"/>
					<polygon points="294.387,218.126 298.806,215.704 301.499,218.461 300.353,223.605 296.445,225.84 &#10;&#9;&#9;&#9;&#9;&#9;&#9;293.388,223.162" style="fill:#F4F3F3;"/>
					<path d="M293.617,222.916l0.898-4.528c0.018-0.092,0.077-0.172,0.159-0.217l3.886-2.131&#10;&#9;&#9;&#9;&#9;&#9;&#9;c0.125-0.069,0.281-0.045,0.381,0.057l2.243,2.297c0.075,0.077,0.106,0.187,0.083,0.291l-1.04,4.669&#10;&#9;&#9;&#9;&#9;&#9;&#9;c-0.019,0.087-0.075,0.163-0.153,0.207l-3.411,1.951c-0.118,0.067-0.266,0.053-0.368-0.037l-2.576-2.257&#10;&#9;&#9;&#9;&#9;&#9;&#9;C293.634,223.142,293.595,223.027,293.617,222.916z" style="fill:#FFFFFF;"/>
					<polygon points="297.404,210.788 292.347,210.045 290.526,214.744 292.457,216.435 294.387,218.126 &#10;&#9;&#9;&#9;&#9;&#9;&#9;298.806,215.704" style="fill:#070540;"/>
					<polygon points="296.445,225.84 293.327,229.019 288.584,228.371 288.528,224.814 293.388,223.162" style="fill:#070540;"/>
					<path d="M298.806,215.704l-1.401-4.916l1.116-1.274c2.345,2.054,3.678,4.832,3.965,7.707l-0.986,1.24&#10;&#9;&#9;&#9;&#9;&#9;&#9;L298.806,215.704z" style="fill:#F4F3F3;"/>
					<path d="M298.942,215.535l-1.293-4.536c-0.03-0.104-0.004-0.216,0.067-0.297l0.604-0.689&#10;&#9;&#9;&#9;&#9;&#9;&#9;c0.119-0.135,0.329-0.148,0.459-0.023c1.957,1.87,3.193,4.347,3.509,7.045c0.01,0.085-0.015,0.171-0.069,0.238l-0.508,0.639&#10;&#9;&#9;&#9;&#9;&#9;&#9;c-0.119,0.15-0.343,0.161-0.477,0.024l-2.213-2.266C298.983,215.632,298.956,215.585,298.942,215.535z" style="fill:#FFFFFF;"/>
					<path d="M301.499,218.461l0.986-1.24c0.236,2.367-0.239,4.8-1.449,6.952l-0.683-0.568L301.499,218.461z" style="fill:#070540;"/>
					<path d="M296.445,225.84l3.908-2.234l0.683,0.568c-0.394,0.7-0.865,1.371-1.415,1.999&#10;&#9;&#9;&#9;&#9;&#9;&#9;c-1.62,1.849-3.689,3.07-5.901,3.644l-0.393-0.798L296.445,225.84z" style="fill:#F4F3F3;"/>
					<path d="M293.699,228.892l2.824-2.879c0.021-0.021,0.044-0.039,0.069-0.053l3.55-2.03&#10;&#9;&#9;&#9;&#9;&#9;&#9;c0.115-0.066,0.259-0.053,0.361,0.032l0.094,0.078c0.121,0.101,0.153,0.276,0.07,0.411c-0.347,0.567-0.743,1.106-1.181,1.606&#10;&#9;&#9;&#9;&#9;&#9;&#9;c-1.452,1.658-3.318,2.855-5.415,3.479c-0.148,0.044-0.308-0.028-0.377-0.167l-0.055-0.112&#10;&#9;&#9;&#9;&#9;&#9;&#9;C293.581,229.134,293.604,228.988,293.699,228.892z" style="fill:#FFFFFF;"/>
					<path d="M293.327,229.019l0.393,0.798c-2.813,0.731-5.855,0.412-8.501-0.991l3.365-0.454&#10;&#9;&#9;&#9;&#9;&#9;&#9;L293.327,229.019z" style="fill:#F4F3F3;"/>
					<path d="M288.627,228.555l4.415,0.603c0.105,0.014,0.196,0.08,0.242,0.175h0&#10;&#9;&#9;&#9;&#9;&#9;&#9;c0.091,0.186-0.015,0.412-0.218,0.453c-2.057,0.419-4.169,0.277-6.13-0.404c-0.317-0.11-0.27-0.574,0.062-0.618l1.542-0.208&#10;&#9;&#9;&#9;&#9;&#9;&#9;C288.569,228.551,288.598,228.551,288.627,228.555z" style="fill:#FFFFFF;"/>
				</g>
			</g>
		</g>
	</g>
	<g>
		
			<text style="fill:#070540; font-family:'Montserrat-Light'; font-size:14.8046px; letter-spacing:5;" transform="matrix(1 0 0 1 191.8179 56.0486)">NATIONAL</text>
		
			<text style="fill:#070540; font-family:'Montserrat-Light'; font-size:14.8046px; letter-spacing:5;" transform="matrix(1 0 0 1 227.1348 120.9983)">DAY</text>
		
			<text style="fill:#070540; font-family:'Montserrat-Black'; font-size:48.6716px; letter-spacing:2;" transform="matrix(1 0 0 1 139.5173 100.5012)">SPORTS</text>
	</g>
</g>
</svg>