<?xml version="1.0" encoding="utf-8"?>
<!-- Generator: Adobe Illustrator 27.5.0, SVG Export Plug-In . SVG Version: 6.00 Build 0)  -->
<svg version="1.1" xmlns="http://www.w3.org/2000/svg" xmlns:xlink="http://www.w3.org/1999/xlink" x="0px" y="0px"
	 viewBox="0 0 996 500" style="enable-background:new 0 0 996 500;" xml:space="preserve">
<g id="BACKGROUND">
	<g>
		<rect x="0.513" y="0.801" style="fill:#F6F3EE;" width="995.487" height="499.139"/>
		<rect x="0.513" y="0.801" style="fill:#F6F3EE;" width="995.487" height="499.139"/>
	</g>
</g>
<g id="OBJECTS">
	
		<line style="fill:none;stroke:#15181F;stroke-width:1.0544;stroke-linecap:round;stroke-linejoin:round;stroke-miterlimit:10;" x1="58.366" y1="422.343" x2="938.56" y2="422.343"/>
	<g>
		<g>
			<g>
				
					<path style="fill:none;stroke:#15181F;stroke-width:1.48;stroke-linecap:round;stroke-linejoin:round;stroke-miterlimit:10;" d="
					M876.621,111.777c1.981-0.488,3.918,1.035,5.028,2.746c1.11,1.712,1.789,3.727,3.217,5.184c2.357,2.404,6.15,2.681,9.474,2.143
					c3.324-0.538,6.567-1.734,9.934-1.715s7.084,1.708,8.005,4.947"/>
				
					<path style="fill:none;stroke:#15181F;stroke-width:1.48;stroke-linecap:round;stroke-linejoin:round;stroke-miterlimit:10;" d="
					M877.832,108.145c1.981-0.488,3.918,1.035,5.028,2.746c1.11,1.712,1.789,3.727,3.217,5.184c2.357,2.405,6.15,2.681,9.474,2.143
					c3.324-0.538,6.567-1.734,9.934-1.715c3.367,0.019,7.084,1.708,8.005,4.947"/>
				
					<path style="fill:none;stroke:#15181F;stroke-width:1.48;stroke-linecap:round;stroke-linejoin:round;stroke-miterlimit:10;" d="
					M880.263,104.607c1.981-0.488,3.918,1.035,5.028,2.746c1.11,1.712,1.789,3.727,3.217,5.184c2.357,2.405,6.15,2.681,9.474,2.143
					c3.324-0.538,6.567-1.734,9.934-1.715c3.367,0.019,7.084,1.708,8.005,4.947"/>
				
					<path style="fill:none;stroke:#15181F;stroke-width:1.48;stroke-linecap:round;stroke-linejoin:round;stroke-miterlimit:10;" d="
					M880.731,101.155c1.981-0.488,3.918,1.035,5.028,2.746c1.11,1.712,1.789,3.727,3.217,5.184c2.357,2.405,6.15,2.681,9.474,2.143
					c3.324-0.538,6.567-1.734,9.934-1.715c3.367,0.019,7.084,1.708,8.005,4.947"/>
				
					<path style="fill:none;stroke:#15181F;stroke-width:1.48;stroke-linecap:round;stroke-linejoin:round;stroke-miterlimit:10;" d="
					M875.425,115.164c1.981-0.488,3.918,1.035,5.028,2.746s1.789,3.727,3.217,5.184c2.357,2.405,6.15,2.681,9.474,2.143
					c3.324-0.538,6.567-1.734,9.934-1.715c3.367,0.019,7.084,1.708,8.005,4.947"/>
			</g>
			<g>
				<path style="fill:#803B1E;" d="M960.696,241.847c3.996,4.006,6.644,9.202,8.635,14.451l-9.062,3.398
					c1.091,2.115,0.924,6.126-2.285,5.373c-2.033-0.477-2.897-4.733-3.526-6.41c-0.158-0.017-0.32-0.044-0.485-0.079
					c-4.098-0.864-5.836-5.839-3.382-9.233C953.286,245.621,957.831,242.098,960.696,241.847z"/>
				
					<polyline style="fill:none;stroke:#15181F;stroke-width:0.396;stroke-linecap:round;stroke-linejoin:round;stroke-miterlimit:10;" points="
					952.908,252.73 955.048,258.437 951.633,253.843 				"/>
			</g>
			<path style="fill:#803B1E;" d="M838.466,133.549c6.13,2.357,8.898,9.331,6.188,15.571l2.681,3.138l-22.437,51.632l-0.456,1.051
				c-1.091,2.495-3.406,4.447-6.264,4.958l-66.654,10.845c-0.283,0.051-0.562,0.076-0.839,0.073
				c-1.852-0.017-3.514-1.19-4.035-3.039c-0.448-1.592,0.056-3.276,1.183-4.434c0.522-0.546,1.183-0.973,1.945-1.223l38.527-12.712
				l17.075-5.636l3.402-10.637l5.359-16.761l4.955-15.493l2.913-9.103c0.125-0.396,0.28-0.803,0.448-1.195
				C825.171,134.346,832.339,131.195,838.466,133.549z"/>
			<path style="fill:#5CAB27;" d="M845.496,153.898l-11.614,28.342c-6.992-4.959-13.523-10.489-19.356-16.71l3.961-13.509
				l2.946-10.04c0.126-0.437,0.285-0.885,0.46-1.316c2.812-6.858,10.655-10.142,17.516-7.334
				c6.864,2.812,10.145,10.658,7.337,17.519L845.496,153.898z"/>
			<path style="fill:#803B1E;" d="M868.636,248.063c-0.429,0.954-0.958,1.878-1.58,2.767c-3.879,5.525-7.927,10.934-12.032,16.301
				c-0.128,0.167-0.259,0.338-0.387,0.505c-1.523,1.977-3.039,3.961-4.573,5.929c-0.607,0.782-1.223,1.561-1.837,2.335
				c-1.905,2.398-3.771,4.817-5.698,7.201c-0.267,0.335-0.538,0.668-0.808,1l-6.588,8.15l-6.689,8.085l-3.35,4.045
				c-0.278,0.34-0.569,0.664-0.829,1.016l-0.756,1.069l-1.509,2.14l-4.268,6.034l-0.002,0.004l-1.78,2.52
				c-4.036,5.704-8.135,11.368-12.228,17.04c-0.465,0.649-0.93,1.299-1.402,1.945c-3.62,5.025-7.316,10.006-10.983,15.007
				c-1.054,1.42-2.105,2.836-3.163,4.254c-2.14,2.874-4.287,5.745-6.447,8.611c-5.219,6.924-10.498,13.809-15.904,20.625
				c-0.967,1.217-2.296,2.045-3.741,2.392c-1.472,0.356-3.066,0.215-4.517-0.511c-1.946-0.974-3.213-2.781-3.578-4.785
				c-0.268-1.412-0.089-2.92,0.601-4.311c2.222-4.468,4.483-8.916,6.773-13.343c1.488-2.876,2.987-5.743,4.498-8.606
				c1.804-3.424,3.62-6.843,5.448-10.258c0.96-1.791,1.921-3.586,2.885-5.376c0.586-1.076,1.172-2.152,1.758-3.229
				c2.79-5.129,5.565-10.268,8.418-15.356c2.682-4.839,5.36-9.68,8.072-14.502c0.751-1.333,1.502-2.666,2.257-3.998l5.23-9.209
				l1.307-2.302c0.434-0.771,0.875-1.535,1.346-2.282l2.778-4.51l5.561-9.018l5.669-8.95c0.296-0.475,0.597-0.953,0.901-1.425
				c1.596-2.504,3.239-4.975,4.847-7.475c1.911-2.971,3.885-5.899,5.844-8.836c0.134-0.203,0.27-0.4,0.404-0.603
				c1.202-1.788,2.409-3.574,3.626-5.351c2.631-3.856,5.305-7.679,8.059-11.447c2.36-3.223,5.65-5.369,9.219-6.318
				c4.57-1.219,9.596-0.483,13.725,2.455c1.336,0.951,2.488,2.069,3.449,3.31C870.425,235.652,871.237,242.335,868.636,248.063z"/>
			<path style="fill:#803B1E;" d="M821.254,221.331l-30.137,63.815l-0.605,1.282c-1.256,2.66-1.33,5.6-0.449,8.181l30.767,89.386
				c1.496,4.346,6.232,6.656,10.578,5.161c4.119-1.418,6.401-5.778,5.356-9.926l-23.366-91.6l-1.055,9.462l38.912-58.877
				c5.255-7.951,3.069-18.656-4.882-23.911c-7.951-5.255-18.656-3.069-23.911,4.882C822.02,219.852,821.591,220.629,821.254,221.331
				z"/>
			<path style="fill:#E69525;" d="M821.651,319.986l15.112,59.243c1.045,4.148-1.236,8.508-5.356,9.926
				c-4.346,1.496-9.082-0.815-10.577-5.161l-17.268-50.168C809.935,329.692,815.986,325.046,821.651,319.986z"/>
			<path style="fill:#803B1E;" d="M884.597,101.737l-4.34,11.019c-0.631,1.602-1.532,2.992-2.612,4.133
				c-2.73,2.884-6.605,4.156-10.182,3.104c-0.367-0.105-0.728-0.238-1.085-0.393c-5.248-2.294-7.585-9.132-5.199-15.192l1.373-3.485
				l0.474-1.202l2.497-6.331c2.265-5.749,7.999-8.815,13.063-7.157c0.276,0.09,0.547,0.194,0.816,0.312
				c4.474,1.958,6.835,7.223,5.949,12.49C885.197,99.941,884.949,100.847,884.597,101.737z"/>
			<path style="fill:#803B1E;" d="M883.83,102.281c-2.552,9.4-4.995,26.273-4.142,33.337c-1.815,1.68-4.214,1.772-6.465,1.741
				c-2.251-0.031-4.207-1.219-6.296-1.958c-3.782-1.338-6.328-2.827-6.461-6.148c0.863-0.737,3.42-4.042,4.835-5.95
				c2.424-3.27,2.514-7.96,1.88-11.861C871.755,112.548,879.093,101.953,883.83,102.281z"/>
			<path style="fill:#15181F;" d="M866.838,120.209c0.757,1.989,3.148,2.792,5.154,1.287c1.333-1,2.023-2.584,2.281-4.219
				c-2.122,1.821-4.691,2.724-7.381,2.728C866.873,120.073,866.859,120.142,866.838,120.209z"/>
			<path style="fill:#803B1E;" d="M823.749,144.454l3.193,66.207l44.43,12.199l33.793-57.943
				c6.499-11.143,0.538-25.409-11.956-28.616l-45.214-11.607C835.321,121.44,823.118,131.385,823.749,144.454z"/>
			<path style="fill:#72C9C3;" d="M897.265,137.668"/>
			<path style="fill:#803B1E;" d="M899.419,138.012l51.438,35.396l1.201,0.827c2.398,1.65,3.798,4.257,4.045,6.945l5.978,67.652
				c0.207,2.386-1.956,1.001-4.342,1.209c-1.992,0.173-3.787-1.034-4.446-2.824l-22.222-60.452l5.246,7.771L884.88,159.14
				c-5.835-4.015-7.31-11.999-3.295-17.834C885.6,135.472,893.585,133.997,899.419,138.012z"/>
			<path style="fill:#5CAB27;" d="M881.585,141.306c4.015-5.835,12-7.309,17.834-3.295l29.623,20.385
				c-2.541,8.327-6.677,16.089-12.365,22.625L884.88,159.14C879.045,155.125,877.57,147.141,881.585,141.306z"/>
			<rect x="813.397" y="287.629" style="fill:#D5821F;" width="0" height="0"/>
			<path style="fill:#5CAB27;" d="M823.747,144.459l-0.915,25.814l-0.509,14.709l-0.004,0.01l-0.414,11.674l-0.553,15.51
				l-0.387,10.972l-0.142,0.351c-0.734,9.346,11.555,16.439,19.055,18.961c10.905,3.668,25.43,5.528,32.822-4.383l0.175-0.432
				l0.239,0.073l3.695-8.404l6.194-14.055l3.72-8.465l6.074-13.788l12.366-28.085c6.502-11.149,0.543-25.415-11.954-28.617
				l-45.212-11.61C835.323,121.443,823.116,131.38,823.747,144.459z"/>
			<path style="fill:#803B1E;" d="M879.759,109.909c-0.081,3.174,2.065,5.803,4.794,5.873c2.728,0.07,5.006-2.447,5.087-5.621
				c0.081-3.174-2.065-5.803-4.794-5.873C882.118,104.218,879.84,106.735,879.759,109.909z"/>
			<path style="fill:#E69525;" d="M771.688,376.532l-22.372,31.466l-31.936-9.321c0,0,12.92-6.2,28.13-5.06l11.82-21.023
				L771.688,376.532z"/>
			<path style="fill:#E69525;" d="M835.785,374.802l6.282,33.039l-30.477,19.642c0,0,0.698-16.453,17.37-22.943l-9.378-24.094
				L835.785,374.802z"/>
			<path style="fill:#E69525;" d="M876.904,225.559c2.286,11.748-0.821,24.033-6.332,34.657s-13.308,19.86-21.037,28.998
				l-35.23-14.266c2.271-4.348,4.339-5.772,6.61-10.12l-20.668-8.369c7.534-11.918,13.896-23.215,21.43-35.134
				c8.2,3.435,19.935,4.561,28.794,5.318C858.307,227.312,869.04,225.507,876.904,225.559z"/>
			
				<line style="fill:none;stroke:#15181F;stroke-width:0.6706;stroke-linecap:round;stroke-linejoin:round;stroke-miterlimit:10;" x1="835.659" y1="242.34" x2="796.662" y2="301.983"/>
			<path style="fill:#E69525;" d="M765.858,355.484c1.804-3.424,3.62-6.843,5.448-10.258c0.96-1.791,1.921-3.586,2.885-5.376
				c0.586-1.076,1.172-2.152,1.758-3.229c2.79-5.128,5.565-10.268,8.418-15.356c2.682-4.839,5.36-9.68,8.072-14.502
				c0.751-1.333,1.502-2.666,2.257-3.998l2.468-4.346c7.741,3.74,14.361,9.77,20.166,16.789l-1.381,1.955
				c-4.036,5.704-8.135,11.368-12.228,17.04c-0.465,0.649-0.93,1.299-1.402,1.945c-3.62,5.025-7.316,10.006-10.983,15.007
				c-1.054,1.42-2.105,2.836-3.163,4.254c-2.14,2.874-4.287,5.745-6.447,8.611c-5.219,6.924-10.498,13.809-15.903,20.625
				c-0.967,1.217-2.296,2.045-3.741,2.392c-1.471,0.356-3.066,0.215-4.517-0.511c-1.946-0.974-3.213-2.781-3.578-4.785
				c-0.268-1.412-0.089-2.92,0.601-4.311c2.222-4.468,4.483-8.916,6.773-13.343C762.848,361.213,764.347,358.346,765.858,355.484z"
				/>
			<g>
				<g>
					<path style="fill:#0F0808;" d="M751.576,392.104c-1.579-1.447-2.711-3.611-3.49-5.675c-1.456,1.548-3.311,2.703-5.358,3.203
						c-3.022,0.738-6.175,0.155-9.276,0.237c-6.052,0.159-12.014,3-16.035,7.64l38.179,9.768l3.362-13.142
						C756.348,394.728,753.674,394.026,751.576,392.104z"/>
					<path style="fill:#0F0808;" d="M751.576,392.104c-1.577-1.445-2.707-3.604-3.486-5.666c-1.458,1.545-3.317,2.695-5.362,3.194
						c-3.022,0.738-6.175,0.155-9.276,0.237c-6.052,0.159-12.014,3-16.035,7.64l38.179,9.768l3.362-13.142
						C756.348,394.728,753.674,394.026,751.576,392.104z"/>
					<path style="fill:#0F0808;" d="M717.75,399.794l37.169,9.509c1.057,0.27,2.148-0.39,2.424-1.468l0,0
						c0.276-1.078-0.364-2.181-1.421-2.452l-37.169-9.509c-1.058-0.271-2.148,0.39-2.424,1.468l0,0
						C716.053,398.42,716.693,399.523,717.75,399.794z"/>
					<path style="fill:#0F0808;" d="M751.487,408.889l-0.382,1.569c-0.221,0.906,0.34,1.828,1.246,2.048l0,0
						c0.906,0.221,1.828-0.34,2.048-1.246l0.382-1.569c0.221-0.906-0.34-1.828-1.246-2.048l0,0
						C752.629,407.423,751.708,407.983,751.487,408.889z"/>
					<path style="fill:#0F0808;" d="M747.033,407.784l-0.382,1.569c-0.221,0.906,0.34,1.828,1.246,2.048l0,0
						c0.906,0.221,1.828-0.34,2.048-1.246l0.382-1.569c0.221-0.906-0.34-1.828-1.246-2.048l0,0
						C748.175,406.317,747.253,406.878,747.033,407.784z"/>
					<path style="fill:#0F0808;" d="M742.302,406.095l-0.382,1.569c-0.221,0.906,0.34,1.827,1.246,2.048l0,0
						c0.906,0.221,1.828-0.34,2.048-1.246l0.382-1.569c0.221-0.906-0.34-1.828-1.246-2.048l0,0
						C743.444,404.628,742.523,405.189,742.302,406.095z"/>
					<path style="fill:#0F0808;" d="M730.153,403.454l-0.382,1.569c-0.221,0.906,0.34,1.828,1.246,2.048l0,0
						c0.906,0.221,1.828-0.34,2.048-1.246l0.382-1.569c0.221-0.906-0.34-1.828-1.246-2.048l0,0
						C731.295,401.988,730.373,402.548,730.153,403.454z"/>
					<path style="fill:#0F0808;" d="M725.084,402.372l-0.382,1.569c-0.221,0.906,0.34,1.828,1.246,2.048l0,0
						c0.906,0.221,1.828-0.34,2.048-1.246l0.382-1.569c0.221-0.906-0.34-1.828-1.246-2.048l0,0
						C726.226,400.905,725.305,401.466,725.084,402.372z"/>
					<path style="fill:#0F0808;" d="M719.77,400.959l-0.382,1.569c-0.221,0.906,0.34,1.828,1.246,2.048l0,0
						c0.906,0.221,1.828-0.34,2.048-1.246l0.382-1.569c0.221-0.906-0.34-1.828-1.246-2.048l0,0
						C720.912,399.493,719.99,400.053,719.77,400.959z"/>
					<path style="fill:#0F0808;" d="M715.331,399.132l-0.382,1.569c-0.221,0.906,0.34,1.828,1.246,2.048l0,0
						c0.906,0.221,1.828-0.34,2.048-1.246l0.382-1.569c0.221-0.906-0.34-1.828-1.246-2.048l0,0
						C716.473,397.666,715.552,398.226,715.331,399.132z"/>
				</g>
				<path style="fill:none;stroke:#FFFFFF;stroke-width:0.6557;stroke-miterlimit:10;" d="M728.651,402.317
					c3.81-2.277,8.103-3.753,12.496-4.295c6.247-0.771,13.106,0.184,18.369-3.297"/>
				<path style="fill:#0F0808;" d="M748.583,391.714c2.496-1.075,4.577-3.085,5.738-5.542c1.161-2.457,1.393-5.34,0.64-7.952
					c-0.488-1.69-1.59-3.423-3.318-3.749c-1.984-0.374-3.792,1.27-4.8,3.018c-0.906,1.571-1.475,3.336-1.658,5.141
					c-0.175,1.734,0.485,5.191-0.289,6.752C746.122,390.996,747.629,389.925,748.583,391.714z"/>
			</g>
			<g>
				<g>
					<path style="fill:#0F0808;" d="M831.477,398.799c-2.242,0.169-4.711-0.52-6.85-1.408c0.139,2.226-0.311,4.476-1.399,6.401
						c-1.607,2.843-4.318,4.837-6.485,7.268c-4.227,4.745-6.337,11.348-5.676,17.758l34.908-22.194l-7.64-12.016
						C836.914,397.034,834.456,398.575,831.477,398.799z"/>
					<path style="fill:#0F0808;" d="M831.477,398.799c-2.239,0.169-4.703-0.518-6.841-1.404c0.134,2.226-0.321,4.474-1.409,6.397
						c-1.607,2.843-4.318,4.837-6.485,7.268c-4.227,4.745-6.337,11.348-5.676,17.758l34.908-22.194l-7.64-12.016
						C836.914,397.034,834.456,398.575,831.477,398.799z"/>
					<path style="fill:#0F0808;" d="M813.055,430.207l33.984-21.607c0.967-0.615,1.245-1.924,0.618-2.91l0,0
						c-0.627-0.986-1.931-1.289-2.897-0.675l-33.984,21.607c-0.967,0.615-1.245,1.924-0.618,2.91l0,0
						C810.785,430.518,812.088,430.822,813.055,430.207z"/>
					<path style="fill:#0F0808;" d="M844.256,410.929l0.926,1.42c0.535,0.82,1.643,1.053,2.463,0.518l0,0
						c0.82-0.534,1.053-1.643,0.519-2.462l-0.926-1.42c-0.535-0.82-1.643-1.053-2.462-0.519l0,0
						C843.955,409.001,843.722,410.109,844.256,410.929z"/>
					<path style="fill:#0F0808;" d="M840.21,413.543l0.926,1.42c0.534,0.82,1.643,1.053,2.462,0.518l0,0
						c0.82-0.534,1.053-1.643,0.519-2.462l-0.926-1.419c-0.535-0.82-1.643-1.053-2.463-0.518l0,0
						C839.909,411.615,839.675,412.723,840.21,413.543z"/>
					<path style="fill:#0F0808;" d="M835.518,415.949l0.926,1.42c0.535,0.82,1.643,1.053,2.463,0.519l0,0
						c0.82-0.535,1.053-1.643,0.518-2.463l-0.926-1.42c-0.534-0.82-1.643-1.053-2.462-0.519l0,0
						C835.217,414.021,834.984,415.129,835.518,415.949z"/>
					<path style="fill:#0F0808;" d="M824.768,423.347l0.926,1.42c0.535,0.82,1.643,1.053,2.462,0.518l0,0
						c0.82-0.535,1.053-1.643,0.519-2.462l-0.926-1.42c-0.535-0.82-1.643-1.053-2.462-0.518l0,0
						C824.466,421.419,824.233,422.527,824.768,423.347z"/>
					<path style="fill:#0F0808;" d="M820.298,426.448l0.926,1.42c0.535,0.82,1.643,1.053,2.462,0.518l0,0
						c0.82-0.535,1.053-1.643,0.518-2.462l-0.926-1.42c-0.534-0.82-1.643-1.053-2.462-0.518l0,0
						C819.996,424.52,819.763,425.628,820.298,426.448z"/>
					<path style="fill:#0F0808;" d="M815.398,429.499l0.926,1.42c0.535,0.82,1.643,1.053,2.463,0.519l0,0
						c0.82-0.535,1.053-1.643,0.518-2.462l-0.926-1.42c-0.535-0.82-1.643-1.053-2.462-0.518l0,0
						C815.097,427.571,814.863,428.679,815.398,429.499z"/>
					<path style="fill:#0F0808;" d="M810.81,431.583l0.926,1.42c0.534,0.82,1.643,1.053,2.462,0.519l0,0
						c0.82-0.535,1.053-1.643,0.519-2.463l-0.926-1.42c-0.535-0.82-1.643-1.053-2.463-0.519l0,0
						C810.509,429.655,810.276,430.763,810.81,431.583z"/>
				</g>
				<path style="fill:none;stroke:#FFFFFF;stroke-width:0.6883;stroke-miterlimit:10;" d="M822.818,423.678
					c0.995-4.552,2.951-8.897,5.693-12.647c3.899-5.334,9.559-9.896,10.677-16.424"/>
				<path style="fill:#0F0808;" d="M829.027,400.809c0.971-2.683,0.928-5.719-0.118-8.373c-1.046-2.654-3.085-4.904-5.625-6.203
					c-1.643-0.841-3.762-1.243-5.253-0.155c-1.712,1.249-1.753,3.814-1.14,5.842c0.551,1.822,1.492,3.526,2.742,4.962
					c1.201,1.38,4.32,3.359,4.959,5.073C826.71,402.176,826.973,400.254,829.027,400.809z"/>
			</g>
			<path style="fill:#E69525;" d="M871.357,158.029l-0.738,12.064c-0.224,3.656,2.585,6.831,6.241,7.055
				c3.656,0.224,6.831-2.585,7.055-6.241l0.738-12.064L871.357,158.029z"/>
			<path style="fill:#F6F3EE;" d="M870.935,164.923l-0.316,5.171c-0.224,3.656,2.585,6.831,6.241,7.055
				c3.656,0.224,6.831-2.585,7.055-6.241l0.316-5.171L870.935,164.923z"/>
			
				<line style="fill:none;stroke:#15181F;stroke-width:0.6706;stroke-linecap:round;stroke-linejoin:round;stroke-miterlimit:10;" x1="822.477" y1="173.327" x2="823.954" y2="149.193"/>
			<g>
				
					<ellipse transform="matrix(0.3753 -0.9269 0.9269 0.3753 99.1855 885.6898)" style="fill:#D8C6AD;" cx="706.651" cy="369.263" rx="20.706" ry="20.838"/>
				<polygon style="fill:#0F0808;" points="712.123,371.915 712.52,365.433 707.104,361.848 701.292,364.746 700.895,371.228 
					706.311,374.813 				"/>
				<g>
					<defs>
						
							<ellipse id="SVGID_1_" transform="matrix(0.3753 -0.9269 0.9269 0.3753 99.1855 885.6898)" cx="706.651" cy="369.263" rx="20.706" ry="20.838"/>
					</defs>
					<clipPath id="SVGID_00000087412504296562433650000005384996330866035121_">
						<use xlink:href="#SVGID_1_"  style="overflow:visible;"/>
					</clipPath>
					<polygon style="clip-path:url(#SVGID_00000087412504296562433650000005384996330866035121_);fill:#0F0808;" points="
						729.461,385.542 729.857,379.06 724.442,375.475 718.629,378.372 718.232,384.855 723.648,388.44 					"/>
					<polygon style="clip-path:url(#SVGID_00000087412504296562433650000005384996330866035121_);fill:#0F0808;" points="
						713.263,350.034 713.66,343.552 708.244,339.967 702.432,342.865 702.035,349.348 707.451,352.932 					"/>
					<polygon style="clip-path:url(#SVGID_00000087412504296562433650000005384996330866035121_);fill:#0F0808;" points="
						711.023,394.711 711.42,388.229 706.004,384.644 700.192,387.542 699.795,394.024 705.211,397.609 					"/>
					<polygon style="clip-path:url(#SVGID_00000087412504296562433650000005384996330866035121_);fill:#0F0808;" points="
						694.933,358.798 695.33,352.316 689.914,348.731 684.102,351.629 683.705,358.111 689.121,361.696 					"/>
					<polygon style="clip-path:url(#SVGID_00000087412504296562433650000005384996330866035121_);fill:#0F0808;" points="
						729.063,360.682 729.46,354.199 724.044,350.615 718.232,353.512 717.835,359.995 723.251,363.58 					"/>
					<polygon style="clip-path:url(#SVGID_00000087412504296562433650000005384996330866035121_);fill:#0F0808;" points="
						694.571,383.304 694.967,376.821 689.552,373.236 683.739,376.134 683.343,382.616 688.758,386.201 					"/>
				</g>
				
					<line style="fill:none;stroke:#15181F;stroke-width:0.6706;stroke-linecap:round;stroke-linejoin:round;stroke-miterlimit:10;" x1="694.933" y1="358.798" x2="702.155" y2="365.319"/>
				
					<line style="fill:none;stroke:#15181F;stroke-width:0.6706;stroke-linecap:round;stroke-linejoin:round;stroke-miterlimit:10;" x1="711.773" y1="371.691" x2="718.995" y2="378.212"/>
				
					<line style="fill:none;stroke:#15181F;stroke-width:0.6706;stroke-linecap:round;stroke-linejoin:round;stroke-miterlimit:10;" x1="719.255" y1="359" x2="712.075" y2="365.566"/>
				
					<line style="fill:none;stroke:#15181F;stroke-width:0.6706;stroke-linecap:round;stroke-linejoin:round;stroke-miterlimit:10;" x1="701.237" y1="370.748" x2="694.056" y2="377.314"/>
				<path style="fill:#0F0808;" d="M707.685,350.335"/>
				
					<line style="fill:none;stroke:#15181F;stroke-width:0.6706;stroke-linecap:round;stroke-linejoin:round;stroke-miterlimit:10;" x1="707.451" y1="352.932" x2="705.988" y2="386.148"/>
			</g>
			<path style="fill:none;stroke:#F6F3EE;stroke-width:1.9734;stroke-miterlimit:10;" d="M868.184,226.044
				c1.908,22.551-9.606,43.897-25.926,60.197"/>
			<g>
				<defs>
					<path id="SVGID_00000030477256991907202520000007690085202557923498_" d="M884.597,101.737l-4.34,11.019
						c-0.631,1.602-1.532,2.992-2.612,4.133c-2.73,2.884-6.605,4.156-10.182,3.104c-0.367-0.105-0.728-0.238-1.085-0.393
						c-5.248-2.294-7.585-9.132-5.199-15.192l1.373-3.485l0.474-1.202l2.497-6.331c2.265-5.749,7.999-8.815,13.063-7.157
						c0.276,0.09,0.547,0.194,0.816,0.312c4.474,1.958,6.835,7.223,5.949,12.49C885.197,99.941,884.949,100.847,884.597,101.737z"/>
				</defs>
				<clipPath id="SVGID_00000142170224295473616710000009667116098134148005_">
					<use xlink:href="#SVGID_00000030477256991907202520000007690085202557923498_"  style="overflow:visible;"/>
				</clipPath>
				<g style="clip-path:url(#SVGID_00000142170224295473616710000009667116098134148005_);">
					
						<path style="fill:none;stroke:#15181F;stroke-width:1.48;stroke-linecap:round;stroke-linejoin:round;stroke-miterlimit:10;" d="
						M871.651,88.603c2.167-2.185,5.304-3.371,8.375-3.164"/>
					
						<path style="fill:none;stroke:#15181F;stroke-width:1.48;stroke-linecap:round;stroke-linejoin:round;stroke-miterlimit:10;" d="
						M874.26,89.975c2.167-2.185,5.304-3.371,8.375-3.164"/>
					
						<path style="fill:none;stroke:#15181F;stroke-width:1.48;stroke-linecap:round;stroke-linejoin:round;stroke-miterlimit:10;" d="
						M877.632,91.417c2.167-2.185,5.304-3.371,8.375-3.164"/>
					
						<path style="fill:none;stroke:#15181F;stroke-width:1.48;stroke-linecap:round;stroke-linejoin:round;stroke-miterlimit:10;" d="
						M879.988,93.291c2.167-2.185,5.304-3.371,8.375-3.164"/>
					
						<path style="fill:none;stroke:#15181F;stroke-width:1.48;stroke-linecap:round;stroke-linejoin:round;stroke-miterlimit:10;" d="
						M881.315,95.844c2.167-2.185,5.304-3.371,8.375-3.164"/>
					
						<path style="fill:none;stroke:#15181F;stroke-width:1.48;stroke-linecap:round;stroke-linejoin:round;stroke-miterlimit:10;" d="
						M881.104,99.291c2.167-2.185,5.304-3.371,8.375-3.164"/>
					
						<path style="fill:none;stroke:#15181F;stroke-width:1.48;stroke-linecap:round;stroke-linejoin:round;stroke-miterlimit:10;" d="
						M880.893,102.738c2.167-2.185,5.304-3.371,8.375-3.164"/>
					
						<path style="fill:none;stroke:#15181F;stroke-width:1.48;stroke-linecap:round;stroke-linejoin:round;stroke-miterlimit:10;" d="
						M880.989,105.215c2.167-2.185,5.304-3.371,8.375-3.164"/>
				</g>
			</g>
			<path style="fill:#15181F;" d="M866.837,102.251l-2.071-0.53c-0.482-0.123-0.775-0.618-0.652-1.1l0,0
				c0.123-0.482,0.619-0.775,1.101-0.652l2.071,0.53c0.482,0.123,0.775,0.619,0.652,1.101l0,0
				C867.814,102.081,867.319,102.374,866.837,102.251z"/>
			<path style="fill:#15181F;" d="M874.692,104.461l-2.071-0.53c-0.482-0.123-0.775-0.619-0.652-1.1l0,0
				c0.123-0.482,0.619-0.775,1.1-0.652l2.071,0.53c0.482,0.123,0.775,0.619,0.652,1.101l0,0
				C875.67,104.291,875.174,104.585,874.692,104.461z"/>
			<path style="fill:#542413;" d="M863.836,108.061c-0.123,1.377,0.535,2.799,1.665,3.596c1.13,0.797,2.69,0.941,3.946,0.363
				c1.256-0.578,2.163-1.855,2.293-3.232L863.836,108.061z"/>
			
				<path style="fill:none;stroke:#15181F;stroke-width:0.4933;stroke-linecap:round;stroke-linejoin:round;stroke-miterlimit:10;" d="
				M864.681,109.259c1.17,0.889,2.841,1.061,4.168,0.431"/>
			
				<path style="fill:none;stroke:#15181F;stroke-width:0.4933;stroke-linecap:round;stroke-linejoin:round;stroke-miterlimit:10;" d="
				M870.875,106.61"/>
			
				<path style="fill:none;stroke:#15181F;stroke-width:0.4933;stroke-linecap:round;stroke-linejoin:round;stroke-miterlimit:10;" d="
				M869.124,107.068"/>
			
				<path style="fill:none;stroke:#15181F;stroke-width:0.4933;stroke-linecap:round;stroke-linejoin:round;stroke-miterlimit:10;" d="
				M868.389,106.931c-0.009-0.41,0.475-0.669,0.884-0.644c0.41,0.025,0.789,0.225,1.195,0.284c0.406,0.059,0.908-0.101,1.001-0.501
				c0.058-0.25-0.075-0.517-0.277-0.674c-0.203-0.157-0.463-0.221-0.719-0.245"/>
			
				<path style="fill:none;stroke:#15181F;stroke-width:0.4933;stroke-linecap:round;stroke-linejoin:round;stroke-miterlimit:10;" d="
				M866.169,106.779c0.148-0.383-0.22-0.79-0.614-0.906c-0.394-0.116-0.819-0.056-1.221-0.139c-0.402-0.082-0.82-0.403-0.772-0.81
				c0.031-0.255,0.245-0.461,0.49-0.54c0.244-0.079,0.511-0.051,0.759,0.014"/>
			
				<path style="fill:none;stroke:#15181F;stroke-width:0.9867;stroke-linecap:round;stroke-linejoin:round;stroke-miterlimit:10;" d="
				M864.718,96.676c1.083,1.29,2.865,1.955,4.529,1.689"/>
			
				<path style="fill:none;stroke:#15181F;stroke-width:0.9867;stroke-linecap:round;stroke-linejoin:round;stroke-miterlimit:10;" d="
				M872.967,95.728c1.173-0.511,2.536-0.57,3.748-0.162c1.213,0.408,2.263,1.279,2.888,2.395"/>
			
				<path style="fill:none;stroke:#15181F;stroke-width:0.4933;stroke-linecap:round;stroke-linejoin:round;stroke-miterlimit:10;" d="
				M887.383,107.601c-0.616-0.849-1.81-1.225-2.801-0.881c-0.991,0.343-1.696,1.378-1.655,2.425
				c0.951,0.375,1.478,1.446,1.176,2.422c-0.302,0.976-1.417,1.621-2.414,1.395"/>
			
				<path style="fill:none;stroke:#15181F;stroke-width:0.6706;stroke-linecap:round;stroke-linejoin:round;stroke-miterlimit:10;" d="
				M903.222,172.084c-2.956-2.679-5.912-5.358-8.868-8.037"/>
			<path style="fill:#803B1E;" d="M752.529,211.448c-0.89,0.063-1.767,0.234-2.53,0.434c-3.683,0.967-7.407,1.969-10.95,3.386
				c-2.916,1.167-5.74,2.645-8.242,4.531c-1.068,0.805,0.053,2.451,1.203,1.769c1.606-0.952,2.802-1.773,6.127-2.74
				c-1.655,1.864-2.39,4.95-2.318,7.441c0.057,1.951,0.716,3.877,1.845,5.468c0.479,0.675,1.495,0.689,1.932-0.012
				c1.536-2.462,2.325-5.558,2.04-8.385c1.52-0.598,3.517-1.12,5.037-1.719c1.571-0.618,2.602-1.378,4.082-2.189
				c-1.771,2.783-2.578,6.257-2.651,9.555c1.615-2.996,4.24-6.78,6.904-8.511c0.78-0.507,1.482-1.135,2.029-1.886
				C760.038,214.479,756.17,211.193,752.529,211.448z"/>
		</g>
		<path style="fill:#803B1E;" d="M756.076,218.435c0.042,0.87-0.383,1.704-0.945,2.369c-0.562,0.665-1.262,1.197-1.904,1.785
			c-1.729,1.583-3.047,3.607-3.815,5.821c-0.294,0.846-1.512,0.75-1.705-0.124c-0.121-0.552-0.148-1.131-0.091-1.68
			c0.139-1.354,0.668-2.632,1.061-3.935c0.393-1.303,0.648-2.716,0.236-4.014L756.076,218.435z"/>
		
			<path style="fill:none;stroke:#15181F;stroke-width:0.6706;stroke-linecap:round;stroke-linejoin:round;stroke-miterlimit:10;" d="
			M737.386,217.787c4.135,0.603,8.271,1.206,12.406,1.809"/>
	</g>
	<g>
		<g>
			<g>
				<path style="fill:#803B1E;" d="M215.405,272.915c-0.128,5.714-2.066,11.276-4.501,16.396l-8.812-4.232
					c-0.779,2.274-3.82,4.955-5.515,2.09c-1.073-1.815,1.426-5.421,2.209-7.052c-0.098-0.127-0.192-0.264-0.282-0.409
					c-2.235-3.592,0.178-8.337,4.368-8.919C207.475,270.15,213.22,271.002,215.405,272.915z"/>
				
					<polyline style="fill:none;stroke:#15181F;stroke-width:0.4;stroke-linecap:round;stroke-linejoin:round;stroke-miterlimit:10;" points="
					202.027,274.844 199.361,280.393 200.325,274.692 				"/>
			</g>
			<path style="fill:#803B1E;" d="M193.841,263.982c-0.433,0.964-0.967,1.897-1.596,2.795c-3.918,5.58-8.006,11.044-12.153,16.464
				c-0.13,0.168-0.261,0.341-0.391,0.51c-1.538,1.997-3.07,4.001-4.618,5.989c-0.614,0.79-1.235,1.576-1.855,2.359
				c-1.924,2.422-3.808,4.865-5.755,7.274c-0.269,0.338-0.543,0.674-0.817,1.01l-6.654,8.231l-6.756,8.166l-3.384,4.085
				c-0.281,0.343-0.575,0.671-0.837,1.026l-0.764,1.08l-1.524,2.161l-4.311,6.094l-0.002,0.004l-1.798,2.545
				c-4.076,5.761-8.217,11.482-12.351,17.211c-0.469,0.656-0.939,1.312-1.416,1.964c-3.657,5.076-7.39,10.106-11.093,15.158
				c-1.064,1.434-2.126,2.864-3.194,4.297c-2.161,2.903-4.33,5.803-6.511,8.698c-5.272,6.993-10.604,13.948-16.063,20.832
				c-0.976,1.229-2.319,2.065-3.778,2.416c-1.486,0.359-3.096,0.217-4.562-0.516c-1.966-0.983-3.245-2.809-3.614-4.833
				c-0.27-1.426-0.09-2.949,0.607-4.354c2.244-4.513,4.528-9.006,6.841-13.477c1.503-2.905,3.017-5.801,4.543-8.692
				c1.822-3.458,3.656-6.912,5.503-10.36c0.969-1.809,1.941-3.622,2.914-5.429c0.592-1.087,1.184-2.174,1.775-3.261
				c2.818-5.18,5.621-10.371,8.503-15.51c2.709-4.888,5.413-9.777,8.153-14.647c0.758-1.346,1.517-2.693,2.279-4.038l5.282-9.301
				l1.321-2.325c0.439-0.779,0.884-1.55,1.36-2.305l2.806-4.555l5.616-9.108l5.726-9.04c0.299-0.48,0.603-0.962,0.91-1.439
				c1.612-2.529,3.271-5.025,4.895-7.549c1.931-3.001,3.924-5.958,5.902-8.925c0.135-0.205,0.273-0.404,0.408-0.609
				c1.214-1.806,2.433-3.61,3.662-5.405c2.657-3.894,5.358-7.756,8.14-11.562c2.384-3.255,5.707-5.423,9.312-6.381
				c4.615-1.231,9.692-0.488,13.862,2.48c1.35,0.96,2.513,2.089,3.483,3.343C195.648,251.447,196.468,258.196,193.841,263.982z"/>
			<path style="fill:#803B1E;" d="M177.546,333.47l-44.787-46.378v29.355l33.19,29.176c3.487,3.065,8.798,2.723,11.863-0.764
				C180.718,341.554,180.539,336.587,177.546,333.47z"/>
			<path style="fill:#E69525;" d="M177.546,333.47l-20.417-21.142c-3.95,5.033-8.09,9.924-12.019,14.976l20.839,18.318
				c3.487,3.065,8.798,2.723,11.863-0.764C180.718,341.554,180.539,336.587,177.546,333.47z"/>
			<path style="fill:#803B1E;" d="M215.913,105.564c0.29,6.319-4.159,11.854-9.898,12.306c-0.387,0.032-0.774,0.043-1.161,0.021
				c-3.751-0.161-7.018-2.558-8.684-6.061c-0.656-1.386-1.053-2.945-1.129-4.611l-0.548-11.489
				c-0.043-0.924,0.011-1.827,0.161-2.708c0.107-0.613,0.258-1.215,0.451-1.795c1.397-4.245,4.976-7.448,9.286-7.792
				c0.29-0.032,0.591-0.032,0.881-0.032c3.762,0.054,7.093,2.354,8.824,5.803c0.731,1.451,1.182,3.106,1.268,4.879l0.312,6.599
				l0.064,1.257L215.913,105.564z"/>
			<path style="fill:#803B1E;" d="M195.022,106.348c0.38,7.687-2.522,15.483-7.836,21.051c5.266,6.518,13.361,10.33,21.741,10.382
				c1.968,0.012,4.198-0.323,5.331-1.933c-2.197-9.249-2.522-19.269,0.939-28.123C208.688,108.266,201.098,108.741,195.022,106.348z
				"/>
			<path style="fill:#803B1E;" d="M151.634,142.639l3.225,66.87l44.876,12.321l34.132-58.524c6.564-11.255,9.25-17.603-3.369-20.842
				l-54.374-19.784C163.322,119.394,150.997,129.439,151.634,142.639z"/>
			<path style="fill:#72C9C3;" d="M225.887,135.785"/>
			<path style="fill:#803B1E;" d="M248.282,155.66l10.145,62.245l0.237,1.454c0.473,2.902-0.449,5.744-2.236,7.804l-45.147,51.644
				c-1.595,1.819-2.097-0.726-3.916-2.321c-1.519-1.331-1.893-3.484-1.049-5.215l28.543-58.456l-1.999,9.257l-10.146-62.244
				c-1.151-7.06,3.64-13.717,10.7-14.868C240.475,143.809,247.131,148.6,248.282,155.66z"/>
			<path style="fill:#5CAB27;" d="M233.414,144.96c7.06-1.151,13.717,3.64,14.867,10.7l5.843,35.846
				c-7.847,3.968-16.398,6.378-25.139,6.799l-6.272-38.479C221.563,152.767,226.354,146.111,233.414,144.96z"/>
			<g>
				<path style="fill:#803B1E;" d="M78.97,201.998c-4.999,2.77-9.022,7.072-12.423,11.608l7.844,5.834
					c-1.651,1.747-2.611,5.686,0.714,5.854c2.106,0.106,4.136-3.783,5.216-5.234c0.158,0.027,0.323,0.047,0.493,0.059
					c4.219,0.308,7.298-4.034,5.865-8.015C85.105,207.733,81.679,203.043,78.97,201.998z"/>
				
					<polyline style="fill:none;stroke:#15181F;stroke-width:0.4;stroke-linecap:round;stroke-linejoin:round;stroke-miterlimit:10;" points="
					83.482,214.739 79.809,219.679 84.408,216.175 				"/>
			</g>
			<path style="fill:#803B1E;" d="M167.491,118.371l-59.824,19.96l-1.397,0.466c-2.789,0.931-4.877,3.069-5.869,5.608l-24.73,63.983
				c-0.869,2.258,1.618,1.519,3.875,2.388c1.885,0.726,3.964,0.057,5.105-1.497l38.481-52.45l-7.266,6.074l59.824-19.96
				c6.786-2.264,10.451-9.6,8.187-16.386C181.613,119.772,174.277,116.107,167.491,118.371z"/>
			<path style="fill:#803B1E;" d="M137.062,243.125c-5.727,7.14-11.49,14.333-15.794,22.41c-4.304,8.078-7.109,17.186-6.469,26.316
				c0.64,9.131,5.086,18.246,12.8,23.172c9.592-19.644,22.658-38.638,37.087-55.061L137.062,243.125z"/>
			<path style="fill:#5CAB27;" d="M183.877,126.558c-2.264-6.786-9.6-10.451-16.386-8.187l-34.452,11.495
				c0.136,8.792,1.978,17.483,5.669,25.417l36.982-12.339C182.476,140.68,186.141,133.344,183.877,126.558z"/>
			<rect x="141.178" y="287.249" style="fill:#D5821F;" width="0" height="0"/>
			<path style="fill:#5CAB27;" d="M151.632,142.643l-0.924,26.072l-0.514,14.857l-0.004,0.01l-0.418,11.791l-0.558,15.665
				l-0.391,11.082l-0.144,0.355c-0.741,9.44,11.671,16.603,19.246,19.151c11.015,3.705,25.685,5.584,33.151-4.427l0.177-0.436
				l0.242,0.074l3.732-8.488l6.256-14.196l3.757-8.549l6.135-13.927l12.49-28.366c6.567-11.261,16.209-15.178,3.587-18.411
				l-61.326-22.218C163.324,119.397,150.995,129.434,151.632,142.643z"/>
			<path style="fill:#803B1E;" d="M196.795,103.247c0.746,3.119-0.823,6.167-3.504,6.808c-2.681,0.641-5.459-1.367-6.205-4.486
				c-0.746-3.119,0.823-6.167,3.504-6.808C193.271,98.12,196.049,100.128,196.795,103.247z"/>
			<path style="fill:#E69525;" d="M97.257,391.061L75.422,423.37l-32.471-8.646c0,0,12.897-6.57,28.283-5.784l11.431-21.511
				L97.257,391.061z"/>
			<path style="fill:#E69525;" d="M174.473,330.075l22.04,25.846l-16.916,32.481c0,0-7.619-14.786,3.763-28.821l-20.282-16.449
				L174.473,330.075z"/>
			<path style="fill:#E69525;" d="M205.322,224.557c2.309,11.866-0.829,24.274-6.395,35.004
				c-5.566,10.73-13.441,20.06-21.248,29.289l-35.583-14.409c2.294-4.391,4.383-5.83,6.677-10.221l-21.926-7.671
				c7.61-12.038,15.086-24.23,22.696-36.268c8.282,3.47,20.135,4.607,29.083,5.371C186.539,226.327,197.38,224.504,205.322,224.557z
				"/>
			<path style="fill:#E69525;" d="M90.033,372.479c1.822-3.458,3.656-6.912,5.503-10.36c0.969-1.809,1.94-3.622,2.914-5.429
				c0.592-1.087,1.184-2.174,1.775-3.261c2.818-5.18,5.621-10.371,8.503-15.51c2.709-4.888,5.413-9.777,8.153-14.647
				c0.758-1.346,1.517-2.693,2.279-4.038l2.493-4.389c7.819,3.777,14.505,9.868,20.368,16.957l-1.395,1.974
				c-4.076,5.761-8.217,11.482-12.351,17.211c-0.469,0.656-0.939,1.312-1.416,1.965c-3.657,5.076-7.39,10.106-11.093,15.158
				c-1.064,1.434-2.126,2.864-3.194,4.297c-2.161,2.903-4.33,5.803-6.511,8.698c-5.272,6.993-10.603,13.948-16.063,20.832
				c-0.976,1.229-2.319,2.065-3.778,2.416c-1.486,0.359-3.096,0.217-4.562-0.516c-1.966-0.983-3.245-2.809-3.614-4.833
				c-0.27-1.426-0.09-2.949,0.607-4.354c2.244-4.513,4.528-9.006,6.841-13.477C86.993,378.266,88.507,375.37,90.033,372.479z"/>
			<g>
				<g>
					<path style="fill:#0F0808;" d="M75.608,409.466c-1.595-1.461-2.738-3.647-3.525-5.732c-1.47,1.564-3.344,2.73-5.412,3.235
						c-3.053,0.745-6.237,0.157-9.369,0.239c-6.112,0.161-12.134,3.03-16.195,7.716l38.562,9.866l3.396-13.274
						C80.427,412.117,77.727,411.408,75.608,409.466z"/>
					<path style="fill:#0F0808;" d="M75.608,409.466c-1.593-1.459-2.735-3.641-3.521-5.723c-1.473,1.56-3.35,2.722-5.415,3.226
						c-3.053,0.745-6.237,0.157-9.369,0.239c-6.112,0.161-12.134,3.03-16.195,7.716l38.562,9.866l3.396-13.274
						C80.427,412.117,77.727,411.408,75.608,409.466z"/>
					<path style="fill:#0F0808;" d="M41.443,417.234l37.541,9.605c1.068,0.273,2.17-0.394,2.448-1.483l0,0
						c0.279-1.089-0.367-2.203-1.435-2.477l-37.542-9.605c-1.068-0.273-2.17,0.394-2.448,1.483l0,0
						C39.729,415.846,40.375,416.96,41.443,417.234z"/>
					<path style="fill:#0F0808;" d="M75.518,426.42l-0.386,1.585c-0.223,0.915,0.343,1.846,1.258,2.069l0,0
						c0.915,0.223,1.846-0.343,2.069-1.258l0.386-1.584c0.223-0.915-0.343-1.846-1.258-2.069l0,0
						C76.671,424.939,75.74,425.505,75.518,426.42z"/>
					<path style="fill:#0F0808;" d="M71.019,425.304l-0.386,1.584c-0.223,0.915,0.343,1.846,1.258,2.069l0,0
						c0.915,0.223,1.846-0.343,2.069-1.258l0.386-1.584c0.223-0.915-0.343-1.846-1.258-2.069l0,0
						C72.172,423.822,71.242,424.389,71.019,425.304z"/>
					<path style="fill:#0F0808;" d="M66.24,423.598l-0.386,1.584c-0.223,0.915,0.343,1.846,1.258,2.069l0,0
						c0.915,0.223,1.846-0.343,2.069-1.258l0.386-1.584c0.223-0.915-0.343-1.846-1.258-2.069l0,0
						C67.394,422.116,66.463,422.683,66.24,423.598z"/>
					<path style="fill:#0F0808;" d="M53.969,420.931l-0.386,1.584c-0.223,0.915,0.343,1.846,1.258,2.069l0,0
						c0.915,0.223,1.846-0.343,2.069-1.258l0.386-1.585c0.223-0.915-0.343-1.846-1.258-2.069l0,0
						C55.123,419.449,54.192,420.016,53.969,420.931z"/>
					<path style="fill:#0F0808;" d="M48.85,419.837l-0.386,1.584c-0.223,0.915,0.343,1.846,1.258,2.069l0,0
						c0.915,0.223,1.846-0.343,2.069-1.258l0.386-1.584c0.223-0.915-0.343-1.846-1.258-2.069l0,0
						C50.004,418.356,49.073,418.922,48.85,419.837z"/>
					<path style="fill:#0F0808;" d="M43.482,418.411l-0.386,1.584c-0.223,0.915,0.343,1.846,1.258,2.069l0,0
						c0.915,0.223,1.846-0.343,2.069-1.258l0.386-1.584c0.223-0.915-0.343-1.846-1.258-2.069l0,0
						C44.636,416.93,43.705,417.496,43.482,418.411z"/>
					<path style="fill:#0F0808;" d="M38.999,416.565l-0.386,1.585c-0.223,0.915,0.343,1.846,1.258,2.069l0,0
						c0.915,0.223,1.846-0.343,2.069-1.258l0.386-1.585c0.223-0.915-0.343-1.846-1.258-2.069l0,0
						C40.153,415.084,39.222,415.65,38.999,416.565z"/>
				</g>
				<path style="fill:none;stroke:#FFFFFF;stroke-width:0.6623;stroke-miterlimit:10;" d="M52.453,419.782
					c3.848-2.3,8.184-3.79,12.621-4.338c6.309-0.779,13.238,0.186,18.553-3.329"/>
				<path style="fill:#0F0808;" d="M72.584,409.072c2.521-1.086,4.622-3.116,5.796-5.598c1.173-2.482,1.407-5.394,0.646-8.031
					c-0.493-1.706-1.606-3.457-3.351-3.786c-2.004-0.378-3.83,1.282-4.849,3.049c-0.915,1.587-1.49,3.369-1.674,5.192
					c-0.177,1.751,0.49,5.243-0.292,6.82C70.099,408.347,71.621,407.266,72.584,409.072z"/>
			</g>
			<g>
				<g>
					<path style="fill:#0F0808;" d="M182.698,353.286c-1.883,1.27-4.394,1.9-6.715,2.192c1.236,1.884,1.966,4.083,1.974,6.317
						c0.012,3.298-1.37,6.404-2.054,9.621c-1.335,6.278,0.116,13.128,3.904,18.421l19.526-36.937l-12.714-6.721
						C186.586,349.017,185.2,351.599,182.698,353.286z"/>
					<path style="fill:#0F0808;" d="M182.698,353.286c-1.88,1.268-4.386,1.898-6.705,2.19c1.231,1.886,1.957,4.086,1.964,6.318
						c0.012,3.298-1.37,6.404-2.054,9.621c-1.335,6.278,0.116,13.128,3.904,18.421l19.526-36.937l-12.714-6.721
						C186.586,349.017,185.2,351.599,182.698,353.286z"/>
					<path style="fill:#0F0808;" d="M182.247,390.06l19.009-35.96c0.541-1.023,0.13-2.311-0.913-2.862l0,0
						c-1.043-0.551-2.339-0.166-2.88,0.857l-19.01,35.96c-0.541,1.023-0.13,2.311,0.913,2.863l0,0
						C180.41,391.469,181.706,391.083,182.247,390.06z"/>
					<path style="fill:#0F0808;" d="M199.98,357.536l1.523,0.783c0.879,0.452,1.968,0.102,2.42-0.777l0,0
						c0.452-0.879,0.102-1.968-0.777-2.42l-1.522-0.783c-0.879-0.452-1.968-0.102-2.42,0.777l0,0
						C198.751,355.995,199.1,357.084,199.98,357.536z"/>
					<path style="fill:#0F0808;" d="M197.737,361.854l1.522,0.783c0.879,0.452,1.968,0.102,2.42-0.777l0,0
						c0.452-0.879,0.102-1.968-0.777-2.42l-1.522-0.783c-0.879-0.452-1.968-0.102-2.42,0.777l0,0
						C196.508,360.313,196.857,361.402,197.737,361.854z"/>
					<path style="fill:#0F0808;" d="M194.824,366.312l1.522,0.783c0.879,0.452,1.968,0.102,2.42-0.777l0,0
						c0.452-0.879,0.102-1.968-0.777-2.42l-1.522-0.783c-0.879-0.452-1.968-0.102-2.42,0.777l0,0
						C193.595,364.771,193.945,365.86,194.824,366.312z"/>
					<path style="fill:#0F0808;" d="M189.092,378.182l1.522,0.783c0.879,0.452,1.968,0.102,2.42-0.777l0,0
						c0.452-0.879,0.102-1.968-0.777-2.42l-1.522-0.783c-0.879-0.452-1.968-0.102-2.42,0.777l0,0
						C187.863,376.641,188.213,377.73,189.092,378.182z"/>
					<path style="fill:#0F0808;" d="M186.721,383.139l1.522,0.783c0.879,0.452,1.968,0.102,2.42-0.777l0,0
						c0.452-0.879,0.102-1.968-0.777-2.42l-1.522-0.783c-0.879-0.452-1.968-0.102-2.42,0.777l0,0
						C185.492,381.598,185.842,382.687,186.721,383.139z"/>
					<path style="fill:#0F0808;" d="M183.949,388.267l1.522,0.783c0.879,0.452,1.968,0.102,2.42-0.777l0,0
						c0.452-0.879,0.102-1.968-0.777-2.42l-1.522-0.783c-0.879-0.452-1.968-0.102-2.42,0.777l0,0
						C182.72,386.726,183.069,387.815,183.949,388.267z"/>
					<path style="fill:#0F0808;" d="M180.965,392.39l1.522,0.782c0.879,0.452,1.968,0.102,2.42-0.777l0,0
						c0.452-0.879,0.102-1.968-0.777-2.42l-1.523-0.783c-0.879-0.452-1.968-0.102-2.42,0.777l0,0
						C179.736,390.849,180.086,391.938,180.965,392.39z"/>
				</g>
				<path style="fill:none;stroke:#FFFFFF;stroke-width:0.6952;stroke-miterlimit:10;" d="M187.548,379.448
					c-1.404-4.492-1.861-9.283-1.332-13.945c0.752-6.63,3.436-13.465,1.152-19.752"/>
				<path style="fill:#0F0808;" d="M181.555,356.275c-0.49-2.84-2.046-5.482-4.292-7.288c-2.245-1.806-5.16-2.759-8.039-2.629
					c-1.862,0.084-3.923,0.791-4.686,2.492c-0.877,1.953,0.37,4.223,1.922,5.696c1.395,1.323,3.073,2.347,4.889,2.982
					c1.744,0.61,5.471,0.786,6.889,1.97C180.205,358.633,179.474,356.815,181.555,356.275z"/>
			</g>
			
				<line style="fill:none;stroke:#15181F;stroke-width:0.6774;stroke-linecap:round;stroke-linejoin:round;stroke-miterlimit:10;" x1="150.35" y1="171.801" x2="151.841" y2="147.425"/>
			<g>
				
					<ellipse transform="matrix(0.3753 -0.9269 0.9269 0.3753 -329.367 287.5932)" style="fill:#D8C6AD;" cx="48.666" cy="388.136" rx="20.914" ry="21.047"/>
				<polygon style="fill:#0F0808;" points="54.194,390.815 54.594,384.267 49.124,380.646 43.254,383.573 42.853,390.121 
					48.323,393.741 				"/>
				<g>
					<defs>
						
							<ellipse id="SVGID_00000132800046979099719180000004417166167635511959_" transform="matrix(0.3753 -0.9269 0.9269 0.3753 -329.367 287.5932)" cx="48.666" cy="388.136" rx="20.914" ry="21.047"/>
					</defs>
					<clipPath id="SVGID_00000142878675003768454450000015404558856002570905_">
						<use xlink:href="#SVGID_00000132800046979099719180000004417166167635511959_"  style="overflow:visible;"/>
					</clipPath>
					<polygon style="clip-path:url(#SVGID_00000142878675003768454450000015404558856002570905_);fill:#0F0808;" points="
						71.705,404.578 72.105,398.03 66.635,394.41 60.765,397.336 60.364,403.884 65.834,407.505 					"/>
					<polygon style="clip-path:url(#SVGID_00000142878675003768454450000015404558856002570905_);fill:#0F0808;" points="
						55.345,368.714 55.745,362.167 50.275,358.546 44.405,361.473 44.004,368.021 49.474,371.641 					"/>
					<polygon style="clip-path:url(#SVGID_00000142878675003768454450000015404558856002570905_);fill:#0F0808;" points="
						53.083,413.839 53.483,407.292 48.013,403.671 42.143,406.598 41.742,413.145 47.212,416.766 					"/>
					<polygon style="clip-path:url(#SVGID_00000142878675003768454450000015404558856002570905_);fill:#0F0808;" points="
						36.831,377.566 37.232,371.018 31.762,367.398 25.891,370.325 25.49,376.872 30.96,380.493 					"/>
					<polygon style="clip-path:url(#SVGID_00000142878675003768454450000015404558856002570905_);fill:#0F0808;" points="
						71.303,379.469 71.704,372.921 66.234,369.3 60.363,372.227 59.963,378.775 65.433,382.396 					"/>
					<polygon style="clip-path:url(#SVGID_00000142878675003768454450000015404558856002570905_);fill:#0F0808;" points="
						36.465,402.317 36.866,395.77 31.396,392.149 25.525,395.076 25.124,401.623 30.594,405.244 					"/>
				</g>
				
					<line style="fill:none;stroke:#15181F;stroke-width:0.6774;stroke-linecap:round;stroke-linejoin:round;stroke-miterlimit:10;" x1="36.831" y1="377.566" x2="44.125" y2="384.152"/>
				
					<line style="fill:none;stroke:#15181F;stroke-width:0.6774;stroke-linecap:round;stroke-linejoin:round;stroke-miterlimit:10;" x1="53.84" y1="390.588" x2="61.134" y2="397.175"/>
				
					<line style="fill:none;stroke:#15181F;stroke-width:0.6774;stroke-linecap:round;stroke-linejoin:round;stroke-miterlimit:10;" x1="61.397" y1="377.769" x2="54.144" y2="384.401"/>
				
					<line style="fill:none;stroke:#15181F;stroke-width:0.6774;stroke-linecap:round;stroke-linejoin:round;stroke-miterlimit:10;" x1="43.198" y1="389.635" x2="35.945" y2="396.268"/>
				<path style="fill:#0F0808;" d="M49.71,369.018"/>
				
					<line style="fill:none;stroke:#15181F;stroke-width:0.6774;stroke-linecap:round;stroke-linejoin:round;stroke-miterlimit:10;" x1="49.474" y1="371.641" x2="47.996" y2="405.19"/>
			</g>
			<path style="fill:none;stroke:#F6F3EE;stroke-width:1.9932;stroke-miterlimit:10;" d="M196.515,225.047
				c1.927,22.777-9.702,44.337-26.185,60.801"/>
			<path style="fill:#15181F;" d="M211.379,102.253l2.159-0.044c0.502-0.01,0.905-0.43,0.895-0.932l0,0
				c-0.01-0.502-0.43-0.905-0.932-0.895l-2.159,0.044c-0.502,0.01-0.905,0.43-0.895,0.932l0,0
				C210.457,101.861,210.877,102.263,211.379,102.253z"/>
			<path style="fill:#15181F;" d="M203.145,102.618l2.159-0.045c0.502-0.01,0.905-0.43,0.895-0.932l0,0
				c-0.01-0.502-0.43-0.905-0.932-0.895l-2.159,0.045c-0.502,0.01-0.905,0.43-0.895,0.932l0,0
				C202.223,102.226,202.642,102.629,203.145,102.618z"/>
			
				<path style="fill:none;stroke:#15181F;stroke-width:0.4983;stroke-linecap:round;stroke-linejoin:round;stroke-miterlimit:10;" d="
				M205.714,105.742"/>
			
				<path style="fill:none;stroke:#15181F;stroke-width:0.4983;stroke-linecap:round;stroke-linejoin:round;stroke-miterlimit:10;" d="
				M207.158,106.863"/>
			
				<path style="fill:none;stroke:#15181F;stroke-width:0.4983;stroke-linecap:round;stroke-linejoin:round;stroke-miterlimit:10;" d="
				M189.905,100.935c0.866-0.609,2.13-0.577,2.964,0.076s1.169,1.872,0.786,2.859c-1.031,0.047-1.886,0.897-1.918,1.929
				c-0.032,1.032,0.823,2.014,1.849,2.124"/>
			<path style="fill:none;stroke:#0F0808;stroke-width:0.7826;stroke-miterlimit:10;" d="M153.498,228.635
				c-1.364,7.389,1.012,15.372,6.194,20.814l-10.92,14.771"/>
			<path style="fill:#15181F;" d="M208.857,119.648L208.857,119.648c-2.734,0-4.971-2.237-4.971-4.971v-4.433
				c0-2.734,2.237-4.971,4.971-4.971l0,0c2.734,0,4.971,2.237,4.971,4.971v4.433C213.828,117.411,211.591,119.648,208.857,119.648z"
				/>
			<path style="fill:#803B1E;" d="M209.663,115.555L209.663,115.555c-1.586,0-2.883-1.297-2.883-2.883V110.1
				c0-1.586,1.297-2.883,2.883-2.883l0,0c1.586,0,2.883,1.297,2.883,2.883v2.571C212.546,114.257,211.249,115.555,209.663,115.555z"
				/>
			<path style="fill:#F6F3EE;" d="M207.114,108.595c0,0.013-0.004,0.024-0.004,0.037c0,1.335,1.083,2.418,2.418,2.418
				s2.418-1.083,2.418-2.418c0-0.013-0.003-0.025-0.004-0.037H207.114z"/>
			
				<path style="fill:none;stroke:#15181F;stroke-width:0.4983;stroke-linecap:round;stroke-linejoin:round;stroke-miterlimit:10;" d="
				M206.863,104.048c0.628,0.794,1.638,1.272,2.65,1.254c1.013-0.017,2.005-0.53,2.606-1.345"/>
			<path style="fill:#FFCA8A;" d="M214.096,89.206c-0.129-0.054-0.247-0.118-0.355-0.183c-1.043,2.193-3.729,3.278-6.137,2.934
				c-2.397-0.344-4.557-1.913-6.137-3.751c-1.698,1.687-3.987,2.751-6.362,3.02c1.397-4.245,4.976-7.448,9.286-7.792
				c0.29-0.032,0.591-0.032,0.881-0.032C209.034,83.457,212.366,85.757,214.096,89.206z"/>
			
				<path style="fill:none;stroke:#15181F;stroke-width:0.4983;stroke-linecap:round;stroke-linejoin:round;stroke-miterlimit:10;" d="
				M196.911,108.625c2.362,3.43,5.166,6.555,8.322,9.273"/>
			<path style="fill:#FFFFFF;" d="M212.694,174.076L212.694,174.076c-3.458-1.071-5.412-4.777-4.341-8.235l2.941-9.496
				c1.071-3.458,4.777-5.412,8.235-4.341l0,0c3.458,1.071,5.412,4.777,4.341,8.235l-2.941,9.496
				C219.858,173.194,216.152,175.147,212.694,174.076z"/>
			<path style="fill:#E69525;" d="M222.942,163.236l0.928-2.997c1.071-3.458-0.882-7.164-4.341-8.235
				c-3.458-1.071-7.164,0.882-8.235,4.341l-0.307,0.993C215.011,159.223,218.982,161.218,222.942,163.236z"/>
		</g>
	</g>
	<g>
		<g>
			<path style="fill:#DB6534;" d="M642,119.349l48.326,36.565l-9.085-0.831l61.849-21.911c2.423-0.858,5.082,0.41,5.94,2.832
				c0.781,2.205-0.201,4.606-2.21,5.667l-57.998,30.688c-2.641,1.398-5.699,1.211-8.085-0.224l-1-0.607l-51.851-31.368
				c-5.949-3.599-7.854-11.34-4.255-17.289c3.599-5.949,11.34-7.854,17.289-4.256C641.292,118.842,641.66,119.093,642,119.349z"/>
			<path style="fill:#E69525;" d="M733.152,136.694l-46.47,16.463L642,119.349c-0.34-0.256-0.708-0.507-1.08-0.732
				c-5.949-3.599-13.69-1.694-17.289,4.256c-3.599,5.949-1.694,13.69,4.255,17.289l51.851,31.368l1,0.607
				c2.386,1.435,5.444,1.621,8.085,0.224l44.329-23.455V136.694z"/>
			<path style="fill:#DB6534;" d="M583.682,134.859l-59.086,13.464l8.623,2.978l-47.372-45.402c-1.855-1.778-4.801-1.716-6.579,0.14
				c-1.618,1.689-1.711,4.281-0.315,6.074l40.252,51.82c1.833,2.36,4.697,3.447,7.462,3.12l1.161-0.142l60.162-7.276
				c6.903-0.835,11.822-7.108,10.987-14.011c-0.835-6.903-7.108-11.822-14.01-10.987
				C584.536,134.688,584.097,134.766,583.682,134.859z"/>
			<path style="fill:#E69525;" d="M598.978,145.623c-0.835-6.903-7.108-11.822-14.011-10.987c-0.432,0.052-0.87,0.13-1.286,0.223
				l-54.63,12.448l-33.127-31.75l-6.335,10.249c0,0,29.536,38.024,29.617,38.128c5.026,6.468,15.005,3.885,21.912,3.323
				c5.773-0.469,11.568-0.753,17.348-1.129c9.273-0.604,18.741-0.704,27.969-1.821C593.338,163.472,599.812,152.526,598.978,145.623
				z"/>
			<path style="fill:#E69525;" d="M647.279,136.062c0.192,0.858,0.328,1.737,0.408,2.643l3.417,11.866l10.973,55.219l-13.642,2.096
				l-0.004,0.002l-0.015,0.003l-5.825,2.488l-0.017,0.01l-13.479,5.757l-18.512,7.908l-1.418-1.814l-0.002-0.004l-0.275-0.354
				l-4.521-5.779l-14.609-18.678l-0.004,0.002l-21.096-26.974c-0.485-0.623-0.926-1.256-1.324-1.912l-0.003-0.004
				c-5.56-9.106-2.753-20.994,6.051-26.732l0.004-0.002c0.584-0.379,1.197-0.736,1.839-1.054c0.124-0.066,0.246-0.124,0.372-0.186
				c0.179-0.086,0.358-0.172,0.539-0.254c0.205-0.089,0.405-0.177,0.612-0.262l10.261-4.186l2.45-0.998l19.801-8.068l2.435-0.995
				l6.559-2.675l2.346-0.955c0.362-0.146,0.728-0.284,1.089-0.401c0.004-0.002,0.004-0.002,0.008-0.005
				C632.843,117.947,644.748,124.774,647.279,136.062z"/>
			<path style="fill:#72C9C3;" d="M578.452,139.878"/>
			<g>
				<path style="fill:#DB6534;" d="M741.966,134.993c-0.649-2.055-1.305-4.181-1.089-6.325c0.216-2.144,1.538-4.331,3.625-4.869
					c2.148-0.553,4.489,0.897,5.349,2.941c1.074-0.9,2.264-1.35,3.338-2.25c0.887-0.744,1.799-1.502,2.889-1.89
					c1.09-0.388,2.414-0.335,3.28,0.433c0.866,0.768,0.986,2.342,0.055,3.03c1.94,1.809,3.794,4.419,5.421,6.514
					c-6.503,5.586-13.955,9.579-22.457,10.675L741.966,134.993z"/>
				
					<path style="fill:none;stroke:#472A1C;stroke-width:0.8323;stroke-linecap:round;stroke-linejoin:round;stroke-miterlimit:10;" d="
					M747.475,137.416c1.509-2.031,1.158-5.205-0.757-6.857c0.975,1.266,2.074,2.435,3.278,3.486
					c1.107,0.965,2.825,1.827,3.925,0.854c0.191-0.169,0.344-0.391,0.383-0.643c0.063-0.405-0.174-0.79-0.401-1.132
					c-1.397-2.105-2.793-4.21-4.19-6.314"/>
			</g>
			<g>
				<path style="fill:#DB6534;" d="M487.836,109.337c1.703-1.322,3.452-2.696,4.494-4.583c1.042-1.887,1.198-4.437-0.213-6.067
					c-1.452-1.677-4.202-1.815-6.072-0.623c-0.371-1.351-1.094-2.398-1.465-3.749c-0.306-1.116-0.625-2.259-1.301-3.198
					c-0.676-0.939-1.795-1.648-2.944-1.509c-1.149,0.139-2.143,1.366-1.769,2.461c-2.624,0.385-5.634,1.477-8.163,2.275
					c2.172,8.293,6.03,15.815,12.399,21.553L487.836,109.337z"/>
				
					<path style="fill:none;stroke:#472A1C;stroke-width:0.8323;stroke-linecap:round;stroke-linejoin:round;stroke-miterlimit:10;" d="
					M481.927,108.197c-0.086-2.528,2.008-4.94,4.523-5.21c-1.522,0.487-3.091,0.824-4.679,1.003
					c-1.459,0.165-3.363-0.104-3.714-1.53c-0.061-0.247-0.061-0.518,0.051-0.747c0.179-0.369,0.593-0.551,0.974-0.703
					c2.346-0.937,4.692-1.874,7.038-2.811"/>
			</g>
			<path style="fill:#DB6534;" d="M648.16,236.35c-1.471-4.572-5.047-8.467-9.543-10.192c-5.289-2.029-11.335-0.937-15.782,2.476
				c-4.416,3.389-6.116,8.917-7.61,14.048c-4.585,15.747-9.169,31.493-13.754,47.24c-1.507,5.176-3.16,10.679-2.434,16.127
				c1.047,7.86,6.005,14.52,12.562,18.776c14.528-2.028,16.125-23.23,21.182-36.524c4.29-11.28,8.581-22.559,12.871-33.839
				c1.895-4.983,3.824-10.228,3.103-15.51C648.633,238.068,648.432,237.197,648.16,236.35z"/>
			<path style="fill:#DB6534;" d="M677.412,235.288c-0.731-2.19-1.926-4.145-3.458-5.761c-1.372-1.451-3.017-2.628-4.834-3.464
				c-2.5-1.146-5.334-1.642-8.26-1.299c-1.922,0.224-3.719,0.791-5.335,1.633c-5.576,2.884-9.063,9.008-8.29,15.611
				c0.749,6.406,1.708,12.792,2.727,19.17c0.424,2.634,8.745,37.277,11.66,49.47c-3.105,7.073,2.847,17.039,5.185,17.713
				l5.069,2.708c5.274-1.8,9.029-6.74,10.649-12.072c2.16-7.111,1.026-14.962,0.57-22.258c-0.001-0.018-1.224-19.581-1.224-19.581
				c-0.205-3.268-1.21-15.135-1.46-17.809c-0.053-0.586-0.11-1.168-0.163-1.75c-0.138-1.476-0.28-2.948-0.431-4.423
				c-0.503-5.038-1.066-10.066-1.748-15.082C677.935,237.122,677.713,236.182,677.412,235.288z"/>
			<path style="fill:#DB6534;" d="M617.924,124.127c-6.24,7.521-16.571,10.992-26.282,9.845c-0.124-0.01-0.248-0.021-0.372-0.041
				c1.498-8.006,0.713-16.406-2.18-24.019c-0.145-0.393-0.289-0.775-0.454-1.157c-0.599-1.467-1.281-2.903-2.046-4.298
				c0.754,0.176,1.612,0.289,2.542,0.362c3.822,0.269,8.73-0.269,11.87-0.899c1.136,2.025,2.335,3.998,3.605,5.899
				c0.083,0.124,0.176,0.258,0.258,0.382c1.364,2.015,2.81,3.936,4.37,5.765c2.376,2.789,5,5.341,7.955,7.593
				C617.428,123.765,617.676,123.941,617.924,124.127z"/>
			<path style="fill:#2E364C;" d="M604.484,216.402c-6.602,14.556-5.748,37.114-1.001,52.246c11.982,4.599,26.76,6.772,39.117,3.771
				c1.031-5.658,3.229-11.397,4.259-17.056c1.273,5.286,2.462,11.291,3.734,16.577c14.128-1.118,27.386-8.95,33.684-22.002
				c-3.918-18.404-13.385-33.398-23.216-46.833C661.062,203.106,604.484,216.402,604.484,216.402z"/>
			<path style="fill:#DB6534;" d="M589.301,105.421c0.451,2.435-1.096,4.762-3.455,5.199s-4.636-1.183-5.086-3.618
				c-0.451-2.435,1.096-4.762,3.455-5.199C586.573,101.367,588.851,102.986,589.301,105.421z"/>
			<g>
				<path style="fill:#DB6534;" d="M605.526,108.961c-0.196,0.434-0.413,0.847-0.661,1.24c-0.919,1.457-2.221,2.655-3.853,3.42
					c-0.568,0.269-1.147,0.465-1.736,0.599c-3.812,0.899-7.914-0.826-10.186-4.308c-0.207-0.32-0.392-0.651-0.568-1.002
					c-0.072-0.134-0.134-0.269-0.196-0.403l-3.048-6.757l-1.064-2.366c-0.186-0.413-0.341-0.826-0.465-1.24
					c-1.446-4.721,0.599-9.866,4.938-11.891c1.219-0.568,2.5-0.837,3.771-0.837c1.601,0,3.192,0.424,4.608,1.219
					c1.818,1.012,3.358,2.634,4.308,4.731l4.112,9.122C606.745,103.3,606.673,106.399,605.526,108.961z"/>
				<path style="fill:#2D1A14;" d="M599.241,92.524l-2.729,1.651c-0.385,0.233-0.862,0.157-1.059-0.169l0,0
					c-0.197-0.326-0.043-0.784,0.342-1.017l2.729-1.651c0.385-0.233,0.862-0.157,1.059,0.169l0,0
					C599.78,91.834,599.626,92.291,599.241,92.524z"/>
				<path style="fill:#2D1A14;" d="M593.424,95.86l-2.729,1.651c-0.385,0.233-0.862,0.157-1.059-0.169l0,0
					c-0.197-0.326-0.043-0.784,0.342-1.017l2.729-1.651c0.385-0.233,0.862-0.157,1.06,0.169l0,0
					C593.963,95.17,593.809,95.627,593.424,95.86z"/>
				
					<polyline style="fill:none;stroke:#472A1C;stroke-width:0.3059;stroke-linecap:round;stroke-linejoin:round;stroke-miterlimit:10;" points="
					595.324,99.368 597.999,99.449 594.861,93.842 				"/>
				<path style="fill:#FFFFFF;" d="M595.577,102.478c0.036,0.145,0.083,0.289,0.148,0.429c0.557,1.207,1.988,1.734,3.195,1.177
					c1.207-0.557,1.734-1.988,1.177-3.195c-0.065-0.141-0.144-0.27-0.231-0.391L595.577,102.478z"/>
				<path style="fill:#2D1A14;" d="M593.336,98.672l-1.605,0.832c-0.378,0.196-0.848,0.047-1.044-0.332l0,0
					c-0.196-0.378-0.047-0.848,0.332-1.044l1.605-0.832c0.378-0.196,0.848-0.047,1.044,0.332l0,0
					C593.864,98.006,593.714,98.476,593.336,98.672z"/>
				<path style="fill:#2D1A14;" d="M599.707,95.572l-1.605,0.832c-0.378,0.196-0.848,0.047-1.044-0.332l0,0
					c-0.196-0.378-0.047-0.848,0.332-1.044l1.605-0.832c0.378-0.196,0.848-0.047,1.044,0.332l0,0
					C600.234,94.906,600.085,95.376,599.707,95.572z"/>
			</g>
			<path style="fill:#D8C6AD;" d="M599.653,297.496c-12.216-1.903-19.562-0.083-36.975,1.253
				c-12.788,0.981-37.568,4.178-41.33,4.499l-1.528,12.888c10.55,1.251,73.196,6.992,91.967,8.651
				C607.146,315.984,603.49,306.688,599.653,297.496z"/>
			<g>
				<g>
					<path style="fill:#FFFFFF;" d="M525.139,308.103c-1.12,2.181-1.475,4.953-1.491,7.478c-2.178-1.084-4.628-1.586-7.024-1.308
						c-3.537,0.409-6.69,2.287-10.051,3.432c-6.559,2.234-14.088,1.554-20.247-1.828l37.099-25.657l8.832,12.77
						C529.219,303.389,526.628,305.205,525.139,308.103z"/>
					<path style="fill:#1C0F0A;" d="M525.139,308.103c-1.119,2.177-1.474,4.945-1.491,7.467c-2.179-1.078-4.631-1.575-7.024-1.298
						c-3.537,0.409-6.69,2.287-10.051,3.432c-6.559,2.234-14.088,1.554-20.247-1.828l37.099-25.657l8.832,12.77
						C529.219,303.389,526.628,305.205,525.139,308.103z"/>
					<path style="fill:#1C0F0A;" d="M485.775,313.291l36.117-24.978c1.028-0.711,2.461-0.435,3.185,0.613l0,0
						c0.724,1.048,0.477,2.486-0.551,3.197L488.409,317.1c-1.028,0.711-2.461,0.435-3.185-0.613l0,0
						C484.499,315.44,484.747,314.001,485.775,313.291z"/>
					<path style="fill:#1C0F0A;" d="M514.031,293.077l-1.034-1.532c-0.597-0.885-0.361-2.097,0.523-2.694l0,0
						c0.885-0.597,2.097-0.362,2.694,0.523l1.034,1.532c0.597,0.885,0.361,2.097-0.523,2.694l0,0
						C515.84,294.198,514.628,293.962,514.031,293.077z"/>
					<path style="fill:#1C0F0A;" d="M519.265,290.343l-1.034-1.532c-0.597-0.885-0.362-2.097,0.523-2.694l0,0
						c0.885-0.597,2.097-0.361,2.694,0.523l1.033,1.532c0.597,0.885,0.361,2.097-0.523,2.694l0,0
						C521.074,291.464,519.862,291.228,519.265,290.343z"/>
					<path style="fill:#1C0F0A;" d="M509.625,296.77l-1.034-1.532c-0.597-0.885-0.361-2.097,0.523-2.694l0,0
						c0.885-0.597,2.097-0.362,2.694,0.523l1.033,1.532c0.597,0.885,0.361,2.097-0.523,2.694l0,0
						C511.434,297.891,510.221,297.655,509.625,296.77z"/>
					<path style="fill:#1C0F0A;" d="M497.633,304.433l-1.034-1.532c-0.597-0.885-0.361-2.097,0.523-2.694l0,0
						c0.885-0.597,2.097-0.361,2.694,0.523l1.034,1.532c0.597,0.885,0.361,2.097-0.523,2.694l0,0
						C499.442,305.553,498.23,305.318,497.633,304.433z"/>
					<path style="fill:#1C0F0A;" d="M492.623,307.609l-1.034-1.532c-0.597-0.884-0.361-2.097,0.523-2.694l0,0
						c0.885-0.597,2.097-0.362,2.694,0.523l1.034,1.532c0.597,0.885,0.361,2.097-0.523,2.694l0,0
						C494.432,308.729,493.219,308.494,492.623,307.609z"/>
					<path style="fill:#1C0F0A;" d="M487.479,311.237l-1.034-1.532c-0.597-0.885-0.361-2.097,0.523-2.694l0,0
						c0.885-0.597,2.097-0.362,2.694,0.523l1.034,1.532c0.597,0.885,0.361,2.097-0.523,2.694l0,0
						C489.289,312.357,488.076,312.122,487.479,311.237z"/>
					<path style="fill:#1C0F0A;" d="M483.441,314.962l-1.033-1.532c-0.597-0.885-0.361-2.097,0.523-2.694l0,0
						c0.885-0.597,2.097-0.362,2.694,0.523l1.034,1.532c0.597,0.885,0.361,2.097-0.523,2.694l0,0
						C485.25,316.083,484.038,315.847,483.441,314.962z"/>
				</g>
				<path style="fill:none;stroke:#FFFFFF;stroke-width:0.7505;stroke-miterlimit:10;" d="M496.474,306.251
					c4.995,0.93,10.189,0.808,15.12-0.356c7.012-1.655,13.995-5.406,21.027-3.761"/>
				<path style="fill:#1C0F0A;" d="M522.081,309.711c3.107,0.162,6.138,1.493,8.362,3.669c2.223,2.176,3.618,5.179,3.847,8.281
					c0.148,2.007-0.346,4.306-2.072,5.342c-1.981,1.19-4.575,0.144-6.352-1.332c-1.597-1.326-2.909-2.994-3.822-4.859
					c-0.877-1.792-1.542-5.764-2.993-7.133C519.726,311.46,521.768,312.01,522.081,309.711z"/>
			</g>
			<path style="fill:#D8C6AD;" d="M661.392,309.212c-16.291,6.89-23.946,15.026-39.975,29.691
				c-9.462,8.657-33.97,32.601-36.733,35.173l8.863,7.905c8.77-5.333,62.697-40.2,80.92-52.087
				C667.903,325.416,663.001,317.001,661.392,309.212z"/>
			<g>
				<g>
					<path style="fill:#1C0F0A;" d="M596.305,371.319c0.463,2.408,1.893,4.809,3.438,6.807c-2.383,0.49-4.621,1.605-6.336,3.301
						c-2.532,2.504-3.856,5.926-5.796,8.9c-3.786,5.803-10.132,9.911-17.067,11.046l13.386-43.075l14.827,4.608
						C596.609,365.093,595.69,368.121,596.305,371.319z"/>
					<path style="fill:#1C0F0A;" d="M596.305,371.319c0.462,2.404,1.889,4.802,3.431,6.798c-2.38,0.495-4.617,1.616-6.33,3.31
						c-2.532,2.504-3.856,5.926-5.796,8.9c-3.786,5.803-10.132,9.911-17.067,11.046l13.386-43.075l14.827,4.608
						C596.609,365.093,595.69,368.121,596.305,371.319z"/>
					<path style="fill:#1C0F0A;" d="M568.514,399.677l13.032-41.935c0.371-1.193,1.669-1.86,2.885-1.482l0,0
						c1.216,0.378,1.908,1.663,1.537,2.856l-13.032,41.935c-0.371,1.193-1.669,1.86-2.886,1.482l0,0
						C568.834,402.155,568.143,400.87,568.514,399.677z"/>
					<path style="fill:#1C0F0A;" d="M578.294,366.34l-1.758-0.569c-1.016-0.328-1.578-1.428-1.249-2.443l0,0
						c0.328-1.015,1.428-1.578,2.443-1.249l1.758,0.569c1.016,0.328,1.578,1.428,1.249,2.443l0,0
						C580.409,366.107,579.31,366.669,578.294,366.34z"/>
					<path style="fill:#1C0F0A;" d="M580.323,360.595l-1.758-0.569c-1.015-0.328-1.577-1.428-1.249-2.443l0,0
						c0.328-1.015,1.428-1.578,2.443-1.249l1.758,0.569c1.016,0.328,1.577,1.428,1.249,2.443l0,0
						C582.438,360.361,581.338,360.923,580.323,360.595z"/>
					<path style="fill:#1C0F0A;" d="M577.102,371.965l-1.758-0.569c-1.015-0.328-1.577-1.428-1.249-2.443l0,0
						c0.328-1.016,1.428-1.578,2.443-1.249l1.758,0.569c1.015,0.328,1.578,1.428,1.249,2.443l0,0
						C579.217,371.731,578.118,372.293,577.102,371.965z"/>
					<path style="fill:#1C0F0A;" d="M572.387,385.392l-1.758-0.569c-1.015-0.328-1.577-1.428-1.249-2.444l0,0
						c0.328-1.015,1.428-1.577,2.443-1.249l1.758,0.569c1.015,0.328,1.577,1.428,1.249,2.443l0,0
						C574.502,385.158,573.402,385.72,572.387,385.392z"/>
					<path style="fill:#1C0F0A;" d="M570.401,390.982l-1.758-0.569c-1.015-0.328-1.577-1.428-1.249-2.443l0,0
						c0.328-1.015,1.428-1.577,2.443-1.249l1.758,0.569c1.015,0.328,1.577,1.428,1.249,2.443l0,0
						C572.516,390.748,571.416,391.31,570.401,390.982z"/>
					<path style="fill:#1C0F0A;" d="M568.589,397.009l-1.758-0.569c-1.015-0.328-1.578-1.428-1.249-2.443l0,0
						c0.328-1.015,1.428-1.578,2.443-1.249l1.758,0.569c1.015,0.328,1.578,1.428,1.249,2.443l0,0
						C570.704,396.776,569.605,397.337,568.589,397.009z"/>
					<path style="fill:#1C0F0A;" d="M567.707,402.432l-1.758-0.569c-1.015-0.328-1.578-1.428-1.249-2.443l0,0
						c0.328-1.016,1.428-1.578,2.443-1.249l1.758,0.569c1.015,0.328,1.577,1.428,1.249,2.443l0,0
						C569.822,402.199,568.722,402.761,567.707,402.432z"/>
				</g>
				<path style="fill:none;stroke:#FFFFFF;stroke-width:0.7505;stroke-miterlimit:10;" d="M572.595,387.538
					c4.506-2.348,8.52-5.647,11.684-9.603c4.499-5.626,7.684-12.886,14.234-15.927"/>
				<path style="fill:#1C0F0A;" d="M594.889,374.471c2.546-1.788,5.753-2.61,8.845-2.268c3.092,0.342,6.042,1.846,8.135,4.147
					c1.354,1.489,2.383,3.604,1.663,5.483c-0.826,2.158-3.513,2.934-5.823,2.868c-2.075-0.059-4.137-0.563-6.005-1.469
					c-1.795-0.87-4.768-3.587-6.755-3.77C594.113,377.3,596.06,376.474,594.889,374.471z"/>
			</g>
			<g>
				
					<ellipse transform="matrix(0.1401 -0.9901 0.9901 0.1401 470.8218 722.7124)" style="fill:#D8C6AD;" cx="651.512" cy="90.281" rx="20.717" ry="20.849"/>
				<polygon style="fill:#0F0808;" points="657.466,91.533 656.284,85.143 650.159,82.972 645.217,87.191 646.399,93.581 
					652.524,95.752 				"/>
				<g>
					<defs>
						
							<ellipse id="SVGID_00000181798292572600588290000003393628525162915212_" transform="matrix(0.1401 -0.9901 0.9901 0.1401 470.8218 722.7124)" cx="651.512" cy="90.281" rx="20.717" ry="20.849"/>
					</defs>
					<clipPath id="SVGID_00000023251118582152683900000011867590417977272205_">
						<use xlink:href="#SVGID_00000181798292572600588290000003393628525162915212_"  style="overflow:visible;"/>
					</clipPath>
					<polygon style="clip-path:url(#SVGID_00000023251118582152683900000011867590417977272205_);fill:#0F0808;" points="
						677.594,100.57 676.411,94.18 670.286,92.009 665.344,96.228 666.527,102.618 672.651,104.789 					"/>
					<polygon style="clip-path:url(#SVGID_00000023251118582152683900000011867590417977272205_);fill:#0F0808;" points="
						653.281,70.014 652.098,63.624 645.974,61.453 641.031,65.673 642.214,72.062 648.339,74.233 					"/>
					<polygon style="clip-path:url(#SVGID_00000023251118582152683900000011867590417977272205_);fill:#0F0808;" points="
						661.911,113.93 660.729,107.541 654.604,105.37 649.661,109.589 650.844,115.979 656.969,118.149 					"/>
					<polygon style="clip-path:url(#SVGID_00000023251118582152683900000011867590417977272205_);fill:#0F0808;" points="
						637.605,82.955 636.422,76.565 630.297,74.395 625.355,78.614 626.537,85.003 632.662,87.174 					"/>
					<polygon style="clip-path:url(#SVGID_00000023251118582152683900000011867590417977272205_);fill:#0F0808;" points="
						671.196,76.53 670.013,70.14 663.888,67.97 658.946,72.189 660.129,78.578 666.254,80.749 					"/>
					<polygon style="clip-path:url(#SVGID_00000023251118582152683900000011867590417977272205_);fill:#0F0808;" points="
						643.179,106.834 641.997,100.444 635.872,98.274 630.929,102.493 632.112,108.882 638.237,111.053 					"/>
				</g>
				
					<line style="fill:none;stroke:#15181F;stroke-width:0.671;stroke-linecap:round;stroke-linejoin:round;stroke-miterlimit:10;" x1="637.605" y1="82.955" x2="646.193" y2="87.54"/>
				
					<line style="fill:none;stroke:#15181F;stroke-width:0.671;stroke-linecap:round;stroke-linejoin:round;stroke-miterlimit:10;" x1="657.072" y1="91.4" x2="665.66" y2="95.984"/>
				
					<line style="fill:none;stroke:#15181F;stroke-width:0.671;stroke-linecap:round;stroke-linejoin:round;stroke-miterlimit:10;" x1="661.266" y1="77.268" x2="655.883" y2="85.38"/>
				
					<line style="fill:none;stroke:#15181F;stroke-width:0.671;stroke-linecap:round;stroke-linejoin:round;stroke-miterlimit:10;" x1="646.614" y1="93.032" x2="641.231" y2="101.144"/>
				<path style="fill:#0F0808;" d="M647.938,71.655"/>
				
					<line style="fill:none;stroke:#15181F;stroke-width:0.671;stroke-linecap:round;stroke-linejoin:round;stroke-miterlimit:10;" x1="648.339" y1="74.233" x2="654.951" y2="106.835"/>
			</g>
			<path style="fill:#2D1A14;" d="M583.688,98.163c-1.407-1.875-2.757-3.156-3.263-5.445c-0.161-0.727-0.036-1.813,0.258-2.497
				c0.295-0.684,0.775-1.377,2.021-1.458c-0.198-1.384-1.454-3.7,0.992-5.085c2.583-1.464,4.323-0.103,5.682-0.43
				s2.381-0.213,3.271-1.291c1.636-1.98,0.861-4.649-0.222-6.229c3.796,2.214,5.278,6.522,4.699,10.878
				c-4.149,1.761-7.304,3.317-11.18,5.615c1.71,1.702,1.194,2.219,1.452,4.285C586.197,96.86,584.89,97.808,583.688,98.163z"/>
			<path style="fill:none;stroke:#E69525;stroke-width:1.0331;stroke-miterlimit:10;" d="M614.036,211.575
				c-5.001,19.516-6.22,39.995-3.57,59.966"/>
		</g>
		
			<path style="fill:none;stroke:#472A1C;stroke-width:0.3059;stroke-linecap:round;stroke-linejoin:round;stroke-miterlimit:10;" d="
			M592.227,110.785c3.102,1.971,7.251,2.167,10.525,0.499"/>
		
			<path style="fill:none;stroke:#15181F;stroke-width:0.7395;stroke-linecap:round;stroke-linejoin:round;stroke-miterlimit:10;" d="
			M575.831,166.978c5.04,7.653,13.551,12.92,22.649,14.016"/>
		
			<path style="fill:none;stroke:#15181F;stroke-width:0.7395;stroke-linecap:round;stroke-linejoin:round;stroke-miterlimit:10;" d="
			M650.684,141.911c1.757,8.167,0.429,16.959-3.662,24.242"/>
		
			<path style="fill:none;stroke:#15181F;stroke-width:0.7395;stroke-linecap:round;stroke-linejoin:round;stroke-miterlimit:10;" d="
			M634.577,153.756L634.577,153.756c-4.12,0-7.49-3.37-7.49-7.49v-1.033c0-4.12,3.37-7.49,7.49-7.49h0c4.119,0,7.49,3.37,7.49,7.49
			v1.033C642.067,150.386,638.696,153.756,634.577,153.756z"/>
		
			<path style="fill:none;stroke:#15181F;stroke-width:2.0662;stroke-linecap:round;stroke-linejoin:round;stroke-miterlimit:10;" d="
			M588.773,133.384c6.539,0.946,11.972,0.973,18.168-1.323c4.213-1.561,8.006-3.874,10.266-9.807"/>
		<path style="fill:#2D1A14;" d="M609.235,115.965c-3.378,0.641-6.994,0.01-9.959-1.746c-0.857-0.506-1.663-1.105-2.386-1.798
			c2.789,0.196,5.599-0.796,7.717-2.603c0.32-0.258,0.63-0.548,0.919-0.857c-0.196,0.434-0.413,0.847-0.661,1.24
			C606.229,112.215,607.675,114.137,609.235,115.965z"/>
		
			<path style="fill:none;stroke:#F6F3EE;stroke-width:0.7748;stroke-linecap:round;stroke-linejoin:round;stroke-miterlimit:10;" d="
			M661.261,237.983c-2.543,7.064-7.859,13.087-14.552,16.488"/>
	</g>
	<g>
		<path style="fill:#15181F;" d="M433.469,164.911c0.015-0.24-0.134-0.481-0.355-0.575c-2.128,1.695-5.218,2.081-7.698,0.963
			c-2.48-1.118-4.236-3.69-4.374-6.407c-1.712,3.411-1.86,7.752-0.154,11.165c1.706,3.413,5.081,5.942,8.837,6.62
			C432.719,172.759,433.164,169.833,433.469,164.911z"/>
		<path style="fill:#E05F2F;" d="M378.724,259.821l-37.275,60.397c0,0-27.616-12.779-79.74,12.805l5.271,5.207l94.76-1.576
			l29.089-39.366L378.724,259.821z"/>
		<path style="fill:#E05F2F;" d="M362.271,296.789l58.808,38.132c0,0-14.374,35.027,28.297,83.012l7.465-4.791l-23.818-89.25
			l-38.842-60.275L362.271,296.789z"/>
		<path style="fill:#E05F2F;" d="M378.724,259.821l-37.275,60.397c0,0-27.616-12.779-79.74,12.805l5.271,5.207l94.76-1.576
			l29.089-39.366L378.724,259.821z"/>
		<path style="fill:#5CAB27;" d="M356.708,295.493l22.016-35.672l12.106,37.467l-7.091,9.597
			C374.505,303.499,365.474,299.686,356.708,295.493z"/>
		<path style="fill:#E05F2F;" d="M362.271,296.789l58.808,38.132c0,0-14.374,35.027,28.297,83.012l7.465-4.791l-23.818-89.25
			l-38.842-60.275L362.271,296.789z"/>
		<path style="fill:#D8C6AD;" d="M336.783,318.733c4.583,4.859,7.195,11.798,8.968,18.187l-78.771,1.31l-5.272-5.207
			C301.412,313.536,326.892,316.306,336.783,318.733z"/>
		<path style="fill:#D8C6AD;" d="M421.646,351.827c5.211-3.339,10.856-5.997,16.629-8.256l18.566,69.571l-7.465,4.791
			c-23.579-26.515-29.737-49.069-30.53-63.948C419.727,353.199,420.65,352.466,421.646,351.827z"/>
		<g>
			<path style="fill:#E69525;" d="M450.086,202.659l24.532,36.665c3.841,5.741,3.004,12.976-1.861,16.093
				c-4.862,3.113-11.979,0.971-15.82-4.77l-24.533-36.665c-2.32-3.467-2.922-7.481-1.97-10.805c0.006-0.023,0.014-0.046,0.021-0.069
				c0.529-1.803,1.512-3.402,2.944-4.589l0.012-0.008c0.27-0.221,0.554-0.43,0.855-0.623c2.431-1.557,5.428-1.798,8.294-0.934
				c0.64,0.193,1.277,0.443,1.901,0.749C446.616,198.749,448.597,200.434,450.086,202.659z"/>
			<path style="fill:#E69525;" d="M454.176,222.832c-2.871,3.577-5.808,7.11-8.712,10.669l-13.06-19.518
				c-2.319-3.467-2.922-7.481-1.97-10.805c0.006-0.023,0.014-0.046,0.021-0.069c0.529-1.803,1.512-3.402,2.944-4.589l0.012-0.008
				c0.27-0.221,0.554-0.43,0.855-0.623c2.431-1.557,5.428-1.798,8.294-0.934c0.64,0.193,1.277,0.443,1.901,0.749
				c2.156,1.045,4.137,2.729,5.626,4.954l9.152,13.678C457.587,218.53,455.894,220.691,454.176,222.832z"/>
			<path style="fill:#E69525;" d="M528.104,237.063c0,0,5.253,8.622,5.253,8.622c-14.851,3.861-34.758,8.29-49.792,11.45
				c-9.649,2.028-26.2,3.263-28.663-10.308c-2.637-14.529,26.397-10.843,34.464-10.665
				C492.139,236.223,528.104,237.033,528.104,237.063z"/>
		</g>
		<g>
			<g>
				<path style="fill:#E05F2F;" d="M543.772,227.989c1.182,1.258-5.036,7.282-5.036,7.282s17.283-1.933,17.708,0.235
					c0.017,0.087,0.004,0.172-0.022,0.256c-0.485,0.328-0.963,0.664-1.431,1.012c-3.4,1.296-11.551,1.908-11.551,1.908
					s2.79-0.045,5.905,0.125c-1.888,0.919-3.6,2.119-5.178,3.498c-0.398-0.031-0.628-0.052-0.628-0.052s0.223,0.026,0.602,0.075
					c-2.292,2.008-4.303,4.386-6.175,6.801c-5.462-0.556-12.979-1.837-12.979-1.837l-0.206-7.766
					C524.78,239.525,541.778,225.867,543.772,227.989z"/>
			</g>
			<path style="fill:#E05F2F;" d="M547.146,243.657c0.848,0.893,0.718,2.374-0.025,3.379c-0.743,1.005-1.957,1.604-3.18,1.984
				c-2.736,0.85-5.76,0.771-8.402-0.219c-1.788-0.67-3.567-2.038-3.556-3.88c0.01-1.557,1.29-2.848,2.58-3.832
				c3.074-2.344,9.525-6.171,13.635-4.689C551.725,237.671,551.64,244.581,547.146,243.657z"/>
		</g>
		<path style="fill:#724927;" d="M394.926,278.638c-1.912,13.024-12.698,22.227-24.091,20.554
			c-11.393-1.673-19.079-13.586-17.167-26.611c1.911-13.024,12.697-22.226,24.091-20.554
			C389.152,253.7,396.838,265.614,394.926,278.638z"/>
		<path style="fill:#5CAB27;" d="M386.452,312.468l-24.181-15.679l31.91-33.173l12.971,20.128
			C397.875,290.495,391.177,301.015,386.452,312.468z"/>
		<path style="fill:#5CAB27;" d="M398.565,279.172c-1.912,13.024-13.527,22.105-25.944,20.282
			c-12.416-1.823-20.932-13.858-19.02-26.883c1.911-13.024,13.527-22.105,25.943-20.282
			C391.961,254.112,400.476,266.148,398.565,279.172z"/>
		<path style="fill:#5CAB27;" d="M374.797,283.768c0.917,0.778,1.848,1.527,2.773,2.239c5.372,4.136,10.805,8.189,16.257,12.219
			c-2.869,4.412-5.31,9.238-7.375,14.243l-24.181-15.679L374.797,283.768z"/>
		<path style="fill:#5CAB27;" d="M351.053,272.587c1.554-11.631,13.698-28.067,24.419-28.876c-3.32,4.516-8.639,18.293-8.565,24.023
			c0.111,8.53,5.986,14.762,11.543,19.575c3.448,2.986,6.926,5.926,10.415,8.85c-4.853,3.865-11.148,5.742-17.705,4.682
			C358.251,298.754,349.249,286.104,351.053,272.587z"/>
		<path style="fill:#E69525;" d="M395.95,267.284c-15.47-7.047-16.899-10.235-32.186-17.672c0,0,16.959-71.211,16.963-71.231
			c2.098-8.783,3.78-19.258,11.403-18.061c6.476,1.016,21.553,8.394,27.252,11.673c10.621,6.111,28.328,21.605,29.758,30.702
			c2.113,13.442-0.805,18.107-10.54,29.794C423.189,250.99,402.356,257.995,395.95,267.284z"/>
		<path style="fill:#E69525;" d="M334.027,162.819c7.29-1.793,12.862-5.094,12.087-11.387c-0.596-4.841-7.022-7.783-14.353-6.572
			c-2.071,0.342-3.983,0.987-5.661,1.834l-0.015-0.031l-41.551,13.386l0.338,7.936c7.237-0.84,14.474-1.68,21.711-2.521
			C311.348,164.912,324.236,165.227,334.027,162.819z"/>
		<path style="fill:#E69525;" d="M385.712,180.283l-47.676-13.858c-7.465-2.17-12.281-8.504-10.71-14.087
			c1.569-5.578,8.953-8.371,16.417-6.201l47.676,13.858c4.508,1.31,8.043,4.148,9.796,7.417c0.013,0.022,0.023,0.046,0.035,0.068
			c0.94,1.781,1.36,3.687,1.102,5.546l-0.004,0.014c-0.051,0.348-0.121,0.696-0.219,1.041c-0.785,2.789-3.026,4.882-6,6.005
			c-0.664,0.251-1.369,0.455-2.106,0.604C391.487,181.22,388.606,181.124,385.712,180.283z"/>
		<path style="fill:#E69525;" d="M371.094,176.034c1.149-7.123,1.817-14.294,1.79-21.426l18.535,5.388
			c4.508,1.31,8.043,4.148,9.796,7.417c0.013,0.022,0.023,0.046,0.035,0.068c0.94,1.782,1.359,3.687,1.102,5.546l-0.004,0.014
			c-0.051,0.348-0.121,0.696-0.219,1.041c-0.785,2.789-3.026,4.882-6,6.005c-0.664,0.251-1.369,0.454-2.106,0.604
			c-2.537,0.529-5.418,0.433-8.311-0.408L371.094,176.034z"/>
		<path style="fill:#414140;" d="M262.759,327.201L262.759,327.201c-2.988,0.864-4.727,4.015-3.863,7.003l4.395,15.211
			c0.863,2.988,4.015,4.727,7.003,3.863l0,0c2.988-0.863,4.727-4.014,3.863-7.003l-4.395-15.211
			C268.899,328.076,265.748,326.338,262.759,327.201z"/>
		<path style="fill:#414140;" d="M441.658,137.516c-0.073,0.092-0.157,0.16-0.1,0.197c0.036-0.034,0.073-0.08,0.097-0.115
			C441.668,137.563,441.669,137.54,441.658,137.516z"/>
		<path style="fill:none;stroke:#FFFFFF;stroke-width:2.229;stroke-linecap:round;stroke-linejoin:round;stroke-miterlimit:10;" d="
			M391.657,299.492c-1.02-1.082-15.628-13.722-23.612-21.133c-3.834-3.559-4.972-9.165-2.83-13.938l5.856-10.506"/>
		<g>
			<g>
				<path style="fill:#E05F2F;" d="M273.706,178.547c-1.174-0.883,3.165-6.84,3.165-6.84s-14.215,4.134-14.887,2.378
					c-0.027-0.071-0.028-0.144-0.019-0.218c0.359-0.346,0.711-0.697,1.053-1.057c2.663-1.581,9.411-3.28,9.411-3.28
					s-2.333,0.443-4.971,0.754c1.45-1.045,2.712-2.301,3.834-3.687c0.339-0.032,0.534-0.047,0.534-0.047s-0.191,0.011-0.516,0.025
					c1.63-2.018,2.972-4.305,4.19-6.602c4.662-0.327,11.154-0.346,11.154-0.346l1.302,6.484
					C287.958,166.109,275.687,180.037,273.706,178.547z"/>
			</g>
			<path style="fill:#E05F2F;" d="M268.598,165.896c-0.841-0.626-0.947-1.887-0.47-2.838c0.477-0.951,1.408-1.63,2.379-2.126
				c2.171-1.111,4.72-1.484,7.079-1.038c1.598,0.302,3.288,1.191,3.547,2.738c0.218,1.307-0.668,2.577-1.607,3.589
				c-2.237,2.413-7.092,6.561-10.754,5.915C265.627,171.582,264.693,165.774,268.598,165.896z"/>
		</g>
		<g>
			<g>
				<path style="fill:#1C0F0A;" d="M471.966,405.442c-3.399,0.379-6.721,1.533-10.167,1.142c-2.946-0.334-5.78-1.911-7.921-4.207
					c-0.258,1.573-0.479,3.155-0.811,4.708c-0.322,1.504-0.757,3.014-1.563,4.283c-0.81,1.274-2.003,2.13-3.445,2.44
					c-1.063,0.228-2.178,0.159-3.279-0.066l6.549,15.186l39.672-17.109C485.678,407.073,478.599,404.702,471.966,405.442z"/>
				<path style="fill:#1C0F0A;" d="M448.765,418.713c1.689-0.235,3.415-0.388,5.121-0.384c1.831,0.005,3.752,0.184,5.532-0.347
					c3.225-0.963,4.387-4.034,4.715-7.101c0.149-1.397,0.187-2.848,0.341-4.267c2.509-0.19,4.979-0.892,7.492-1.172
					c6.634-0.74,13.712,1.631,19.036,6.377l-39.672,17.109l-4.281-9.926C447.618,418.889,448.191,418.793,448.765,418.713z"/>
				<path style="fill:#1C0F0A;" d="M491.1,414.51l-38.622,16.656c-1.099,0.474-2.422-0.123-2.941-1.326l0,0
					c-0.519-1.203-0.044-2.575,1.054-3.049l38.622-16.656c1.099-0.474,2.422,0.123,2.941,1.326l0,0
					C492.674,412.664,492.199,414.036,491.1,414.51z"/>
			</g>
		</g>
		<g>
			<path style="fill:#1C0F0A;" d="M275.251,354.718c0.729-3.342,0.7-6.858,2.174-9.997c1.26-2.684,3.662-4.864,6.522-6.156
				c-1.408-0.748-2.836-1.464-4.201-2.276c-1.322-0.787-2.613-1.682-3.557-2.852c-0.948-1.175-1.376-2.579-1.208-4.044
				c0.124-1.08,0.547-2.114,1.113-3.085l-16.484,1.341l3.502,43.061C269.315,367.185,273.828,361.239,275.251,354.718z"/>
			<path style="fill:#1C0F0A;" d="M270.109,328.489c-0.318,1.675-0.726,3.36-1.276,4.974c-0.591,1.733-1.376,3.495-1.443,5.352
				c-0.12,3.364,2.416,5.448,5.217,6.741c1.275,0.589,2.638,1.089,3.933,1.689c-0.624,2.438-0.75,5.003-1.289,7.473
				c-1.424,6.521-5.937,12.467-12.138,15.991l-3.503-43.061l10.775-0.876C270.311,327.346,270.217,327.919,270.109,328.489z"/>
			<path style="fill:#1C0F0A;" d="M260.532,369.941l-3.41-41.922c-0.097-1.193,0.892-2.255,2.198-2.362l0,0
				c1.306-0.106,2.454,0.783,2.551,1.975l3.41,41.922c0.097,1.193-0.892,2.255-2.198,2.361l0,0
				C261.777,372.022,260.629,371.133,260.532,369.941z"/>
		</g>
		<path style="fill:#1C0F0A;" d="M282.466,342.635c1.705,1.605,2.76,4.305,1.532,6.298c-2.602,4.226-12.016,1.923-12.883-2.743
			C269.83,339.27,278.759,339.146,282.466,342.635z"/>
		<path style="fill:none;stroke:#FFFFFF;stroke-width:2.229;stroke-linecap:round;stroke-linejoin:round;stroke-miterlimit:10;" d="
			M477.793,416.127c0,0-13.28-3.239-30.744,2.874"/>
		<path style="fill:none;stroke:#FFFFFF;stroke-width:2.229;stroke-linecap:round;stroke-linejoin:round;stroke-miterlimit:10;" d="
			M264.309,353.843c0,0,8.278-11.745,5.8-25.354"/>
		<path style="fill:#1C0F0A;" d="M489.272,417.58l0.371,0.011c1.43,0.042,2.634-1.093,2.676-2.523l0,0
			c0.042-1.43-1.093-2.634-2.523-2.676l-0.371-0.011c-1.43-0.042-2.634,1.093-2.676,2.523l0,0
			C486.707,416.334,487.842,417.538,489.272,417.58z"/>
		<path style="fill:#1C0F0A;" d="M483.024,421.484l0.371,0.011c1.43,0.042,2.634-1.093,2.676-2.523l0,0
			c0.042-1.43-1.093-2.634-2.523-2.676l-0.371-0.011c-1.43-0.042-2.634,1.093-2.676,2.523l0,0
			C480.459,420.238,481.595,421.442,483.024,421.484z"/>
		<path style="fill:#1C0F0A;" d="M475.488,424.979l0.371,0.011c1.43,0.042,2.634-1.093,2.676-2.523l0,0
			c0.042-1.43-1.093-2.634-2.523-2.676l-0.371-0.011c-1.43-0.042-2.634,1.093-2.676,2.523l0,0
			C472.923,423.733,474.059,424.937,475.488,424.979z"/>
		<path style="fill:#1C0F0A;" d="M467.231,427.709l0.371,0.011c1.43,0.042,2.634-1.093,2.676-2.523l0,0
			c0.042-1.43-1.093-2.634-2.523-2.676l-0.371-0.011c-1.43-0.042-2.634,1.093-2.676,2.523l0,0
			C464.666,426.463,465.802,427.667,467.231,427.709z"/>
		<path style="fill:#1C0F0A;" d="M458.778,430.805l0.371,0.011c1.43,0.042,2.634-1.093,2.676-2.523l0,0
			c0.042-1.43-1.093-2.634-2.523-2.676l-0.371-0.011c-1.43-0.042-2.634,1.093-2.676,2.523l0,0
			C456.213,429.559,457.348,430.763,458.778,430.805z"/>
		<path style="fill:#1C0F0A;" d="M451.985,434.322l0.371,0.011c1.43,0.042,2.634-1.093,2.676-2.523l0,0
			c0.042-1.43-1.093-2.634-2.523-2.676l-0.371-0.011c-1.43-0.042-2.634,1.093-2.676,2.523l0,0
			C449.419,433.076,450.555,434.28,451.985,434.322z"/>
		<path style="fill:#1C0F0A;" d="M259.291,368.986l0.366-0.061c1.411-0.234,2.374-1.58,2.139-2.991l0,0
			c-0.234-1.411-1.58-2.374-2.991-2.14l-0.366,0.061c-1.411,0.234-2.374,1.58-2.14,2.991l0,0
			C256.534,368.258,257.88,369.22,259.291,368.986z"/>
		<path style="fill:#1C0F0A;" d="M259.419,360.68l0.367-0.061c1.411-0.234,2.374-1.58,2.139-2.991l0,0
			c-0.234-1.411-1.58-2.374-2.991-2.14l-0.367,0.061c-1.411,0.234-2.374,1.58-2.139,2.991l0,0
			C256.662,359.952,258.008,360.914,259.419,360.68z"/>
		<path style="fill:#1C0F0A;" d="M258.265,350.328l0.367-0.061c1.411-0.234,2.374-1.58,2.139-2.991l0,0
			c-0.234-1.411-1.58-2.374-2.991-2.139l-0.367,0.061c-1.411,0.234-2.374,1.58-2.139,2.991l0,0
			C255.508,349.599,256.854,350.562,258.265,350.328z"/>
		<path style="fill:#1C0F0A;" d="M258.027,340.953l0.366-0.061c1.411-0.234,2.374-1.58,2.139-2.991l0,0
			c-0.234-1.411-1.58-2.374-2.991-2.139l-0.366,0.061c-1.411,0.234-2.374,1.58-2.139,2.991l0,0
			C255.27,340.224,256.616,341.187,258.027,340.953z"/>
		<path style="fill:#1C0F0A;" d="M257.056,330.569l0.366-0.061c1.411-0.234,2.374-1.58,2.139-2.991l0,0
			c-0.234-1.411-1.58-2.374-2.991-2.14l-0.366,0.061c-1.411,0.234-2.374,1.58-2.139,2.991l0,0
			C254.299,329.841,255.645,330.804,257.056,330.569z"/>
		<path style="fill:#FFFFFF;" d="M403.367,204.692c-0.199,6.768,3.131,12.357,7.437,12.484c4.307,0.127,7.96-5.257,8.159-12.025
			c0.199-6.768-3.131-12.357-7.437-12.484C407.219,192.541,403.567,197.924,403.367,204.692z"/>
		<path style="fill:none;stroke:#15181F;stroke-width:0.689;stroke-linecap:round;stroke-linejoin:round;stroke-miterlimit:10;" d="
			M405.286,204.749c-0.15,5.103,2.36,9.317,5.607,9.412c3.247,0.096,6.001-3.963,6.151-9.066c0.15-5.103-2.36-9.317-5.607-9.412
			C408.19,195.587,405.436,199.646,405.286,204.749z"/>
		<path style="fill:none;stroke:#15181F;stroke-width:0.689;stroke-linecap:round;stroke-linejoin:round;stroke-miterlimit:10;" d="
			M375.796,194.403c0,0,23.967,38.057,9.713,67.742"/>
		<path style="fill:#E05F2F;" d="M442.786,176.684c-3.548,4.275-6.118,9.357-7.46,14.748c-5.232-1.806-9.99-6.635-12.031-11.78
			c5.131-4.041,8.915-10.324,12.074-16.041C436.082,168.15,439.447,173.527,442.786,176.684z"/>
		<path style="fill:#15181F;" d="M435.685,183.749c-2.369-3.752-0.966-10.021,1.987-13.833c1.41,2.59,3.265,5.019,5.113,6.767
			c-2.225,2.682-4.065,5.681-5.459,8.875C436.685,185.035,436.122,184.443,435.685,183.749z"/>
		<path style="fill:#E05F2F;" d="M441.836,182.599c5.25,0.228,9.719-3.891,9.936-9.129l0.835-19.606
			c0.016-0.382,0.012-0.752-0.016-1.119c-0.017-0.223-0.043-0.434-0.081-0.644c0.009-0.035,0.007-0.057-0.006-0.078
			c-0.003-0.045-0.007-0.089-0.02-0.122c-0.714-4.351-4.431-7.785-9.006-7.973c-5.25-0.227-9.72,3.88-9.937,9.129l-0.445,10.477
			l-0.389,9.129C432.478,177.902,436.586,182.383,441.836,182.599z"/>
		
			<line style="fill:none;stroke:#E69525;stroke-width:2.9856;stroke-linecap:round;stroke-linejoin:round;stroke-miterlimit:10;" x1="439.72" y1="350.369" x2="418.489" y2="361.648"/>
		
			<line style="fill:none;stroke:#E69525;stroke-width:2.9856;stroke-linecap:round;stroke-linejoin:round;stroke-miterlimit:10;" x1="330.195" y1="318.184" x2="339.339" y2="338.876"/>
		<path style="fill:none;stroke:#15181F;stroke-width:0.689;stroke-linecap:round;stroke-linejoin:round;stroke-miterlimit:10;" d="
			M346.319,146.607c-3.641,4.046-8.846,6.648-14.268,7.132s-11.006-1.155-15.306-4.493"/>
		<path style="fill:none;stroke:#15181F;stroke-width:0.689;stroke-linecap:round;stroke-linejoin:round;stroke-miterlimit:10;" d="
			M479.871,258.826c-5.163-7.792-15.045-12.162-24.283-10.74"/>
		<path style="fill:#15181F;" d="M436.012,164.482c2.823-2.62,3.492-7.266,1.524-10.577h15.355c3.233-0.671,5.354-3.722,6.218-6.908
			c0.864-3.187-0.203-6.818-2.654-9.03c1.504,1.682-0.072,4.463-1.959,5.701c-1.887,1.238-4.338,1.19-6.557,0.776
			c-2.219-0.413-4.403-1.148-6.66-1.136c-3.632,0.021-7.175,2.157-8.889,5.359c-1.714,3.202-1.526,7.335,0.471,10.368
			C434.227,161.108,435.943,162.003,436.012,164.482z"/>
		<path style="fill:#E05F2F;" d="M450.991,167.927c1.532-0.307,2.955-1.13,3.985-2.305c-1.853-1.864-3.282-4.576-3.322-7.204
			C451.278,161.557,450.936,164.766,450.991,167.927z"/>
		
			<line style="fill:none;stroke:#15181F;stroke-width:0.689;stroke-linecap:round;stroke-linejoin:round;stroke-miterlimit:10;" x1="452.105" y1="169.326" x2="447.226" y2="169.326"/>
		<path style="fill:#15181F;" d="M446.009,160.183h6.737c0.529,0,0.962-0.433,0.962-0.962l0,0c0-0.529-0.433-0.962-0.962-0.962
			h-6.737c-0.529,0-0.962,0.433-0.962,0.962l0,0C445.047,159.75,445.48,160.183,446.009,160.183z"/>
		<path style="fill:#15181F;" d="M447.613,162.749h1.925c0.353,0,0.642-0.289,0.642-0.642l0,0c0-0.353-0.289-0.642-0.642-0.642
			h-1.925c-0.353,0-0.642,0.289-0.642,0.642l0,0C446.971,162.461,447.26,162.749,447.613,162.749z"/>
		<path style="fill:#E05F2F;" d="M426.341,163.271c-0.079,2.692,1.976,4.936,4.591,5.013c2.615,0.077,4.799-2.043,4.878-4.734
			c0.079-2.692-1.976-4.936-4.591-5.013C428.604,158.46,426.42,160.58,426.341,163.271z"/>
		<path style="fill:none;stroke:#15181F;stroke-width:0.689;stroke-linecap:round;stroke-linejoin:round;stroke-miterlimit:10;" d="
			M433.158,167.879c-0.487,2.978,0.657,6.172,2.924,8.164"/>
		<path style="fill:none;stroke:#15181F;stroke-width:0.689;stroke-linecap:round;stroke-linejoin:round;stroke-miterlimit:10;" d="
			M429.164,161.476c2.232,0.494,4.086,2.393,4.529,4.635"/>
	</g>
	<g>
		
			<ellipse transform="matrix(0.3181 -0.9481 0.9481 0.3181 -48.1061 760.9711)" style="fill:#D8C6AD;" cx="504.935" cy="413.926" rx="20.706" ry="20.838"/>
		<polygon style="fill:#0F0808;" points="510.56,416.239 510.56,409.745 504.935,406.497 499.31,409.745 499.31,416.239 
			504.935,419.487 		"/>
		<g>
			<defs>
				
					<ellipse id="SVGID_00000029044198374502248630000008624889389600978583_" transform="matrix(0.3181 -0.9481 0.9481 0.3181 -48.1061 760.9711)" cx="504.935" cy="413.926" rx="20.706" ry="20.838"/>
			</defs>
			<clipPath id="SVGID_00000102529067404107837200000015092492201937268377_">
				<use xlink:href="#SVGID_00000029044198374502248630000008624889389600978583_"  style="overflow:visible;"/>
			</clipPath>
			<polygon style="clip-path:url(#SVGID_00000102529067404107837200000015092492201937268377_);fill:#0F0808;" points="
				528.697,428.782 528.697,422.287 523.072,419.04 517.448,422.287 517.448,428.782 523.072,432.029 			"/>
			<polygon style="clip-path:url(#SVGID_00000102529067404107837200000015092492201937268377_);fill:#0F0808;" points="
				510.361,394.33 510.361,387.835 504.736,384.588 499.112,387.835 499.112,394.33 504.736,397.577 			"/>
			<polygon style="clip-path:url(#SVGID_00000102529067404107837200000015092492201937268377_);fill:#0F0808;" points="
				510.854,439.06 510.854,432.565 505.229,429.318 499.605,432.565 499.605,439.06 505.229,442.307 			"/>
			<polygon style="clip-path:url(#SVGID_00000102529067404107837200000015092492201937268377_);fill:#0F0808;" points="
				492.6,404.197 492.6,397.702 486.976,394.455 481.351,397.702 481.351,404.197 486.976,407.444 			"/>
			<polygon style="clip-path:url(#SVGID_00000102529067404107837200000015092492201937268377_);fill:#0F0808;" points="
				526.782,403.992 526.782,397.498 521.157,394.25 515.533,397.498 515.533,403.992 521.157,407.24 			"/>
			<polygon style="clip-path:url(#SVGID_00000102529067404107837200000015092492201937268377_);fill:#0F0808;" points="
				493.735,428.678 493.735,422.184 488.111,418.936 482.486,422.184 482.486,428.678 488.111,431.926 			"/>
		</g>
		
			<line style="fill:none;stroke:#15181F;stroke-width:0.6706;stroke-linecap:round;stroke-linejoin:round;stroke-miterlimit:10;" x1="492.6" y1="404.197" x2="500.207" y2="410.265"/>
		
			<line style="fill:none;stroke:#15181F;stroke-width:0.6706;stroke-linecap:round;stroke-linejoin:round;stroke-miterlimit:10;" x1="510.196" y1="416.037" x2="517.803" y2="422.105"/>
		
			<line style="fill:none;stroke:#15181F;stroke-width:0.6706;stroke-linecap:round;stroke-linejoin:round;stroke-miterlimit:10;" x1="516.889" y1="402.912" x2="510.123" y2="409.905"/>
		
			<line style="fill:none;stroke:#15181F;stroke-width:0.6706;stroke-linecap:round;stroke-linejoin:round;stroke-miterlimit:10;" x1="499.622" y1="415.739" x2="492.856" y2="422.732"/>
		<path style="fill:#0F0808;" d="M504.811,394.971"/>
		
			<line style="fill:none;stroke:#15181F;stroke-width:0.6706;stroke-linecap:round;stroke-linejoin:round;stroke-miterlimit:10;" x1="504.736" y1="397.577" x2="505.305" y2="430.821"/>
	</g>
	
		<line style="fill:none;stroke:#15181F;stroke-width:0.6977;stroke-linecap:round;stroke-linejoin:round;stroke-miterlimit:10;" x1="182.828" y1="123.909" x2="190.005" y2="140.65"/>
	<path style="fill:none;stroke:#15181F;stroke-width:0.6977;stroke-linecap:round;stroke-linejoin:round;stroke-miterlimit:10;" d="
		M187.48,126.718c6.194,8.082,17.157,12.195,27.138,10.182"/>
	<path style="fill:none;stroke:#15181F;stroke-width:0.6977;stroke-linecap:round;stroke-linejoin:round;stroke-miterlimit:10;" d="
		M237.196,144.935c-9.762,0.634-19.523,1.268-29.285,1.902"/>
	<path style="fill:none;stroke:#15181F;stroke-width:0.6977;stroke-linecap:round;stroke-linejoin:round;stroke-miterlimit:10;" d="
		M226.585,180.444c-13.971,3.786-29.053,3.37-42.794-1.181"/>
</g>
</svg>
